<?xml version="1.0" encoding="us-ascii" standalone="no"?><svg xmlns="http://www.w3.org/2000/svg" xmlns:xlink="http://www.w3.org/1999/xlink" contentStyleType="text/css" height="930px" preserveAspectRatio="none" style="width:2368px;height:930px;background:#FFFFFF;" version="1.1" viewBox="0 0 2368 930" width="2368px" zoomAndPan="magnify"><defs/><g><g id="elem_R4_Observation"><rect fill="#22FF22" height="37.6094" style="stroke:#181818;stroke-width:0.5;" width="117" x="1501" y="7"/><text fill="#000000" font-family="sans-serif" font-size="14" lengthAdjust="spacing" textLength="103" x="1508" y="23.5332">R4_Observation</text><line style="stroke:#181818;stroke-width:0.5;" x1="1502" x2="1617" y1="28.6094" y2="28.6094"/></g><g id="elem_TNM_Klassifikation"><rect fill="#22FF22" height="86.4375" style="stroke:#181818;stroke-width:0.5;" width="368" x="1375.5" y="109"/><text fill="#000000" font-family="sans-serif" font-size="14" lengthAdjust="spacing" textLength="119" x="1500" y="125.5332">TNM_Klassifikation</text><line style="stroke:#181818;stroke-width:1.0;" x1="1375.5" x2="1743.5" y1="130.6094" y2="130.6094"/><text fill="#000000" font-family="sans-serif" font-size="14" lengthAdjust="spacing" textLength="98" x="1391" y="147.1426">8.1 TNM Datum</text><text fill="#000000" font-family="sans-serif" font-size="14" lengthAdjust="spacing" textLength="114" x="1509.5" y="147.1426">effectiveDateTime</text><line style="stroke:#181818;stroke-width:1.0;" x1="1504.5" x2="1504.5" y1="130.6094" y2="152.2188"/><line style="stroke:#181818;stroke-width:1.0;" x1="1375.5" x2="1743.5" y1="152.2188" y2="152.2188"/><text fill="#000000" font-family="sans-serif" font-size="14" lengthAdjust="spacing" textLength="105" x="1387.5" y="168.752">8.2 TNM Version</text><text fill="#000000" font-family="sans-serif" font-size="14" lengthAdjust="spacing" textLength="47" x="1509.5" y="168.752">method</text><line style="stroke:#181818;stroke-width:1.0;" x1="1504.5" x2="1504.5" y1="152.2188" y2="173.8281"/><line style="stroke:#181818;stroke-width:1.0;" x1="1375.5" x2="1743.5" y1="173.8281" y2="173.8281"/><text fill="#000000" font-family="sans-serif" font-size="14" lengthAdjust="spacing" textLength="119" x="1380.5" y="190.3613">8.17 UICC Stadium</text><text fill="#000000" font-family="sans-serif" font-size="14" lengthAdjust="spacing" textLength="229" x="1509.5" y="190.3613">valueCodeableConcept.coding.code</text><line style="stroke:#181818;stroke-width:1.0;" x1="1504.5" x2="1504.5" y1="173.8281" y2="195.4375"/></g><g id="elem_TNM_T"><rect fill="#22FF22" height="64.8281" style="stroke:#181818;stroke-width:0.5;" width="683" x="7" y="263"/><text fill="#000000" font-family="sans-serif" font-size="14" lengthAdjust="spacing" textLength="46" x="325.5" y="279.5332">TNM_T</text><line style="stroke:#181818;stroke-width:1.0;" x1="7" x2="690" y1="284.6094" y2="284.6094"/><text fill="#000000" font-family="sans-serif" font-size="14" lengthAdjust="spacing" textLength="129" x="13.5" y="301.1426">8.6 TNM c/p-Pr&#228;fix T</text><text fill="#000000" font-family="sans-serif" font-size="14" lengthAdjust="spacing" textLength="531" x="154" y="301.1426">code.extension[MII_EX_Onko_TNM_cp_Praefix].valueCodeableConcept.coding.code</text><line style="stroke:#181818;stroke-width:1.0;" x1="149" x2="149" y1="284.6094" y2="306.2188"/><line style="stroke:#181818;stroke-width:1.0;" x1="7" x2="690" y1="306.2188" y2="306.2188"/><text fill="#000000" font-family="sans-serif" font-size="14" lengthAdjust="spacing" textLength="132" x="12" y="322.752">8.9 TNM T-Kategorie</text><text fill="#000000" font-family="sans-serif" font-size="14" lengthAdjust="spacing" textLength="229" x="154" y="322.752">valueCodeableConcept.coding.code</text><line style="stroke:#181818;stroke-width:1.0;" x1="149" x2="149" y1="306.2188" y2="327.8281"/></g><g id="elem_TNM_N"><rect fill="#22FF22" height="64.8281" style="stroke:#181818;stroke-width:0.5;" width="691" x="238" y="395"/><text fill="#000000" font-family="sans-serif" font-size="14" lengthAdjust="spacing" textLength="46" x="560.5" y="411.5332">TNM_N</text><line style="stroke:#181818;stroke-width:1.0;" x1="238" x2="929" y1="416.6094" y2="416.6094"/><text fill="#000000" font-family="sans-serif" font-size="14" lengthAdjust="spacing" textLength="129" x="248.5" y="433.1426">8.7 TNM c/p-Pr&#228;fix N</text><text fill="#000000" font-family="sans-serif" font-size="14" lengthAdjust="spacing" textLength="531" x="393" y="433.1426">code.extension[MII_EX_Onko_TNM_cp_Praefix].valueCodeableConcept.coding.code</text><line style="stroke:#181818;stroke-width:1.0;" x1="388" x2="388" y1="416.6094" y2="438.2188"/><line style="stroke:#181818;stroke-width:1.0;" x1="238" x2="929" y1="438.2188" y2="438.2188"/><text fill="#000000" font-family="sans-serif" font-size="14" lengthAdjust="spacing" textLength="140" x="243" y="454.752">8.11 TNM N-Kategorie</text><text fill="#000000" font-family="sans-serif" font-size="14" lengthAdjust="spacing" textLength="229" x="393" y="454.752">valueCodeableConcept.coding.code</text><line style="stroke:#181818;stroke-width:1.0;" x1="388" x2="388" y1="438.2188" y2="459.8281"/></g><g id="elem_TNM_M"><rect fill="#22FF22" height="64.8281" style="stroke:#181818;stroke-width:0.5;" width="693" x="437" y="527"/><text fill="#000000" font-family="sans-serif" font-size="14" lengthAdjust="spacing" textLength="48" x="759.5" y="543.5332">TNM_M</text><line style="stroke:#181818;stroke-width:1.0;" x1="437" x2="1130" y1="548.6094" y2="548.6094"/><text fill="#000000" font-family="sans-serif" font-size="14" lengthAdjust="spacing" textLength="131" x="447.5" y="565.1426">8.8 TNM c/p-Pr&#228;fix M</text><text fill="#000000" font-family="sans-serif" font-size="14" lengthAdjust="spacing" textLength="531" x="594" y="565.1426">code.extension[MII_EX_Onko_TNM_cp_Praefix].valueCodeableConcept.coding.code</text><line style="stroke:#181818;stroke-width:1.0;" x1="589" x2="589" y1="548.6094" y2="570.2188"/><line style="stroke:#181818;stroke-width:1.0;" x1="437" x2="1130" y1="570.2188" y2="570.2188"/><text fill="#000000" font-family="sans-serif" font-size="14" lengthAdjust="spacing" textLength="142" x="442" y="586.752">8.12 TNM M-Kategorie</text><text fill="#000000" font-family="sans-serif" font-size="14" lengthAdjust="spacing" textLength="229" x="594" y="586.752">valueCodeableConcept.coding.code</text><line style="stroke:#181818;stroke-width:1.0;" x1="589" x2="589" y1="570.2188" y2="591.8281"/></g><g id="elem_TNM_m"><rect fill="#22FF22" height="43.2188" style="stroke:#181818;stroke-width:0.5;" width="376" x="1051.5" y="273.5"/><text fill="#000000" font-family="sans-serif" font-size="14" lengthAdjust="spacing" textLength="48" x="1215.5" y="290.0332">TNM_m</text><line style="stroke:#181818;stroke-width:1.0;" x1="1051.5" x2="1427.5" y1="295.1094" y2="295.1094"/><text fill="#000000" font-family="sans-serif" font-size="14" lengthAdjust="spacing" textLength="127" x="1056.5" y="311.6426">8.10 TNM m-Symbol</text><text fill="#000000" font-family="sans-serif" font-size="14" lengthAdjust="spacing" textLength="229" x="1193.5" y="311.6426">valueCodeableConcept.coding.code</text><line style="stroke:#181818;stroke-width:1.0;" x1="1188.5" x2="1188.5" y1="295.1094" y2="316.7188"/></g><g id="elem_TNM_a"><rect fill="#22FF22" height="43.2188" style="stroke:#181818;stroke-width:0.5;" width="365" x="1133" y="405.5"/><text fill="#000000" font-family="sans-serif" font-size="14" lengthAdjust="spacing" textLength="45" x="1293" y="422.0332">TNM_a</text><line style="stroke:#181818;stroke-width:1.0;" x1="1133" x2="1498" y1="427.1094" y2="427.1094"/><text fill="#000000" font-family="sans-serif" font-size="14" lengthAdjust="spacing" textLength="116" x="1138" y="443.6426">8.5 TNM a-Symbol</text><text fill="#000000" font-family="sans-serif" font-size="14" lengthAdjust="spacing" textLength="229" x="1264" y="443.6426">valueCodeableConcept.coding.code</text><line style="stroke:#181818;stroke-width:1.0;" x1="1259" x2="1259" y1="427.1094" y2="448.7188"/></g><g id="elem_TNM_L"><rect fill="#22FF22" height="43.2188" style="stroke:#181818;stroke-width:0.5;" width="388" x="1181.5" y="537.5"/><text fill="#000000" font-family="sans-serif" font-size="14" lengthAdjust="spacing" textLength="45" x="1353" y="554.0332">TNM_L</text><line style="stroke:#181818;stroke-width:1.0;" x1="1181.5" x2="1569.5" y1="559.1094" y2="559.1094"/><text fill="#000000" font-family="sans-serif" font-size="14" lengthAdjust="spacing" textLength="139" x="1186.5" y="575.6426">8.13 TNM L-Kategorie</text><text fill="#000000" font-family="sans-serif" font-size="14" lengthAdjust="spacing" textLength="229" x="1335.5" y="575.6426">valueCodeableConcept.coding.code</text><line style="stroke:#181818;stroke-width:1.0;" x1="1330.5" x2="1330.5" y1="559.1094" y2="580.7188"/></g><g id="elem_TNM_Pn"><rect fill="#22FF22" height="43.2188" style="stroke:#181818;stroke-width:0.5;" width="397" x="1252" y="659"/><text fill="#000000" font-family="sans-serif" font-size="14" lengthAdjust="spacing" textLength="54" x="1423.5" y="675.5332">TNM_Pn</text><line style="stroke:#181818;stroke-width:1.0;" x1="1252" x2="1649" y1="680.6094" y2="680.6094"/><text fill="#000000" font-family="sans-serif" font-size="14" lengthAdjust="spacing" textLength="148" x="1257" y="697.1426">8.15 TNM Pn-Kategorie</text><text fill="#000000" font-family="sans-serif" font-size="14" lengthAdjust="spacing" textLength="229" x="1415" y="697.1426">valueCodeableConcept.coding.code</text><line style="stroke:#181818;stroke-width:1.0;" x1="1410" x2="1410" y1="680.6094" y2="702.2188"/></g><g id="elem_TNM_r"><rect fill="#22FF22" height="43.2188" style="stroke:#181818;stroke-width:0.5;" width="362" x="1700.5" y="659"/><text fill="#000000" font-family="sans-serif" font-size="14" lengthAdjust="spacing" textLength="42" x="1860.5" y="675.5332">TNM_r</text><line style="stroke:#181818;stroke-width:1.0;" x1="1700.5" x2="2062.5" y1="680.6094" y2="680.6094"/><text fill="#000000" font-family="sans-serif" font-size="14" lengthAdjust="spacing" textLength="113" x="1705.5" y="697.1426">8.4 TNM r-Symbol</text><text fill="#000000" font-family="sans-serif" font-size="14" lengthAdjust="spacing" textLength="229" x="1828.5" y="697.1426">valueCodeableConcept.coding.code</text><line style="stroke:#181818;stroke-width:1.0;" x1="1823.5" x2="1823.5" y1="680.6094" y2="702.2188"/></g><g id="elem_TNM_S"><rect fill="#22FF22" height="43.2188" style="stroke:#181818;stroke-width:0.5;" width="389" x="1763" y="537.5"/><text fill="#000000" font-family="sans-serif" font-size="14" lengthAdjust="spacing" textLength="46" x="1934.5" y="554.0332">TNM_S</text><line style="stroke:#181818;stroke-width:1.0;" x1="1763" x2="2152" y1="559.1094" y2="559.1094"/><text fill="#000000" font-family="sans-serif" font-size="14" lengthAdjust="spacing" textLength="140" x="1768" y="575.6426">8.16 TNM S-Kategorie</text><text fill="#000000" font-family="sans-serif" font-size="14" lengthAdjust="spacing" textLength="229" x="1918" y="575.6426">valueCodeableConcept.coding.code</text><line style="stroke:#181818;stroke-width:1.0;" x1="1913" x2="1913" y1="559.1094" y2="580.7188"/></g><g id="elem_TNM_V"><rect fill="#22FF22" height="43.2188" style="stroke:#181818;stroke-width:0.5;" width="389" x="1834" y="405.5"/><text fill="#000000" font-family="sans-serif" font-size="14" lengthAdjust="spacing" textLength="46" x="2005.5" y="422.0332">TNM_V</text><line style="stroke:#181818;stroke-width:1.0;" x1="1834" x2="2223" y1="427.1094" y2="427.1094"/><text fill="#000000" font-family="sans-serif" font-size="14" lengthAdjust="spacing" textLength="140" x="1839" y="443.6426">8.14 TNM V-Kategorie</text><text fill="#000000" font-family="sans-serif" font-size="14" lengthAdjust="spacing" textLength="229" x="1989" y="443.6426">valueCodeableConcept.coding.code</text><line style="stroke:#181818;stroke-width:1.0;" x1="1984" x2="1984" y1="427.1094" y2="448.7188"/></g><g id="elem_TNM_y"><rect fill="#22FF22" height="43.2188" style="stroke:#181818;stroke-width:0.5;" width="364" x="1997.5" y="273.5"/><text fill="#000000" font-family="sans-serif" font-size="14" lengthAdjust="spacing" textLength="44" x="2157.5" y="290.0332">TNM_y</text><line style="stroke:#181818;stroke-width:1.0;" x1="1997.5" x2="2361.5" y1="295.1094" y2="295.1094"/><text fill="#000000" font-family="sans-serif" font-size="14" lengthAdjust="spacing" textLength="115" x="2002.5" y="311.6426">8.3 TNM y-Symbol</text><text fill="#000000" font-family="sans-serif" font-size="14" lengthAdjust="spacing" textLength="229" x="2127.5" y="311.6426">valueCodeableConcept.coding.code</text><line style="stroke:#181818;stroke-width:1.0;" x1="2122.5" x2="2122.5" y1="295.1094" y2="316.7188"/></g><!--reverse link R4_Observation to TNM_Klassifikation--><g id="link_R4_Observation_TNM_Klassifikation"><path codeLine="8" d="M1559.5,63.03 C1559.5,78.68 1559.5,84.03 1559.5,104.84 " fill="none" id="R4_Observation-backto-TNM_Klassifikation" style="stroke:#181818;stroke-width:1.0;"/><polygon fill="none" points="1559.5,45.03,1553.5,63.03,1565.5,63.03,1559.5,45.03" style="stroke:#181818;stroke-width:1.0;"/></g><!--reverse link TNM_Klassifikation to TNM_T--><g id="link_TNM_Klassifikation_TNM_T"><path codeLine="15" d="M1355.3605,176.7679 C1162.3005,199.2479 873.96,232.82 649.34,258.97 " fill="none" id="TNM_Klassifikation-backto-TNM_T" style="stroke:#181818;stroke-width:1.0;"/><polygon fill="none" points="1367.28,175.38,1360.8576,172.1008,1355.3605,176.7679,1361.7829,180.0471,1367.28,175.38" style="stroke:#181818;stroke-width:1.0;"/></g><!--reverse link TNM_Klassifikation to TNM_N--><g id="link_TNM_Klassifikation_TNM_N"><path codeLine="20" d="M1355.3281,177.1693 C1237.4481,193.8293 1096.28,219 964.5,259 C850.3,293.66 724.78,353.16 650.14,390.99 " fill="none" id="TNM_Klassifikation-backto-TNM_N" style="stroke:#181818;stroke-width:1.0;"/><polygon fill="none" points="1367.21,175.49,1360.7093,172.369,1355.3281,177.1693,1361.8288,180.2903,1367.21,175.49" style="stroke:#181818;stroke-width:1.0;"/></g><!--reverse link TNM_Klassifikation to TNM_M--><g id="link_TNM_Klassifikation_TNM_M"><path codeLine="25" d="M1355.3778,172.4587 C1223.8178,188.4587 1076.27,214.84 1025.5,259 C953.07,322.01 1016.3,389.53 954.5,463 C933.19,488.34 903.3,508.16 874.47,522.99 " fill="none" id="TNM_Klassifikation-backto-TNM_M" style="stroke:#181818;stroke-width:1.0;"/><polygon fill="none" points="1367.29,171.01,1360.851,167.7636,1355.3778,172.4587,1361.8168,175.7051,1367.29,171.01" style="stroke:#181818;stroke-width:1.0;"/></g><!--reverse link TNM_Klassifikation to TNM_m--><g id="link_TNM_Klassifikation_TNM_m"><path codeLine="29" d="M1443.7387,204.0085 C1390.6987,227.3785 1339.41,249.98 1295.53,269.31 " fill="none" id="TNM_Klassifikation-backto-TNM_m" style="stroke:#181818;stroke-width:1.0;"/><polygon fill="none" points="1454.72,199.17,1447.6165,197.9288,1443.7387,204.0085,1450.8422,205.2497,1454.72,199.17" style="stroke:#181818;stroke-width:1.0;"/></g><!--reverse link TNM_Klassifikation to TNM_a--><g id="link_TNM_Klassifikation_TNM_a"><path codeLine="33" d="M1533.1855,210.1239 C1514.3555,248.3339 1489.36,291.66 1452.5,331 C1425.88,359.41 1389.42,384.19 1360.8,401.31 " fill="none" id="TNM_Klassifikation-backto-TNM_a" style="stroke:#181818;stroke-width:1.0;"/><polygon fill="none" points="1538.49,199.36,1532.2498,202.9738,1533.1855,210.1239,1539.4257,206.5101,1538.49,199.36" style="stroke:#181818;stroke-width:1.0;"/></g><!--reverse link TNM_Klassifikation to TNM_L--><g id="link_TNM_Klassifikation_TNM_L"><path codeLine="37" d="M1566.899,210.9529 C1573.189,275.2129 1574.56,381.18 1523.5,463 C1503.7,494.73 1468.96,517.85 1438.11,533.33 " fill="none" id="TNM_Klassifikation-backto-TNM_L" style="stroke:#181818;stroke-width:1.0;"/><polygon fill="none" points="1565.73,199.01,1562.3335,205.3711,1566.899,210.9529,1570.2955,204.5918,1565.73,199.01" style="stroke:#181818;stroke-width:1.0;"/></g><!--reverse link TNM_Klassifikation to TNM_Pn--><g id="link_TNM_Klassifikation_TNM_Pn"><path codeLine="41" d="M1583.4689,210.1981 C1616.3089,294.8781 1667.66,467.25 1594.5,595 C1578.87,622.29 1550.62,641.63 1523.26,654.85 " fill="none" id="TNM_Klassifikation-backto-TNM_Pn" style="stroke:#181818;stroke-width:1.0;"/><polygon fill="none" points="1579.13,199.01,1577.5701,206.0504,1583.4689,210.1981,1585.0288,203.1578,1579.13,199.01" style="stroke:#181818;stroke-width:1.0;"/></g><!--reverse link TNM_Klassifikation to TNM_r--><g id="link_TNM_Klassifikation_TNM_r"><path codeLine="45" d="M1604.8188,208.7884 C1618.1888,226.6584 1625.23,238.19 1635.5,259 C1704.56,398.95 1640.9,472.43 1737.5,595 C1758.22,621.3 1789.56,641.06 1817.71,654.84 " fill="none" id="TNM_Klassifikation-backto-TNM_r" style="stroke:#181818;stroke-width:1.0;"/><polygon fill="none" points="1597.63,199.18,1598.0216,206.3805,1604.8188,208.7884,1604.4272,201.5879,1597.63,199.18" style="stroke:#181818;stroke-width:1.0;"/></g><!--reverse link TNM_Klassifikation to TNM_S--><g id="link_TNM_Klassifikation_TNM_S"><path codeLine="49" d="M1665.4438,205.359 C1691.5338,221.449 1707.78,235.25 1727.5,259 C1789.82,334.05 1746.36,387.8 1808.5,463 C1833.61,493.39 1871.05,517.21 1902.12,533.39 " fill="none" id="TNM_Klassifikation-backto-TNM_S" style="stroke:#181818;stroke-width:1.0;"/><polygon fill="none" points="1655.23,199.06,1658.2373,205.6141,1665.4438,205.359,1662.4366,198.8049,1655.23,199.06" style="stroke:#181818;stroke-width:1.0;"/></g><!--reverse link TNM_Klassifikation to TNM_V--><g id="link_TNM_Klassifikation_TNM_V"><path codeLine="53" d="M1687.5156,203.7999 C1727.1356,220.9199 1760.06,236.85 1798.5,259 C1874.82,302.98 1956.53,366.82 1999.01,401.44 " fill="none" id="TNM_Klassifikation-backto-TNM_V" style="stroke:#181818;stroke-width:1.0;"/><polygon fill="none" points="1676.5,199.04,1680.4212,205.0918,1687.5156,203.7999,1683.5944,197.7481,1676.5,199.04" style="stroke:#181818;stroke-width:1.0;"/></g><!--reverse link TNM_Klassifikation to TNM_y--><g id="link_TNM_Klassifikation_TNM_y"><path codeLine="57" d="M1763.5511,199.4018 C1868.7911,223.3418 1983.58,249.44 2071.58,269.46 " fill="none" id="TNM_Klassifikation-backto-TNM_y" style="stroke:#181818;stroke-width:1.0;"/><polygon fill="none" points="1751.85,196.74,1756.8133,201.9712,1763.5511,199.4018,1758.5878,194.1705,1751.85,196.74" style="stroke:#181818;stroke-width:1.0;"/></g><rect fill="#DDDDDD" height="190.0938" id="_legend" rx="7.5" ry="7.5" style="stroke:#000000;stroke-width:1.0;" width="153" x="2189.5" y="720.2188"/><text fill="#000000" font-family="sans-serif" font-size="14" lengthAdjust="spacing" textLength="34" x="2194.5" y="741.752">Color</text><text fill="#000000" font-family="sans-serif" font-size="14" lengthAdjust="spacing" textLength="32" x="2228.5" y="741.752">Type</text><rect fill="#FFFF66" height="17.6094" style="stroke:none;stroke-width:1.0;" width="34" x="2194.5" y="744.8281"/><text fill="#000000" font-family="sans-serif" font-size="14" lengthAdjust="spacing" textLength="4" x="2194.5" y="759.3613">&#160;</text><text fill="#000000" font-family="sans-serif" font-size="14" lengthAdjust="spacing" textLength="60" x="2228.5" y="759.3613">Condition</text><rect fill="#CCCCFF" height="17.6094" style="stroke:none;stroke-width:1.0;" width="34" x="2194.5" y="762.4375"/><text fill="#000000" font-family="sans-serif" font-size="14" lengthAdjust="spacing" textLength="4" x="2194.5" y="776.9707">&#160;</text><text fill="#000000" font-family="sans-serif" font-size="14" lengthAdjust="spacing" textLength="59" x="2228.5" y="776.9707">CarePlan</text><rect fill="#9999FF" height="17.6094" style="stroke:none;stroke-width:1.0;" width="34" x="2194.5" y="780.0469"/><text fill="#000000" font-family="sans-serif" font-size="14" lengthAdjust="spacing" textLength="4" x="2194.5" y="794.5801">&#160;</text><text fill="#000000" font-family="sans-serif" font-size="14" lengthAdjust="spacing" textLength="66" x="2228.5" y="794.5801">Procedure</text><rect fill="#DDFFDD" height="17.6094" style="stroke:none;stroke-width:1.0;" width="34" x="2194.5" y="797.6563"/><text fill="#000000" font-family="sans-serif" font-size="14" lengthAdjust="spacing" textLength="4" x="2194.5" y="812.1895">&#160;</text><text fill="#000000" font-family="sans-serif" font-size="14" lengthAdjust="spacing" textLength="100" x="2228.5" y="812.1895">ServiceRequest</text><rect fill="#88FF88" height="17.6094" style="stroke:none;stroke-width:1.0;" width="34" x="2194.5" y="815.2656"/><text fill="#000000" font-family="sans-serif" font-size="14" lengthAdjust="spacing" textLength="4" x="2194.5" y="829.7988">&#160;</text><text fill="#000000" font-family="sans-serif" font-size="14" lengthAdjust="spacing" textLength="109" x="2228.5" y="829.7988">DiagnosticReport</text><rect fill="#22FF22" height="17.6094" style="stroke:none;stroke-width:1.0;" width="34" x="2194.5" y="832.875"/><text fill="#000000" font-family="sans-serif" font-size="14" lengthAdjust="spacing" textLength="4" x="2194.5" y="847.4082">&#160;</text><text fill="#000000" font-family="sans-serif" font-size="14" lengthAdjust="spacing" textLength="77" x="2228.5" y="847.4082">Observation</text><rect fill="#FFCCFF" height="17.6094" style="stroke:none;stroke-width:1.0;" width="34" x="2194.5" y="850.4844"/><text fill="#000000" font-family="sans-serif" font-size="14" lengthAdjust="spacing" textLength="4" x="2194.5" y="865.0176">&#160;</text><text fill="#000000" font-family="sans-serif" font-size="14" lengthAdjust="spacing" textLength="68" x="2228.5" y="865.0176">Medication</text><rect fill="#FF9999" height="17.6094" style="stroke:none;stroke-width:1.0;" width="34" x="2194.5" y="868.0938"/><text fill="#000000" font-family="sans-serif" font-size="14" lengthAdjust="spacing" textLength="4" x="2194.5" y="882.627">&#160;</text><text fill="#000000" font-family="sans-serif" font-size="14" lengthAdjust="spacing" textLength="88" x="2228.5" y="882.627">AdverseEvent</text><rect fill="#44FFFF" height="17.6094" style="stroke:none;stroke-width:1.0;" width="34" x="2194.5" y="885.7031"/><text fill="#000000" font-family="sans-serif" font-size="14" lengthAdjust="spacing" textLength="4" x="2194.5" y="900.2363">&#160;</text><text fill="#000000" font-family="sans-serif" font-size="14" lengthAdjust="spacing" textLength="62" x="2228.5" y="900.2363">Specimen</text><line style="stroke:#000000;stroke-width:1.0;" x1="2194.5" x2="2337.5" y1="727.2188" y2="727.2188"/><line style="stroke:#000000;stroke-width:1.0;" x1="2194.5" x2="2337.5" y1="744.8281" y2="744.8281"/><line style="stroke:#000000;stroke-width:1.0;" x1="2194.5" x2="2337.5" y1="762.4375" y2="762.4375"/><line style="stroke:#000000;stroke-width:1.0;" x1="2194.5" x2="2337.5" y1="780.0469" y2="780.0469"/><line style="stroke:#000000;stroke-width:1.0;" x1="2194.5" x2="2337.5" y1="797.6563" y2="797.6563"/><line style="stroke:#000000;stroke-width:1.0;" x1="2194.5" x2="2337.5" y1="815.2656" y2="815.2656"/><line style="stroke:#000000;stroke-width:1.0;" x1="2194.5" x2="2337.5" y1="832.875" y2="832.875"/><line style="stroke:#000000;stroke-width:1.0;" x1="2194.5" x2="2337.5" y1="850.4844" y2="850.4844"/><line style="stroke:#000000;stroke-width:1.0;" x1="2194.5" x2="2337.5" y1="868.0938" y2="868.0938"/><line style="stroke:#000000;stroke-width:1.0;" x1="2194.5" x2="2337.5" y1="885.7031" y2="885.7031"/><line style="stroke:#000000;stroke-width:1.0;" x1="2194.5" x2="2337.5" y1="903.3125" y2="903.3125"/><line style="stroke:#000000;stroke-width:1.0;" x1="2194.5" x2="2194.5" y1="727.2188" y2="903.3125"/><line style="stroke:#000000;stroke-width:1.0;" x1="2228.5" x2="2228.5" y1="727.2188" y2="903.3125"/><line style="stroke:#000000;stroke-width:1.0;" x1="2337.5" x2="2337.5" y1="727.2188" y2="903.3125"/><!--SRC=[jPNXRfim483_-oaizJVPacKfbLgaAHGfQaXHe56bQK8EN5AlO3D3igBHjzcRxCLcuunr4AtTHFq7wNpSTz_5n7pz6Q82ByVXzJe7iIS5vGoVZ4QECneXv98C1mitl4f8djCDlVzZ7tz369k3eKh1DYbsASON5eRDHjQaUv0X26WAk4uRrMah4BagSM6bKDpnMEyDJ_7DR3h5Va5YAil8AdkIx63AOo3hH3vP15anY7XCsLOz03sYLjVdbH7phymuql5la-1NywftXPxKRKLlCiCJFxvlw0CE55uX1l1G05FjVdHdi_3oDhnczpnKPQ8iz0G1cVvfy6od6dHMWmBZIavbomM55rdALnyHEl8RS4EB1etQegrssb5Rl8xQK1-1nV-u7LVJRel6pMsxcHqtzvNSzBbrUtJJScuZbxRbXczhPchuPRhcoGi_XxySahHXaJRhVOqYVQ0qYpIiUSVhNGsR_-Cidndal05wh4FKUXxh3MaSI0rKj9dZ6YbwcUW19ngQtp7KVs1-lpFr6-2g0zH-gxw0cjBmoZPFdvcojs-XH2Y1BR0O2xgzAp2gfZpXeWhA32fKdPyuSaqcbWopcAfNw-XKBiUHKIB0IuWEdicbWfxW4SGxeGlOjkFOjbNvycgY4IpXomxoejuoJSSnJQkoATaodXSqMaB6XTxKtbRrv58xDAJHBiGqUXfMUAlw4E_bfGgNUs2wpdYi52G_WqXUlp9RscfdX7u2]--></g></svg>