<?xml version="1.0" encoding="us-ascii" standalone="no"?><svg xmlns="http://www.w3.org/2000/svg" xmlns:xlink="http://www.w3.org/1999/xlink" contentStyleType="text/css" height="910px" preserveAspectRatio="none" style="width:2336px;height:910px;background:#FFFFFF;" version="1.1" viewBox="0 0 2336 910" width="2336px" zoomAndPan="magnify"><defs/><g><!--cluster Medikation--><g id="cluster_Medikation"><rect fill="none" height="106" rx="2.5" ry="2.5" style="stroke:#181818;stroke-width:1.0;" width="149" x="2181" y="330.3564"/><text fill="#000000" font-family="sans-serif" font-size="14" font-weight="bold" lengthAdjust="spacing" textLength="78" x="2216.5" y="346.8896">Medikation</text></g><!--cluster Onkologie Observations--><g id="cluster_Onkologie Observations"><rect fill="none" height="90" rx="2.5" ry="2.5" style="stroke:#181818;stroke-width:1.0;" width="1468" x="7" y="593.3564"/><text fill="#000000" font-family="sans-serif" font-size="14" font-weight="bold" lengthAdjust="spacing" textLength="171" x="655.5" y="609.8896">Onkologie Observations</text></g><g id="elem_Medikation"><rect fill="#FFCCFF" height="37.6094" style="stroke:#181818;stroke-width:0.5;" width="82" x="2224" y="374.3564"/><text fill="#000000" font-family="sans-serif" font-size="14" lengthAdjust="spacing" textLength="68" x="2231" y="390.8896">Medikation</text><line style="stroke:#181818;stroke-width:0.5;" x1="2225" x2="2305" y1="395.9658" y2="395.9658"/></g><g id="elem_Onko_Variante"><rect fill="#22FF22" height="37.6094" style="stroke:#181818;stroke-width:0.5;" width="109" x="623.5" y="629.3564"/><text fill="#000000" font-family="sans-serif" font-size="14" lengthAdjust="spacing" textLength="95" x="630.5" y="645.8896">Onko_Variante</text><line style="stroke:#181818;stroke-width:0.5;" x1="624.5" x2="731.5" y1="650.9658" y2="650.9658"/></g><g id="elem_Fernmetastasen"><rect fill="#22FF22" height="37.6094" style="stroke:#181818;stroke-width:0.5;" width="117" x="1205.5" y="629.3564"/><text fill="#000000" font-family="sans-serif" font-size="14" lengthAdjust="spacing" textLength="103" x="1212.5" y="645.8896">Fernmetastasen</text><line style="stroke:#181818;stroke-width:0.5;" x1="1206.5" x2="1321.5" y1="650.9658" y2="650.9658"/></g><g id="elem_TNM_Klassifikation"><rect fill="#22FF22" height="37.6094" style="stroke:#181818;stroke-width:0.5;" width="133" x="293.5" y="629.3564"/><text fill="#000000" font-family="sans-serif" font-size="14" lengthAdjust="spacing" textLength="119" x="300.5" y="645.8896">TNM_Klassifikation</text><line style="stroke:#181818;stroke-width:0.5;" x1="294.5" x2="425.5" y1="650.9658" y2="650.9658"/></g><g id="elem_WeitereKlassifikation"><rect fill="#22FF22" height="37.6094" style="stroke:#181818;stroke-width:0.5;" width="145" x="23.5" y="629.3564"/><text fill="#000000" font-family="sans-serif" font-size="14" lengthAdjust="spacing" textLength="131" x="30.5" y="645.8896">WeitereKlassifikation</text><line style="stroke:#181818;stroke-width:0.5;" x1="24.5" x2="167.5" y1="650.9658" y2="650.9658"/></g><g id="elem_Lymphknotenuntersuchung"><rect fill="#22FF22" height="37.6094" style="stroke:#181818;stroke-width:0.5;" width="186" x="984" y="629.3564"/><text fill="#000000" font-family="sans-serif" font-size="14" lengthAdjust="spacing" textLength="172" x="991" y="645.8896">Lymphknotenuntersuchung</text><line style="stroke:#181818;stroke-width:0.5;" x1="985" x2="1169" y1="650.9658" y2="650.9658"/></g><g id="elem_HistologieGrading"><rect fill="#22FF22" height="37.6094" style="stroke:#181818;stroke-width:0.5;" width="126" x="462" y="629.3564"/><text fill="#000000" font-family="sans-serif" font-size="14" lengthAdjust="spacing" textLength="112" x="469" y="645.8896">HistologieGrading</text><line style="stroke:#181818;stroke-width:0.5;" x1="463" x2="587" y1="650.9658" y2="650.9658"/></g><g id="elem_Residualstatus"><rect fill="#22FF22" height="37.6094" style="stroke:#181818;stroke-width:0.5;" width="107" x="767.5" y="629.3564"/><text fill="#000000" font-family="sans-serif" font-size="14" lengthAdjust="spacing" textLength="93" x="774.5" y="645.8896">Residualstatus</text><line style="stroke:#181818;stroke-width:0.5;" x1="768.5" x2="873.5" y1="650.9658" y2="650.9658"/></g><g id="elem_ECOG"><rect fill="#22FF22" height="37.6094" style="stroke:#181818;stroke-width:0.5;" width="55" x="203.5" y="629.3564"/><text fill="#000000" font-family="sans-serif" font-size="14" lengthAdjust="spacing" textLength="41" x="210.5" y="645.8896">ECOG</text><line style="stroke:#181818;stroke-width:0.5;" x1="204.5" x2="257.5" y1="650.9658" y2="650.9658"/></g><g id="elem_Tod"><rect fill="#22FF22" height="37.6094" style="stroke:#181818;stroke-width:0.5;" width="39" x="909.5" y="629.3564"/><text fill="#000000" font-family="sans-serif" font-size="14" lengthAdjust="spacing" textLength="25" x="916.5" y="645.8896">Tod</text><line style="stroke:#181818;stroke-width:0.5;" x1="910.5" x2="947.5" y1="650.9658" y2="650.9658"/></g><g id="elem_Onko_Befund"><rect fill="#88FF88" height="37.6094" style="stroke:#181818;stroke-width:0.5;" width="101" x="1357.5" y="629.3564"/><text fill="#000000" font-family="sans-serif" font-size="14" lengthAdjust="spacing" textLength="87" x="1364.5" y="645.8896">Onko_Befund</text><line style="stroke:#181818;stroke-width:0.5;" x1="1358.5" x2="1457.5" y1="650.9658" y2="650.9658"/></g><g id="elem_Onko_OP"><rect fill="#9999FF" height="37.6094" style="stroke:#181818;stroke-width:0.5;" width="76" x="1494" y="124.3564"/><text fill="#000000" font-family="sans-serif" font-size="14" lengthAdjust="spacing" textLength="62" x="1501" y="140.8896">Onko_OP</text><line style="stroke:#181818;stroke-width:0.5;" x1="1495" x2="1569" y1="145.9658" y2="145.9658"/></g><g id="elem_Onko_Strahlentherapie"><rect fill="#9999FF" height="37.6094" style="stroke:#181818;stroke-width:0.5;" width="161" x="1676.5" y="124.3564"/><text fill="#000000" font-family="sans-serif" font-size="14" lengthAdjust="spacing" textLength="147" x="1683.5" y="140.8896">Onko_Strahlentherapie</text><line style="stroke:#181818;stroke-width:0.5;" x1="1677.5" x2="1836.5" y1="145.9658" y2="145.9658"/></g><g id="elem_Onko_SystemischeTherapie"><rect fill="#9999FF" height="37.6094" style="stroke:#181818;stroke-width:0.5;" width="192" x="1873" y="124.3564"/><text fill="#000000" font-family="sans-serif" font-size="14" lengthAdjust="spacing" textLength="178" x="1880" y="140.8896">Onko_SystemischeTherapie</text><line style="stroke:#181818;stroke-width:0.5;" x1="1874" x2="2064" y1="145.9658" y2="145.9658"/></g><g id="elem_Therapieplanung_Tumorkonferenz"><rect fill="#CCCCFF" height="37.6094" style="stroke:#181818;stroke-width:0.5;" width="233" x="1554.5" y="8.3564"/><text fill="#000000" font-family="sans-serif" font-size="14" lengthAdjust="spacing" textLength="219" x="1561.5" y="24.8896">Therapieplanung_Tumorkonferenz</text><line style="stroke:#181818;stroke-width:0.5;" x1="1555.5" x2="1786.5" y1="29.9658" y2="29.9658"/></g><g id="elem_PrimaerDiagnose"><rect fill="#FFFF66" height="37.6094" style="stroke:#181818;stroke-width:0.5;" width="123" x="386.5" y="8.3564"/><text fill="#000000" font-family="sans-serif" font-size="14" lengthAdjust="spacing" textLength="109" x="393.5" y="24.8896">PrimaerDiagnose</text><line style="stroke:#181818;stroke-width:0.5;" x1="387.5" x2="508.5" y1="29.9658" y2="29.9658"/></g><g id="elem_Verlauf"><rect fill="#22FF22" height="37.6094" style="stroke:#181818;stroke-width:0.5;" width="59" x="719.5" y="374.3564"/><text fill="#000000" font-family="sans-serif" font-size="14" lengthAdjust="spacing" textLength="45" x="726.5" y="390.8896">Verlauf</text><line style="stroke:#181818;stroke-width:0.5;" x1="720.5" x2="777.5" y1="395.9658" y2="395.9658"/></g><g id="elem_Onko_Bioprobe"><rect fill="#44FFFF" height="37.6094" style="stroke:#181818;stroke-width:0.5;" width="113" x="1676.5" y="491.3564"/><text fill="#000000" font-family="sans-serif" font-size="14" lengthAdjust="spacing" textLength="99" x="1683.5" y="507.8896">Onko_Bioprobe</text><line style="stroke:#181818;stroke-width:0.5;" x1="1677.5" x2="1788.5" y1="512.9658" y2="512.9658"/></g><g id="elem_AdverseEvent"><rect fill="#FF9999" height="37.6094" style="stroke:#181818;stroke-width:0.5;" width="102" x="1770" y="374.3564"/><text fill="#000000" font-family="sans-serif" font-size="14" lengthAdjust="spacing" textLength="88" x="1777" y="390.8896">AdverseEvent</text><line style="stroke:#181818;stroke-width:0.5;" x1="1771" x2="1871" y1="395.9658" y2="395.9658"/></g><!--reverse link Therapieplanung_Tumorkonferenz to Onko_OP--><g id="link_Therapieplanung_Tumorkonferenz_Onko_OP"><path codeLine="7" d="M1617.352,48.4732 C1581.032,62.0932 1543,76.3564 1543,76.3564 C1543,76.3564 1538.26,104.7764 1535.01,124.3264 " fill="none" id="Therapieplanung_Tumorkonferenz-backto-Onko_OP" style="stroke:#181818;stroke-width:1.0;"/><polygon fill="#181818" points="1622.97,46.3664,1613.1385,45.7812,1618.2884,48.1221,1615.9475,53.2719,1622.97,46.3664" style="stroke:#181818;stroke-width:1.0;"/><text fill="#000000" font-family="sans-serif" font-size="13" lengthAdjust="spacing" textLength="52" x="1544" y="90.8516">basedOn</text></g><!--reverse link Therapieplanung_Tumorkonferenz to Onko_Strahlentherapie--><g id="link_Therapieplanung_Tumorkonferenz_Onko_Strahlentherapie"><path codeLine="8" d="M1688.2437,51.2061 C1704.2537,72.4261 1727.05,102.6564 1743.15,123.9964 " fill="none" id="Therapieplanung_Tumorkonferenz-backto-Onko_Strahlentherapie" style="stroke:#181818;stroke-width:1.0;"/><polygon fill="#181818" points="1684.63,46.4164,1686.8574,56.0101,1687.6414,50.4079,1693.2437,51.1918,1684.63,46.4164" style="stroke:#181818;stroke-width:1.0;"/><text fill="#000000" font-family="sans-serif" font-size="13" lengthAdjust="spacing" textLength="52" x="1720" y="90.8516">basedOn</text></g><!--reverse link Therapieplanung_Tumorkonferenz to Onko_SystemischeTherapie--><g id="link_Therapieplanung_Tumorkonferenz_Onko_SystemischeTherapie"><path codeLine="9" d="M1723.8236,48.561 C1779.4536,69.851 1865.76,102.8564 1921.51,124.1864 " fill="none" id="Therapieplanung_Tumorkonferenz-backto-Onko_SystemischeTherapie" style="stroke:#181818;stroke-width:1.0;"/><polygon fill="#181818" points="1718.22,46.4164,1725.1958,53.369,1722.8897,48.2036,1728.0552,45.8975,1718.22,46.4164" style="stroke:#181818;stroke-width:1.0;"/><text fill="#000000" font-family="sans-serif" font-size="13" lengthAdjust="spacing" textLength="52" x="1838" y="90.8516">basedOn</text></g><!--reverse link Onko_SystemischeTherapie to Medikation--><g id="link_Onko_SystemischeTherapie_Medikation"><path codeLine="13" d="M1989.1619,167.0847 C2014.1669,195.2697 2059.95,246.8814 2104.045,296.5889 C2126.0925,321.4427 2146.7225,344.6983 2162.1313,362.0674 C2169.8356,370.7519 2176.2347,377.9648 2180.853,383.17 " fill="none" id="Onko_SystemischeTherapie-backto-Medikation" style="stroke:#181818;stroke-width:1.0;"/><polygon fill="#181818" points="1985.18,162.5964,1988.1606,171.9834,1988.4982,166.3367,1994.145,166.6743,1985.18,162.5964" style="stroke:#181818;stroke-width:1.0;"/><text fill="#000000" font-family="sans-serif" font-size="13" lengthAdjust="spacing" textLength="35" x="2069" y="254.8516">partOf</text></g><!--reverse link Therapieplanung_Tumorkonferenz to Medikation--><g id="link_Therapieplanung_Tumorkonferenz_Medikation"><path codeLine="14" d="M1762.4213,47.6026 C1827.1113,61.2226 1899,76.3564 1899,76.3564 C1899,76.3564 2083,124.3564 2083,124.3564 C2083,124.3564 2109.0875,190.3139 2135.3788,256.7864 C2148.5244,290.0227 2161.7209,323.3877 2171.733,348.7011 C2174.236,355.0295 2176.54,360.8546 2178.5943,366.0487 C2179.1079,367.3472 2179.6059,368.6063 2180.0875,369.824 C2180.3283,370.4328 2180.5651,371.0313 2180.7976,371.6191 " fill="none" id="Therapieplanung_Tumorkonferenz-backto-Medikation" style="stroke:#181818;stroke-width:1.0;"/><polygon fill="#181818" points="1756.55,46.3664,1764.5328,52.1349,1761.4427,47.3966,1766.181,44.3065,1756.55,46.3664" style="stroke:#181818;stroke-width:1.0;"/><text fill="#000000" font-family="sans-serif" font-size="13" lengthAdjust="spacing" textLength="52" x="2117" y="206.8516">basedOn</text></g><!--reverse link PrimaerDiagnose to TNM_Klassifikation--><g id="link_PrimaerDiagnose_TNM_Klassifikation"><path codeLine="31" d="M397.432,48.6519 C317.352,80.8019 164,142.3564 164,142.3564 C164,142.3564 164,142.3564 164,511.3564 C164,511.3564 276,585.3564 276,585.3564 C276,585.3564 310.47,610.7964 335.25,629.0864 " fill="none" id="PrimaerDiagnose-backto-TNM_Klassifikation" style="stroke:#181818;stroke-width:1.0;"/><polygon fill="#181818" points="403,46.4164,393.1577,46.0576,398.36,48.2793,396.1382,53.4816,403,46.4164" style="stroke:#181818;stroke-width:1.0;"/><text fill="#000000" font-family="sans-serif" font-size="13" lengthAdjust="spacing" textLength="31" x="165" y="302.8516">focus</text></g><!--reverse link PrimaerDiagnose to Therapieplanung_Tumorkonferenz--><g id="link_PrimaerDiagnose_Therapieplanung_Tumorkonferenz"><path codeLine="32" d="M515.91,27.3564 C709.53,27.3564 1299.82,27.3564 1554.13,27.3564 " fill="none" id="PrimaerDiagnose-backto-Therapieplanung_Tumorkonferenz" style="stroke:#181818;stroke-width:1.0;"/><polygon fill="#181818" points="509.91,27.3564,518.91,31.3564,514.91,27.3564,518.91,23.3564,509.91,27.3564" style="stroke:#181818;stroke-width:1.0;"/><text fill="#000000" font-family="sans-serif" font-size="13" lengthAdjust="spacing" textLength="60" x="1002" y="20.8516">addresses</text></g><!--reverse link PrimaerDiagnose to Lymphknotenuntersuchung--><g id="link_PrimaerDiagnose_Lymphknotenuntersuchung"><path codeLine="33" d="M482.4637,49.6612 C620.9437,135.2612 1197,491.3564 1197,491.3564 C1197,491.3564 1197,529.3564 1197,529.3564 C1197,529.3564 1129.15,596.0764 1095.49,629.1764 " fill="none" id="PrimaerDiagnose-backto-Lymphknotenuntersuchung" style="stroke:#181818;stroke-width:1.0;"/><polygon fill="#181818" points="477.36,46.5064,482.9123,54.6411,481.6131,49.1354,487.1187,47.8362,477.36,46.5064" style="stroke:#181818;stroke-width:1.0;"/><text fill="#000000" font-family="sans-serif" font-size="13" lengthAdjust="spacing" textLength="31" x="898" y="302.8516">focus</text></g><!--reverse link PrimaerDiagnose to HistologieGrading--><g id="link_PrimaerDiagnose_HistologieGrading"><path codeLine="34" d="M435.3127,51.7824 C427.9527,65.3724 422,76.3564 422,76.3564 C422,76.3564 372,288.3564 372,288.3564 C372,288.3564 372,306.3564 372,306.3564 C372,306.3564 422,577.3564 422,577.3564 C422,577.3564 444,585.3564 444,585.3564 C444,585.3564 477.24,610.7964 501.14,629.0864 " fill="none" id="PrimaerDiagnose-backto-HistologieGrading" style="stroke:#181818;stroke-width:1.0;"/><polygon fill="#181818" points="438.17,46.5064,430.3667,52.5155,435.7889,50.9031,437.4013,56.3253,438.17,46.5064" style="stroke:#181818;stroke-width:1.0;"/><text fill="#000000" font-family="sans-serif" font-size="13" lengthAdjust="spacing" textLength="31" x="373" y="302.8516">focus</text></g><!--reverse link PrimaerDiagnose to Onko_Variante--><g id="link_PrimaerDiagnose_Onko_Variante"><path codeLine="35" d="M448,52.4164 C448,84.5664 448,142.3564 448,142.3564 C448,142.3564 448,142.3564 448,511.3564 C448,511.3564 605,585.3564 605,585.3564 C605,585.3564 634.96,610.7964 656.49,629.0864 " fill="none" id="PrimaerDiagnose-backto-Onko_Variante" style="stroke:#181818;stroke-width:1.0;"/><polygon fill="#181818" points="448,46.4164,444,55.4164,448,51.4164,452,55.4164,448,46.4164" style="stroke:#181818;stroke-width:1.0;"/><text fill="#000000" font-family="sans-serif" font-size="13" lengthAdjust="spacing" textLength="31" x="449" y="302.8516">focus</text></g><!--reverse link PrimaerDiagnose to WeitereKlassifikation--><g id="link_PrimaerDiagnose_WeitereKlassifikation"><path codeLine="36" d="M380.352,42.7883 C313.742,56.9983 223,76.3564 223,76.3564 C223,76.3564 18,142.3564 18,142.3564 C18,142.3564 18,142.3564 18,511.3564 C18,511.3564 64.42,592.3064 85.64,629.2964 " fill="none" id="PrimaerDiagnose-backto-WeitereKlassifikation" style="stroke:#181818;stroke-width:1.0;"/><polygon fill="#181818" points="386.22,41.5364,376.5835,39.5022,381.33,42.5796,378.2526,47.3261,386.22,41.5364" style="stroke:#181818;stroke-width:1.0;"/><text fill="#000000" font-family="sans-serif" font-size="13" lengthAdjust="spacing" textLength="31" x="19" y="302.8516">focus</text></g><!--reverse link PrimaerDiagnose to ECOG--><g id="link_PrimaerDiagnose_ECOG"><path codeLine="37" d="M380.5234,47.7536 C332.9534,61.4236 281,76.3564 281,76.3564 C281,76.3564 91,142.3564 91,142.3564 C91,142.3564 91,142.3564 91,511.3564 C91,511.3564 186,585.3564 186,585.3564 C186,585.3564 204.47,610.7964 217.74,629.0864 " fill="none" id="PrimaerDiagnose-backto-ECOG" style="stroke:#181818;stroke-width:1.0;"/><polygon fill="#181818" points="386.29,46.0964,376.5353,44.7377,381.4845,47.4774,378.7448,52.4266,386.29,46.0964" style="stroke:#181818;stroke-width:1.0;"/><text fill="#000000" font-family="sans-serif" font-size="13" lengthAdjust="spacing" textLength="31" x="92" y="302.8516">focus</text></g><!--reverse link PrimaerDiagnose to Fernmetastasen--><g id="link_PrimaerDiagnose_Fernmetastasen"><path codeLine="38" d="M515.5932,46.5783 C732.7632,105.1283 1442,296.3564 1442,296.3564 C1442,296.3564 1442,296.3564 1442,511.3564 C1442,511.3564 1340,585.3564 1340,585.3564 C1340,585.3564 1308.81,610.7964 1286.39,629.0864 " fill="none" id="PrimaerDiagnose-backto-Fernmetastasen" style="stroke:#181818;stroke-width:1.0;"/><polygon fill="#181818" points="509.8,45.0164,517.4485,51.2213,514.6276,46.318,519.531,43.4971,509.8,45.0164" style="stroke:#181818;stroke-width:1.0;"/><text fill="#000000" font-family="sans-serif" font-size="13" lengthAdjust="spacing" textLength="31" x="1443" y="302.8516">focus</text></g><!--reverse link Therapieplanung_Tumorkonferenz to Onko_Befund--><g id="link_Therapieplanung_Tumorkonferenz_Onko_Befund"><path codeLine="40" d="M1661.0627,51.9467 C1647.5327,84.0967 1623,142.3564 1623,142.3564 C1623,142.3564 1623,142.3564 1623,511.3564 C1623,511.3564 1495.03,592.3064 1436.55,629.2964 " fill="none" id="Therapieplanung_Tumorkonferenz-backto-Onko_Befund" style="stroke:#181818;stroke-width:1.0;"/><polygon fill="#181818" points="1663.39,46.4164,1656.2122,53.1602,1661.4505,51.025,1663.5858,56.2634,1663.39,46.4164" style="stroke:#181818;stroke-width:1.0;"/><text fill="#000000" font-family="sans-serif" font-size="13" lengthAdjust="spacing" textLength="52" x="1624" y="302.8516">basedOn</text></g><!--reverse link PrimaerDiagnose to Verlauf--><g id="link_PrimaerDiagnose_Verlauf"><path codeLine="43" d="M466.7534,51.0305 C517.9934,113.0005 682.6,312.0564 733.98,374.1964 " fill="none" id="PrimaerDiagnose-backto-Verlauf" style="stroke:#181818;stroke-width:1.0;"/><polygon fill="#181818" points="462.93,46.4064,465.5824,55.8914,466.1162,50.2598,471.7478,50.7936,462.93,46.4064" style="stroke:#181818;stroke-width:1.0;"/><text fill="#000000" font-family="sans-serif" font-size="13" lengthAdjust="spacing" textLength="31" x="600" y="206.8516">focus</text></g><!--reverse link Verlauf to Tod--><g id="link_Verlauf_Tod"><path codeLine="44" d="M776.3565,416.1105 C811.6365,444.1605 871,491.3564 871,491.3564 C871,491.3564 906.93,588.0064 922.23,629.1564 " fill="none" id="Verlauf-backto-Tod" style="stroke:#181818;stroke-width:1.0;"/><polygon fill="#181818" points="771.66,412.3764,776.2154,421.1085,775.5737,415.4881,781.1941,414.8465,771.66,412.3764" style="stroke:#181818;stroke-width:1.0;"/><text fill="#000000" font-family="sans-serif" font-size="13" lengthAdjust="spacing" textLength="70" x="886" y="515.8516">derivedFrom</text></g><!--reverse link Verlauf to TNM_Klassifikation--><g id="link_Verlauf_TNM_Klassifikation"><path codeLine="45" d="M713.6144,409.151 C650.9544,435.351 517,491.3564 517,491.3564 C517,491.3564 422,559.3564 422,559.3564 C422,559.3564 391.01,603.3464 372.85,629.1264 " fill="none" id="Verlauf-backto-TNM_Klassifikation" style="stroke:#181818;stroke-width:1.0;"/><polygon fill="#181818" points="719.15,406.8364,709.3036,406.6179,714.537,408.7653,712.3897,413.9987,719.15,406.8364" style="stroke:#181818;stroke-width:1.0;"/><text fill="#000000" font-family="sans-serif" font-size="13" lengthAdjust="spacing" textLength="70" x="518" y="515.8516">derivedFrom</text></g><!--reverse link Verlauf to Lymphknotenuntersuchung--><g id="link_Verlauf_Lymphknotenuntersuchung"><path codeLine="46" d="M784.0533,410.0946 C843.2133,436.6646 965,491.3564 965,491.3564 C965,491.3564 1034.39,588.0064 1063.93,629.1564 " fill="none" id="Verlauf-backto-Lymphknotenuntersuchung" style="stroke:#181818;stroke-width:1.0;"/><polygon fill="#181818" points="778.58,407.6364,785.1512,414.9726,783.1411,409.6849,788.4288,407.6748,778.58,407.6364" style="stroke:#181818;stroke-width:1.0;"/><text fill="#000000" font-family="sans-serif" font-size="13" lengthAdjust="spacing" textLength="70" x="992" y="515.8516">derivedFrom</text></g><!--reverse link Verlauf to HistologieGrading--><g id="link_Verlauf_HistologieGrading"><path codeLine="47" d="M720.0413,415.9648 C682.4513,444.0148 619,491.3564 619,491.3564 C619,491.3564 560.76,588.0064 535.97,629.1564 " fill="none" id="Verlauf-backto-HistologieGrading" style="stroke:#181818;stroke-width:1.0;"/><polygon fill="#181818" points="724.85,412.3764,715.2447,414.5531,720.8427,415.3667,720.0291,420.9648,724.85,412.3764" style="stroke:#181818;stroke-width:1.0;"/><text fill="#000000" font-family="sans-serif" font-size="13" lengthAdjust="spacing" textLength="70" x="620" y="515.8516">derivedFrom</text></g><!--reverse link Verlauf to Fernmetastasen--><g id="link_Verlauf_Fernmetastasen"><path codeLine="48" d="M784.465,405.0369 C864.175,429.0469 1071,491.3564 1071,491.3564 C1071,491.3564 1188,585.3564 1188,585.3564 C1188,585.3564 1219.19,610.7964 1241.61,629.0864 " fill="none" id="Verlauf-backto-Fernmetastasen" style="stroke:#181818;stroke-width:1.0;"/><polygon fill="#181818" points="778.72,403.3064,786.1839,409.7322,783.5075,404.7485,788.4912,402.0722,778.72,403.3064" style="stroke:#181818;stroke-width:1.0;"/><text fill="#000000" font-family="sans-serif" font-size="13" lengthAdjust="spacing" textLength="70" x="1118" y="515.8516">derivedFrom</text></g><!--reverse link Verlauf to Residualstatus--><g id="link_Verlauf_Residualstatus"><path codeLine="49" d="M756.8997,418.2944 C766.1697,446.3944 781,491.3564 781,491.3564 C781,491.3564 805.78,588.0064 816.33,629.1564 " fill="none" id="Verlauf-backto-Residualstatus" style="stroke:#181818;stroke-width:1.0;"/><polygon fill="#181818" points="755.02,412.5964,754.0409,422.3965,756.5864,417.3447,761.6382,419.8902,755.02,412.5964" style="stroke:#181818;stroke-width:1.0;"/><text fill="#000000" font-family="sans-serif" font-size="13" lengthAdjust="spacing" textLength="70" x="792" y="515.8516">derivedFrom</text></g><!--reverse link Verlauf to Onko_Variante--><g id="link_Verlauf_Onko_Variante"><path codeLine="50" d="M738.2425,418.061 C725.5025,446.161 705,491.3564 705,491.3564 C705,491.3564 688.27,588.0064 681.15,629.1564 " fill="none" id="Verlauf-backto-Onko_Variante" style="stroke:#181818;stroke-width:1.0;"/><polygon fill="#181818" points="740.72,412.5964,733.3606,419.1416,738.6554,417.1503,740.6467,422.445,740.72,412.5964" style="stroke:#181818;stroke-width:1.0;"/><text fill="#000000" font-family="sans-serif" font-size="13" lengthAdjust="spacing" textLength="70" x="706" y="515.8516">derivedFrom</text></g><!--reverse link Onko_Bioprobe to Onko_Befund--><g id="link_Onko_Bioprobe_Onko_Befund"><path codeLine="56" d="M1705.3329,533.0945 C1680.4629,552.6445 1649,577.3564 1649,577.3564 C1649,577.3564 1529.19,612.1564 1458.52,632.6864 " fill="none" id="Onko_Bioprobe-backto-Onko_Befund" style="stroke:#181818;stroke-width:1.0;"/><polygon fill="#181818" points="1710.05,529.3864,1700.5024,531.8038,1706.1191,532.4765,1705.4464,538.0932,1710.05,529.3864" style="stroke:#181818;stroke-width:1.0;"/><text fill="#000000" font-family="sans-serif" font-size="13" lengthAdjust="spacing" textLength="56" x="1672" y="573.8516">specimen</text></g><!--reverse link Onko_SystemischeTherapie to AdverseEvent--><g id="link_Onko_SystemischeTherapie_AdverseEvent"><path codeLine="59" d="M1955.0451,167.7486 C1927.6751,213.6086 1859.29,328.2064 1831.9,374.0964 " fill="none" id="Onko_SystemischeTherapie-backto-AdverseEvent" style="stroke:#181818;stroke-width:1.0;"/><polygon fill="#181818" points="1958.12,162.5964,1950.0729,168.2748,1955.5576,166.8899,1956.9424,172.3747,1958.12,162.5964" style="stroke:#181818;stroke-width:1.0;"/><text fill="#000000" font-family="sans-serif" font-size="13" lengthAdjust="spacing" textLength="133" x="1910" y="254.8516">suspectEntity.instance</text></g><!--reverse link Onko_Strahlentherapie to AdverseEvent--><g id="link_Onko_Strahlentherapie_AdverseEvent"><path codeLine="60" d="M1757.8408,168.4127 C1758.9708,200.5627 1761,258.3564 1761,258.3564 C1761,258.3564 1796.53,337.7064 1812.91,374.2864 " fill="none" id="Onko_Strahlentherapie-backto-AdverseEvent" style="stroke:#181818;stroke-width:1.0;"/><polygon fill="#181818" points="1757.63,162.4164,1753.9486,171.5514,1757.8056,167.4134,1761.9437,171.2704,1757.63,162.4164" style="stroke:#181818;stroke-width:1.0;"/><text fill="#000000" font-family="sans-serif" font-size="13" lengthAdjust="spacing" textLength="133" x="1762" y="254.8516">suspectEntity.instance</text></g><rect fill="#DDDDDD" height="190.0938" id="_legend" rx="7.5" ry="7.5" style="stroke:#000000;stroke-width:1.0;" width="153" x="2157" y="700.3564"/><text fill="#000000" font-family="sans-serif" font-size="14" lengthAdjust="spacing" textLength="34" x="2162" y="721.8896">Color</text><text fill="#000000" font-family="sans-serif" font-size="14" lengthAdjust="spacing" textLength="32" x="2196" y="721.8896">Type</text><rect fill="#FFFF66" height="17.6094" style="stroke:none;stroke-width:1.0;" width="34" x="2162" y="724.9658"/><text fill="#000000" font-family="sans-serif" font-size="14" lengthAdjust="spacing" textLength="4" x="2162" y="739.499">&#160;</text><text fill="#000000" font-family="sans-serif" font-size="14" lengthAdjust="spacing" textLength="60" x="2196" y="739.499">Condition</text><rect fill="#CCCCFF" height="17.6094" style="stroke:none;stroke-width:1.0;" width="34" x="2162" y="742.5752"/><text fill="#000000" font-family="sans-serif" font-size="14" lengthAdjust="spacing" textLength="4" x="2162" y="757.1084">&#160;</text><text fill="#000000" font-family="sans-serif" font-size="14" lengthAdjust="spacing" textLength="59" x="2196" y="757.1084">CarePlan</text><rect fill="#9999FF" height="17.6094" style="stroke:none;stroke-width:1.0;" width="34" x="2162" y="760.1846"/><text fill="#000000" font-family="sans-serif" font-size="14" lengthAdjust="spacing" textLength="4" x="2162" y="774.7178">&#160;</text><text fill="#000000" font-family="sans-serif" font-size="14" lengthAdjust="spacing" textLength="66" x="2196" y="774.7178">Procedure</text><rect fill="#DDFFDD" height="17.6094" style="stroke:none;stroke-width:1.0;" width="34" x="2162" y="777.7939"/><text fill="#000000" font-family="sans-serif" font-size="14" lengthAdjust="spacing" textLength="4" x="2162" y="792.3271">&#160;</text><text fill="#000000" font-family="sans-serif" font-size="14" lengthAdjust="spacing" textLength="100" x="2196" y="792.3271">ServiceRequest</text><rect fill="#88FF88" height="17.6094" style="stroke:none;stroke-width:1.0;" width="34" x="2162" y="795.4033"/><text fill="#000000" font-family="sans-serif" font-size="14" lengthAdjust="spacing" textLength="4" x="2162" y="809.9365">&#160;</text><text fill="#000000" font-family="sans-serif" font-size="14" lengthAdjust="spacing" textLength="109" x="2196" y="809.9365">DiagnosticReport</text><rect fill="#22FF22" height="17.6094" style="stroke:none;stroke-width:1.0;" width="34" x="2162" y="813.0127"/><text fill="#000000" font-family="sans-serif" font-size="14" lengthAdjust="spacing" textLength="4" x="2162" y="827.5459">&#160;</text><text fill="#000000" font-family="sans-serif" font-size="14" lengthAdjust="spacing" textLength="77" x="2196" y="827.5459">Observation</text><rect fill="#FFCCFF" height="17.6094" style="stroke:none;stroke-width:1.0;" width="34" x="2162" y="830.6221"/><text fill="#000000" font-family="sans-serif" font-size="14" lengthAdjust="spacing" textLength="4" x="2162" y="845.1553">&#160;</text><text fill="#000000" font-family="sans-serif" font-size="14" lengthAdjust="spacing" textLength="68" x="2196" y="845.1553">Medication</text><rect fill="#FF9999" height="17.6094" style="stroke:none;stroke-width:1.0;" width="34" x="2162" y="848.2314"/><text fill="#000000" font-family="sans-serif" font-size="14" lengthAdjust="spacing" textLength="4" x="2162" y="862.7646">&#160;</text><text fill="#000000" font-family="sans-serif" font-size="14" lengthAdjust="spacing" textLength="88" x="2196" y="862.7646">AdverseEvent</text><rect fill="#44FFFF" height="17.6094" style="stroke:none;stroke-width:1.0;" width="34" x="2162" y="865.8408"/><text fill="#000000" font-family="sans-serif" font-size="14" lengthAdjust="spacing" textLength="4" x="2162" y="880.374">&#160;</text><text fill="#000000" font-family="sans-serif" font-size="14" lengthAdjust="spacing" textLength="62" x="2196" y="880.374">Specimen</text><line style="stroke:#000000;stroke-width:1.0;" x1="2162" x2="2305" y1="707.3564" y2="707.3564"/><line style="stroke:#000000;stroke-width:1.0;" x1="2162" x2="2305" y1="724.9658" y2="724.9658"/><line style="stroke:#000000;stroke-width:1.0;" x1="2162" x2="2305" y1="742.5752" y2="742.5752"/><line style="stroke:#000000;stroke-width:1.0;" x1="2162" x2="2305" y1="760.1846" y2="760.1846"/><line style="stroke:#000000;stroke-width:1.0;" x1="2162" x2="2305" y1="777.7939" y2="777.7939"/><line style="stroke:#000000;stroke-width:1.0;" x1="2162" x2="2305" y1="795.4033" y2="795.4033"/><line style="stroke:#000000;stroke-width:1.0;" x1="2162" x2="2305" y1="813.0127" y2="813.0127"/><line style="stroke:#000000;stroke-width:1.0;" x1="2162" x2="2305" y1="830.6221" y2="830.6221"/><line style="stroke:#000000;stroke-width:1.0;" x1="2162" x2="2305" y1="848.2314" y2="848.2314"/><line style="stroke:#000000;stroke-width:1.0;" x1="2162" x2="2305" y1="865.8408" y2="865.8408"/><line style="stroke:#000000;stroke-width:1.0;" x1="2162" x2="2305" y1="883.4502" y2="883.4502"/><line style="stroke:#000000;stroke-width:1.0;" x1="2162" x2="2162" y1="707.3564" y2="883.4502"/><line style="stroke:#000000;stroke-width:1.0;" x1="2196" x2="2196" y1="707.3564" y2="883.4502"/><line style="stroke:#000000;stroke-width:1.0;" x1="2305" x2="2305" y1="707.3564" y2="883.4502"/><!--SRC=[ZLNVRzem47xtNs6Lv-u1LHMBAgGDS2Tj7QX5xMDbuWCy4Zkp7IIsx7_VvLT9m0bOUSdvk_DzzvrzTYTLmWsFQIGLk4C2DD7H8VyXUlKBGaVdQgVVvmiw-8oBiPRvnHc-ZK2vBHYUIF233jP1B6suXMK7hhOd4LUfshmlqrYRdLPhCA3-qC445wB91Tp3xMsTRa1Nt8AOAtgrqocPZn3NHpXdUWnYa2XNcmZepHC8kUDEQdL3_nAAgwh3SOCE62iu_oETHSHpRvik0KKftNnz3UMcup77Aes5aJ47CvLyexI5F1V6xkz9aqEULQGtcCPyPS7iYqZsfaMdoFoL6ycLmoZ38MF3OHF0mAWO7BVuWV8XbZ-Vthz7t5gv_gZCEUeDf4DgVY1j8dySucIxKze15WPzR1fkiKA-eD-aTIN5HyE5z8EUmKgHyWWPkDJw4BF9_D7BJ0kVkQZPLrYd2hT78yP68u9DG4urAJGyhqv0rpfChGTkv6RhqEVIPGie5yA0jM3zXtQKiFjaz3clPT23RlTD7z8hV6ycXHnz8Kzwie9Ulb9rVPi2qkFLgk_MAvY8f-iFwNqve4WrhEPI_vUoQn5G0KRkGJ2ZuvDTJrDqepjlHCy9FZcxqUs2zW3RTwalwLQ3j2FcgtMLf4wCNk7pStUNFsEKjCqF9v85r2OGoXYEadqHUomBpFOu6_AtC9zT5rxbfWj6JFEORgQST8TFKY515GBnZz3h_Ka46y2KYywZ99kW92PRuX3FIFPGFTfZD2iXypOehEKeHIitiC1UBepbD1vd2wD34Aaf0qodZ4sdu-m5dtSPmZFyJi6wOgjycCPPrRPEXi-GQ5DkbfqzpXg3eKgeF3gVF67Jd1y_pfgSYurIC3o_4YGZoBRaJCX_]--></g></svg>