<?xml version="1.0" encoding="us-ascii" standalone="no"?><svg xmlns="http://www.w3.org/2000/svg" xmlns:xlink="http://www.w3.org/1999/xlink" contentStyleType="text/css" height="1335px" preserveAspectRatio="none" style="width:2313px;height:1335px;background:#FFFFFF;" version="1.1" viewBox="0 0 2313 1335" width="2313px" zoomAndPan="magnify"><defs/><g><!--cluster Modul Medikation--><g id="cluster_Modul Medikation"><rect fill="none" height="90" rx="2.5" ry="2.5" style="stroke:#181818;stroke-width:1.0;" width="142" x="1858" y="1018"/><text fill="#000000" font-family="sans-serif" font-size="14" font-weight="bold" lengthAdjust="spacing" textLength="126" x="1866" y="1034.5332">Modul Medikation</text></g><!--cluster Onkologie Observations--><g id="cluster_Onkologie Observations"><rect fill="none" height="90" rx="2.5" ry="2.5" style="stroke:#181818;stroke-width:1.0;" width="1332" x="241" y="1018"/><text fill="#000000" font-family="sans-serif" font-size="14" font-weight="bold" lengthAdjust="spacing" textLength="171" x="821.5" y="1034.5332">Onkologie Observations</text></g><!--cluster Modul Pathologiebefund--><g id="cluster_Modul Pathologiebefund"><rect fill="none" height="206" rx="2.5" ry="2.5" style="stroke:#181818;stroke-width:1.0;" width="189" x="667" y="7"/><text fill="#000000" font-family="sans-serif" font-size="14" font-weight="bold" lengthAdjust="spacing" textLength="173" x="675" y="23.5332">Modul Pathologiebefund</text></g><!--cluster Modul MolGen-Befundbericht--><g id="cluster_Modul MolGen-Befundbericht"><rect fill="none" height="206" rx="2.5" ry="2.5" style="stroke:#181818;stroke-width:1.0;" width="225" x="217" y="7"/><text fill="#000000" font-family="sans-serif" font-size="14" font-weight="bold" lengthAdjust="spacing" textLength="209" x="225" y="23.5332">Modul MolGen-Befundbericht</text></g><!--cluster Modul Biobank--><g id="cluster_Modul Biobank"><rect fill="none" height="90" rx="2.5" ry="2.5" style="stroke:#181818;stroke-width:1.0;" width="128" x="505" y="342"/><text fill="#000000" font-family="sans-serif" font-size="14" font-weight="bold" lengthAdjust="spacing" textLength="105" x="516.5" y="358.5332">Modul Biobank</text></g><g id="elem_Medikation"><rect fill="#FFCCFF" height="37.6094" style="stroke:#181818;stroke-width:0.5;" width="82" x="1888" y="1054"/><text fill="#000000" font-family="sans-serif" font-size="14" lengthAdjust="spacing" textLength="68" x="1895" y="1070.5332">Medikation</text><line style="stroke:#181818;stroke-width:0.5;" x1="1889" x2="1969" y1="1075.6094" y2="1075.6094"/></g><g id="elem_Onko_Variante"><rect fill="#22FF22" height="37.6094" style="stroke:#181818;stroke-width:0.5;" width="109" x="257.5" y="1054"/><text fill="#000000" font-family="sans-serif" font-size="14" lengthAdjust="spacing" textLength="95" x="264.5" y="1070.5332">Onko_Variante</text><line style="stroke:#181818;stroke-width:0.5;" x1="258.5" x2="365.5" y1="1075.6094" y2="1075.6094"/></g><g id="elem_Fernmetastasen"><rect fill="#22FF22" height="37.6094" style="stroke:#181818;stroke-width:0.5;" width="117" x="563.5" y="1054"/><text fill="#000000" font-family="sans-serif" font-size="14" lengthAdjust="spacing" textLength="103" x="570.5" y="1070.5332">Fernmetastasen</text><line style="stroke:#181818;stroke-width:0.5;" x1="564.5" x2="679.5" y1="1075.6094" y2="1075.6094"/></g><g id="elem_TNM_Klassifikation"><rect fill="#22FF22" height="37.6094" style="stroke:#181818;stroke-width:0.5;" width="133" x="931.5" y="1054"/><text fill="#000000" font-family="sans-serif" font-size="14" lengthAdjust="spacing" textLength="119" x="938.5" y="1070.5332">TNM_Klassifikation</text><line style="stroke:#181818;stroke-width:0.5;" x1="932.5" x2="1063.5" y1="1075.6094" y2="1075.6094"/></g><g id="elem_WeitereKlassifikation"><rect fill="#22FF22" height="37.6094" style="stroke:#181818;stroke-width:0.5;" width="145" x="1321.5" y="1054"/><text fill="#000000" font-family="sans-serif" font-size="14" lengthAdjust="spacing" textLength="131" x="1328.5" y="1070.5332">WeitereKlassifikation</text><line style="stroke:#181818;stroke-width:0.5;" x1="1322.5" x2="1465.5" y1="1075.6094" y2="1075.6094"/></g><g id="elem_Lymphknotenuntersuchung"><rect fill="#22FF22" height="37.6094" style="stroke:#181818;stroke-width:0.5;" width="186" x="1100" y="1054"/><text fill="#000000" font-family="sans-serif" font-size="14" lengthAdjust="spacing" textLength="172" x="1107" y="1070.5332">Lymphknotenuntersuchung</text><line style="stroke:#181818;stroke-width:0.5;" x1="1101" x2="1285" y1="1075.6094" y2="1075.6094"/></g><g id="elem_HistologieGrading"><rect fill="#22FF22" height="37.6094" style="stroke:#181818;stroke-width:0.5;" width="126" x="402" y="1054"/><text fill="#000000" font-family="sans-serif" font-size="14" lengthAdjust="spacing" textLength="112" x="409" y="1070.5332">HistologieGrading</text><line style="stroke:#181818;stroke-width:0.5;" x1="403" x2="527" y1="1075.6094" y2="1075.6094"/></g><g id="elem_Residualstatus"><rect fill="#22FF22" height="37.6094" style="stroke:#181818;stroke-width:0.5;" width="107" x="715.5" y="1054"/><text fill="#000000" font-family="sans-serif" font-size="14" lengthAdjust="spacing" textLength="93" x="722.5" y="1070.5332">Residualstatus</text><line style="stroke:#181818;stroke-width:0.5;" x1="716.5" x2="821.5" y1="1075.6094" y2="1075.6094"/></g><g id="elem_ECOG"><rect fill="#22FF22" height="37.6094" style="stroke:#181818;stroke-width:0.5;" width="55" x="1501.5" y="1054"/><text fill="#000000" font-family="sans-serif" font-size="14" lengthAdjust="spacing" textLength="41" x="1508.5" y="1070.5332">ECOG</text><line style="stroke:#181818;stroke-width:0.5;" x1="1502.5" x2="1555.5" y1="1075.6094" y2="1075.6094"/></g><g id="elem_Tod"><rect fill="#22FF22" height="37.6094" style="stroke:#181818;stroke-width:0.5;" width="39" x="857.5" y="1054"/><text fill="#000000" font-family="sans-serif" font-size="14" lengthAdjust="spacing" textLength="25" x="864.5" y="1070.5332">Tod</text><line style="stroke:#181818;stroke-width:0.5;" x1="858.5" x2="895.5" y1="1075.6094" y2="1075.6094"/></g><g id="elem_MII_PathoAnforderung"><rect fill="#DDFFDD" height="37.6094" style="stroke:#181818;stroke-width:0.5;" width="155" x="683.5" y="159"/><text fill="#000000" font-family="sans-serif" font-size="14" lengthAdjust="spacing" textLength="141" x="690.5" y="175.5332">MII_PathoAnforderung</text><line style="stroke:#181818;stroke-width:0.5;" x1="684.5" x2="837.5" y1="180.6094" y2="180.6094"/></g><g id="elem_MII_PathoBefund"><rect fill="#88FF88" height="37.6094" style="stroke:#181818;stroke-width:0.5;" width="121" x="700.5" y="43"/><text fill="#000000" font-family="sans-serif" font-size="14" lengthAdjust="spacing" textLength="107" x="707.5" y="59.5332">MII_PathoBefund</text><line style="stroke:#181818;stroke-width:0.5;" x1="701.5" x2="820.5" y1="64.6094" y2="64.6094"/></g><g id="elem_MII_MolGenAnforderung"><rect fill="#DDFFDD" height="37.6094" style="stroke:#181818;stroke-width:0.5;" width="167" x="245.5" y="159"/><text fill="#000000" font-family="sans-serif" font-size="14" lengthAdjust="spacing" textLength="153" x="252.5" y="175.5332">MII_MolGenAnforderung</text><line style="stroke:#181818;stroke-width:0.5;" x1="246.5" x2="411.5" y1="180.6094" y2="180.6094"/></g><g id="elem_MII_MolGenBefund"><rect fill="#88FF88" height="37.6094" style="stroke:#181818;stroke-width:0.5;" width="133" x="253.5" y="43"/><text fill="#000000" font-family="sans-serif" font-size="14" lengthAdjust="spacing" textLength="119" x="260.5" y="59.5332">MII_MolGenBefund</text><line style="stroke:#181818;stroke-width:0.5;" x1="254.5" x2="385.5" y1="64.6094" y2="64.6094"/></g><g id="elem_MII_Bioprobe"><rect fill="#44FFFF" height="37.6094" style="stroke:#181818;stroke-width:0.5;" width="96" x="521" y="378"/><text fill="#000000" font-family="sans-serif" font-size="14" lengthAdjust="spacing" textLength="82" x="528" y="394.5332">MII_Bioprobe</text><line style="stroke:#181818;stroke-width:0.5;" x1="522" x2="616" y1="399.6094" y2="399.6094"/></g><g id="elem_Onko_OP"><rect fill="#9999FF" height="37.6094" style="stroke:#181818;stroke-width:0.5;" width="76" x="2071" y="807"/><text fill="#000000" font-family="sans-serif" font-size="14" lengthAdjust="spacing" textLength="62" x="2078" y="823.5332">Onko_OP</text><line style="stroke:#181818;stroke-width:0.5;" x1="2072" x2="2146" y1="828.6094" y2="828.6094"/></g><g id="elem_Onko_Strahlentherapie"><rect fill="#9999FF" height="37.6094" style="stroke:#181818;stroke-width:0.5;" width="161" x="1446.5" y="807"/><text fill="#000000" font-family="sans-serif" font-size="14" lengthAdjust="spacing" textLength="147" x="1453.5" y="823.5332">Onko_Strahlentherapie</text><line style="stroke:#181818;stroke-width:0.5;" x1="1447.5" x2="1606.5" y1="828.6094" y2="828.6094"/></g><g id="elem_Onko_SystemischeTherapie"><rect fill="#9999FF" height="37.6094" style="stroke:#181818;stroke-width:0.5;" width="192" x="1649" y="807"/><text fill="#000000" font-family="sans-serif" font-size="14" lengthAdjust="spacing" textLength="178" x="1656" y="823.5332">Onko_SystemischeTherapie</text><line style="stroke:#181818;stroke-width:0.5;" x1="1650" x2="1840" y1="828.6094" y2="828.6094"/></g><g id="elem_Therapieplanung_Tumorkonferenz"><rect fill="#CCCCFF" height="37.6094" style="stroke:#181818;stroke-width:0.5;" width="233" x="1703.5" y="691"/><text fill="#000000" font-family="sans-serif" font-size="14" lengthAdjust="spacing" textLength="219" x="1710.5" y="707.5332">Therapieplanung_Tumorkonferenz</text><line style="stroke:#181818;stroke-width:0.5;" x1="1704.5" x2="1935.5" y1="712.6094" y2="712.6094"/></g><g id="elem_PrimaerDiagnose"><rect fill="#FFFF66" height="37.6094" style="stroke:#181818;stroke-width:0.5;" width="123" x="797.5" y="479"/><text fill="#000000" font-family="sans-serif" font-size="14" lengthAdjust="spacing" textLength="109" x="804.5" y="495.5332">PrimaerDiagnose</text><line style="stroke:#181818;stroke-width:0.5;" x1="798.5" x2="919.5" y1="500.6094" y2="500.6094"/></g><!--class Onko_Befund--><g id="elem_Onko_Befund"><rect fill="#F1F1F1" height="48" id="Onko_Befund" rx="2.5" ry="2.5" style="stroke:#181818;stroke-width:0.5;" width="119" x="2027.5" y="923"/><ellipse cx="2042.5" cy="939" fill="#ADD1B2" rx="11" ry="11" style="stroke:#181818;stroke-width:1.0;"/><path d="M2045.2656,934.875 Q2045.4219,934.6563 2045.6094,934.5469 Q2045.7969,934.4375 2046.0156,934.4375 Q2046.3906,934.4375 2046.625,934.6953 Q2046.8594,934.9531 2046.8594,935.5625 L2046.8594,937.0156 Q2046.8594,937.625 2046.625,937.8906 Q2046.3906,938.1563 2046.0156,938.1563 Q2045.6719,938.1563 2045.4688,937.9531 Q2045.2656,937.7656 2045.1563,937.25 Q2045.1094,936.8906 2044.9219,936.7031 Q2044.5938,936.3281 2043.9844,936.1094 Q2043.375,935.8906 2042.75,935.8906 Q2041.9844,935.8906 2041.3516,936.2188 Q2040.7188,936.5469 2040.2266,937.2969 Q2039.7344,938.0469 2039.7344,939.0781 L2039.7344,940.1719 Q2039.7344,941.4063 2040.625,942.2266 Q2041.5156,943.0469 2043.1094,943.0469 Q2044.0469,943.0469 2044.7031,942.7969 Q2045.0938,942.6406 2045.5156,942.2031 Q2045.7813,941.9375 2045.9297,941.8594 Q2046.0781,941.7813 2046.2813,941.7813 Q2046.6094,941.7813 2046.8672,942.0391 Q2047.125,942.2969 2047.125,942.6406 Q2047.125,942.9844 2046.7813,943.3906 Q2046.2813,943.9688 2045.4844,944.2969 Q2044.4063,944.75 2043.1094,944.75 Q2041.5938,944.75 2040.3906,944.125 Q2039.4063,943.625 2038.7188,942.5547 Q2038.0313,941.4844 2038.0313,940.2031 L2038.0313,939.0469 Q2038.0313,937.7188 2038.6484,936.5703 Q2039.2656,935.4219 2040.3594,934.8047 Q2041.4531,934.1875 2042.6875,934.1875 Q2043.4219,934.1875 2044.0703,934.3516 Q2044.7188,934.5156 2045.2656,934.875 Z " fill="#000000"/><text fill="#000000" font-family="sans-serif" font-size="14" lengthAdjust="spacing" textLength="87" x="2056.5" y="944.7285">Onko_Befund</text><line style="stroke:#181818;stroke-width:0.5;" x1="2028.5" x2="2145.5" y1="955" y2="955"/><line style="stroke:#181818;stroke-width:0.5;" x1="2028.5" x2="2145.5" y1="963" y2="963"/></g><g id="elem_Verlauf"><rect fill="#22FF22" height="37.6094" style="stroke:#181818;stroke-width:0.5;" width="59" x="758.5" y="807"/><text fill="#000000" font-family="sans-serif" font-size="14" lengthAdjust="spacing" textLength="45" x="765.5" y="823.5332">Verlauf</text><line style="stroke:#181818;stroke-width:0.5;" x1="759.5" x2="816.5" y1="828.6094" y2="828.6094"/></g><g id="elem_AdverseEvent"><rect fill="#FF9999" height="37.6094" style="stroke:#181818;stroke-width:0.5;" width="102" x="1610" y="1054"/><text fill="#000000" font-family="sans-serif" font-size="14" lengthAdjust="spacing" textLength="88" x="1617" y="1070.5332">AdverseEvent</text><line style="stroke:#181818;stroke-width:0.5;" x1="1611" x2="1711" y1="1075.6094" y2="1075.6094"/></g><!--reverse link Therapieplanung_Tumorkonferenz to Onko_OP--><g id="link_Therapieplanung_Tumorkonferenz_Onko_OP"><path codeLine="8" d="M1896.3535,730.4944 C1949.6935,744.1144 2008,759 2008,759 C2008,759 2051.5,787.42 2081.4,806.97 " fill="none" id="Therapieplanung_Tumorkonferenz-backto-Onko_OP" style="stroke:#181818;stroke-width:1.0;"/><polygon fill="#181818" points="1890.54,729.01,1898.2706,735.1123,1895.3846,730.247,1900.2498,727.361,1890.54,729.01" style="stroke:#181818;stroke-width:1.0;"/><text fill="#000000" font-family="sans-serif" font-size="13" lengthAdjust="spacing" textLength="52" x="2036" y="773.4951">basedOn</text></g><!--reverse link Therapieplanung_Tumorkonferenz to Onko_Strahlentherapie--><g id="link_Therapieplanung_Tumorkonferenz_Onko_Strahlentherapie"><path codeLine="9" d="M1767.9786,731.2363 C1713.2786,752.5263 1628.51,785.5 1573.69,806.83 " fill="none" id="Therapieplanung_Tumorkonferenz-backto-Onko_Strahlentherapie" style="stroke:#181818;stroke-width:1.0;"/><polygon fill="#181818" points="1773.57,729.06,1763.732,728.5968,1768.9105,730.8735,1766.6337,736.052,1773.57,729.06" style="stroke:#181818;stroke-width:1.0;"/><text fill="#000000" font-family="sans-serif" font-size="13" lengthAdjust="spacing" textLength="52" x="1692" y="773.4951">basedOn</text></g><!--reverse link Therapieplanung_Tumorkonferenz to Onko_SystemischeTherapie--><g id="link_Therapieplanung_Tumorkonferenz_Onko_SystemischeTherapie"><path codeLine="10" d="M1804.8224,734.0726 C1790.8624,755.2926 1771.12,785.3 1757.08,806.64 " fill="none" id="Therapieplanung_Tumorkonferenz-backto-Onko_SystemischeTherapie" style="stroke:#181818;stroke-width:1.0;"/><polygon fill="#181818" points="1808.12,729.06,1799.8319,734.3804,1805.372,733.2371,1806.5153,738.7772,1808.12,729.06" style="stroke:#181818;stroke-width:1.0;"/><text fill="#000000" font-family="sans-serif" font-size="13" lengthAdjust="spacing" textLength="52" x="1787" y="773.4951">basedOn</text></g><!--reverse link Onko_SystemischeTherapie to Medikation--><g id="link_Onko_SystemischeTherapie_Medikation"><path codeLine="14" d="M1768.1384,849.2151 C1797.1084,877.0251 1845,923 1845,923 C1845,923 1896.27,1013.94 1918.7,1053.73 " fill="none" id="Onko_SystemischeTherapie-backto-Medikation" style="stroke:#181818;stroke-width:1.0;"/><polygon fill="#181818" points="1763.81,845.06,1767.5326,854.1783,1767.417,848.5226,1773.0727,848.407,1763.81,845.06" style="stroke:#181818;stroke-width:1.0;"/><text fill="#000000" font-family="sans-serif" font-size="13" lengthAdjust="spacing" textLength="35" x="1872" y="952.4951">partOf</text></g><!--reverse link Therapieplanung_Tumorkonferenz to Medikation--><g id="link_Therapieplanung_Tumorkonferenz_Medikation"><path codeLine="15" d="M1833.6111,734.3339 C1841.5311,747.9239 1848,759 1848,759 C1848,759 1916,923 1916,923 C1916,923 1923.93,1013.94 1927.41,1053.73 " fill="none" id="Therapieplanung_Tumorkonferenz-backto-Medikation" style="stroke:#181818;stroke-width:1.0;"/><polygon fill="#181818" points="1830.59,729.15,1831.6657,738.9399,1833.1076,733.4699,1838.5776,734.9118,1830.59,729.15" style="stroke:#181818;stroke-width:1.0;"/><text fill="#000000" font-family="sans-serif" font-size="13" lengthAdjust="spacing" textLength="52" x="1904" y="889.4951">basedOn</text></g><!--reverse link PrimaerDiagnose to TNM_Klassifikation--><g id="link_PrimaerDiagnose_TNM_Klassifikation"><path codeLine="30" d="M919.3859,519.006 C1009.3559,548.796 1173,603 1173,603 C1173,603 1173,603 1173,948 C1173,948 1083,1010 1083,1010 C1083,1010 1048.12,1035.44 1023.04,1053.73 " fill="none" id="PrimaerDiagnose-backto-TNM_Klassifikation" style="stroke:#181818;stroke-width:1.0;"/><polygon fill="#181818" points="913.69,517.12,920.9765,523.7462,918.4366,518.6916,923.4911,516.1517,913.69,517.12" style="stroke:#181818;stroke-width:1.0;"/><text fill="#000000" font-family="sans-serif" font-size="13" lengthAdjust="spacing" textLength="31" x="1174" y="773.4951">focus</text></g><!--reverse link PrimaerDiagnose to Therapieplanung_Tumorkonferenz--><g id="link_PrimaerDiagnose_Therapieplanung_Tumorkonferenz"><path codeLine="31" d="M926.5375,504.8588 C1070.6775,517.3688 1412,547 1412,547 C1412,547 1667.92,648.61 1774.38,690.89 " fill="none" id="PrimaerDiagnose-backto-Therapieplanung_Tumorkonferenz" style="stroke:#181818;stroke-width:1.0;"/><polygon fill="#181818" points="920.56,504.34,929.1804,509.1032,925.5413,504.7723,929.8722,501.1332,920.56,504.34" style="stroke:#181818;stroke-width:1.0;"/><text fill="#000000" font-family="sans-serif" font-size="13" lengthAdjust="spacing" textLength="60" x="1576" y="609.4951">addresses</text></g><!--reverse link PrimaerDiagnose to Lymphknotenuntersuchung--><g id="link_PrimaerDiagnose_Lymphknotenuntersuchung"><path codeLine="32" d="M926.532,504.234 C1189.562,524.634 2200,603 2200,603 C2200,603 2200,603 2200,885 C2200,885 2164,971 2164,971 C2164,971 1304,1010 1304,1010 C1304,1010 1258.17,1035.6 1225.4,1053.9 " fill="none" id="PrimaerDiagnose-backto-Lymphknotenuntersuchung" style="stroke:#181818;stroke-width:1.0;"/><polygon fill="#181818" points="920.55,503.77,929.2138,508.454,925.535,504.1566,929.8324,500.4779,920.55,503.77" style="stroke:#181818;stroke-width:1.0;"/><text fill="#000000" font-family="sans-serif" font-size="13" lengthAdjust="spacing" textLength="31" x="2201" y="773.4951">focus</text></g><!--reverse link PrimaerDiagnose to HistologieGrading--><g id="link_PrimaerDiagnose_HistologieGrading"><path codeLine="33" d="M791.3264,509.9042 C704.0464,523.9642 561,547 561,547 C561,547 384,595 384,595 C384,595 316,759 316,759 C316,759 316,777 316,777 C316,777 400,971 400,971 C400,971 434.68,1024.89 453.38,1053.94 " fill="none" id="PrimaerDiagnose-backto-HistologieGrading" style="stroke:#181818;stroke-width:1.0;"/><polygon fill="#181818" points="797.25,508.95,787.7284,506.4323,792.3136,509.7452,789.0007,514.3305,797.25,508.95" style="stroke:#181818;stroke-width:1.0;"/><text fill="#000000" font-family="sans-serif" font-size="13" lengthAdjust="spacing" textLength="31" x="317" y="773.4951">focus</text></g><!--reverse link PrimaerDiagnose to Onko_Variante--><g id="link_PrimaerDiagnose_Onko_Variante"><path codeLine="34" d="M791.1993,507.7479 C685.4193,521.3979 487,547 487,547 C487,547 108,603 108,603 C108,603 108,603 108,948 C108,948 225.76,1019.58 282.34,1053.97 " fill="none" id="PrimaerDiagnose-backto-Onko_Variante" style="stroke:#181818;stroke-width:1.0;"/><polygon fill="#181818" points="797.15,506.98,787.7121,504.1647,792.1911,507.6199,788.7359,512.0989,797.15,506.98" style="stroke:#181818;stroke-width:1.0;"/><text fill="#000000" font-family="sans-serif" font-size="13" lengthAdjust="spacing" textLength="31" x="109" y="773.4951">focus</text></g><!--reverse link PrimaerDiagnose to WeitereKlassifikation--><g id="link_PrimaerDiagnose_WeitereKlassifikation"><path codeLine="35" d="M926.6264,512.3419 C1065.7964,539.8119 1386,603 1386,603 C1386,603 1386,603 1386,948 C1386,948 1390.62,1019.58 1392.84,1053.97 " fill="none" id="PrimaerDiagnose-backto-WeitereKlassifikation" style="stroke:#181818;stroke-width:1.0;"/><polygon fill="#181818" points="920.74,511.18,928.795,516.8471,925.6454,512.1482,930.3442,508.9985,920.74,511.18" style="stroke:#181818;stroke-width:1.0;"/><text fill="#000000" font-family="sans-serif" font-size="13" lengthAdjust="spacing" textLength="31" x="1387" y="773.4951">focus</text></g><!--reverse link PrimaerDiagnose to ECOG--><g id="link_PrimaerDiagnose_ECOG"><path codeLine="36" d="M926.538,503.29 C1106.798,514.73 1615,547 1615,547 C1615,547 2273,603 2273,603 C2273,603 2273,603 2273,948 C2273,948 2199,971 2199,971 C2199,971 1593,1010 1593,1010 C1593,1010 1566.73,1035.44 1547.86,1053.73 " fill="none" id="PrimaerDiagnose-backto-ECOG" style="stroke:#181818;stroke-width:1.0;"/><polygon fill="#181818" points="920.55,502.91,929.2786,507.472,925.54,503.2267,929.7853,499.4881,920.55,502.91" style="stroke:#181818;stroke-width:1.0;"/><text fill="#000000" font-family="sans-serif" font-size="13" lengthAdjust="spacing" textLength="31" x="2274" y="773.4951">focus</text></g><!--reverse link PrimaerDiagnose to Fernmetastasen--><g id="link_PrimaerDiagnose_Fernmetastasen"><path codeLine="37" d="M791.6135,514.0042 C664.8035,542.2442 392,603 392,603 C392,603 392,603 392,948 C392,948 546,1010 546,1010 C546,1010 577.19,1035.44 599.61,1053.73 " fill="none" id="PrimaerDiagnose-backto-Fernmetastasen" style="stroke:#181818;stroke-width:1.0;"/><polygon fill="#181818" points="797.47,512.7,787.8157,510.752,792.5896,513.7869,789.5547,518.5607,797.47,512.7" style="stroke:#181818;stroke-width:1.0;"/><text fill="#000000" font-family="sans-serif" font-size="13" lengthAdjust="spacing" textLength="31" x="393" y="773.4951">focus</text></g><!--reverse link Therapieplanung_Tumorkonferenz to Onko_Befund--><g id="link_Therapieplanung_Tumorkonferenz_Onko_Befund"><path codeLine="39" d="M1862.9293,731.606 C1891.3093,745.226 1920,759 1920,759 C1920,759 2021.42,872.57 2066.19,922.69 " fill="none" id="Therapieplanung_Tumorkonferenz-backto-Onko_Befund" style="stroke:#181818;stroke-width:1.0;"/><polygon fill="#181818" points="1857.52,729.01,1863.9033,736.5102,1862.0278,731.1733,1867.3647,729.2978,1857.52,729.01" style="stroke:#181818;stroke-width:1.0;"/><text fill="#000000" font-family="sans-serif" font-size="13" lengthAdjust="spacing" textLength="52" x="1996" y="831.4951">basedOn</text></g><!--reverse link PrimaerDiagnose to Verlauf--><g id="link_PrimaerDiagnose_Verlauf"><path codeLine="42" d="M853.7029,523.3225 C841.2029,580.7025 804.41,749.64 791.98,806.74 " fill="none" id="PrimaerDiagnose-backto-Verlauf" style="stroke:#181818;stroke-width:1.0;"/><polygon fill="#181818" points="854.98,517.46,849.156,525.4023,853.9157,522.3454,856.9727,527.1052,854.98,517.46" style="stroke:#181818;stroke-width:1.0;"/><text fill="#000000" font-family="sans-serif" font-size="13" lengthAdjust="spacing" textLength="31" x="828" y="657.4951">focus</text></g><!--reverse link Verlauf to Tod--><g id="link_Verlauf_Tod"><path codeLine="43" d="M805.1403,849.8598 C826.0003,877.6698 860,923 860,923 C860,923 870.38,1013.94 874.92,1053.73 " fill="none" id="Verlauf-backto-Tod" style="stroke:#181818;stroke-width:1.0;"/><polygon fill="#181818" points="801.54,845.06,803.7406,854.6599,804.5402,849.0598,810.1403,849.8595,801.54,845.06" style="stroke:#181818;stroke-width:1.0;"/><text fill="#000000" font-family="sans-serif" font-size="13" lengthAdjust="spacing" textLength="70" x="866" y="952.4951">derivedFrom</text></g><!--reverse link Verlauf to TNM_Klassifikation--><g id="link_Verlauf_TNM_Klassifikation"><path codeLine="44" d="M822.6489,848.1901 C868.1289,876.0001 945,923 945,923 C945,923 977.35,1013.94 991.5,1053.73 " fill="none" id="Verlauf-backto-TNM_Klassifikation" style="stroke:#181818;stroke-width:1.0;"/><polygon fill="#181818" points="817.53,845.06,823.1216,853.1677,821.7957,847.6684,827.295,846.3425,817.53,845.06" style="stroke:#181818;stroke-width:1.0;"/><text fill="#000000" font-family="sans-serif" font-size="13" lengthAdjust="spacing" textLength="70" x="962" y="952.4951">derivedFrom</text></g><!--reverse link Verlauf to Lymphknotenuntersuchung--><g id="link_Verlauf_Lymphknotenuntersuchung"><path codeLine="45" d="M823.1299,840.3283 C889.8699,865.6483 1041,923 1041,923 C1041,923 1199,1001 1199,1001 C1199,1001 1199,1002 1199,1002 C1199,1002 1196.32,1033.23 1194.55,1053.97 " fill="none" id="Verlauf-backto-Lymphknotenuntersuchung" style="stroke:#181818;stroke-width:1.0;"/><polygon fill="#181818" points="817.52,838.2,824.5159,845.1323,822.1949,839.9736,827.3536,837.6525,817.52,838.2" style="stroke:#181818;stroke-width:1.0;"/><text fill="#000000" font-family="sans-serif" font-size="13" lengthAdjust="spacing" textLength="70" x="1136" y="952.4951">derivedFrom</text></g><!--reverse link Verlauf to HistologieGrading--><g id="link_Verlauf_HistologieGrading"><path codeLine="46" d="M752.8418,844.2196 C698.0118,871.0796 592,923 592,923 C592,923 514.49,1013.94 480.57,1053.73 " fill="none" id="Verlauf-backto-HistologieGrading" style="stroke:#181818;stroke-width:1.0;"/><polygon fill="#181818" points="758.23,841.58,748.388,841.9472,753.7398,843.7796,751.9074,849.1315,758.23,841.58" style="stroke:#181818;stroke-width:1.0;"/><text fill="#000000" font-family="sans-serif" font-size="13" lengthAdjust="spacing" textLength="70" x="593" y="952.4951">derivedFrom</text></g><!--reverse link Verlauf to Fernmetastasen--><g id="link_Verlauf_Fernmetastasen"><path codeLine="47" d="M766.5487,849.392 C739.8987,877.202 696,923 696,923 C696,923 650.83,1013.94 631.07,1053.73 " fill="none" id="Verlauf-backto-Fernmetastasen" style="stroke:#181818;stroke-width:1.0;"/><polygon fill="#181818" points="770.7,845.06,761.585,848.7905,767.2406,848.67,767.361,854.3256,770.7,845.06" style="stroke:#181818;stroke-width:1.0;"/><text fill="#000000" font-family="sans-serif" font-size="13" lengthAdjust="spacing" textLength="70" x="697" y="952.4951">derivedFrom</text></g><!--reverse link Verlauf to Residualstatus--><g id="link_Verlauf_Residualstatus"><path codeLine="48" d="M786.1365,851.0021 C782.6265,896.3021 773.92,1008.62 770.4,1053.96 " fill="none" id="Verlauf-backto-Residualstatus" style="stroke:#181818;stroke-width:1.0;"/><polygon fill="#181818" points="786.6,845.02,781.9167,853.6841,786.2137,850.0051,789.8928,854.3021,786.6,845.02" style="stroke:#181818;stroke-width:1.0;"/><text fill="#000000" font-family="sans-serif" font-size="13" lengthAdjust="spacing" textLength="70" x="781" y="952.4951">derivedFrom</text></g><!--reverse link Verlauf to Onko_Variante--><g id="link_Verlauf_Onko_Variante"><path codeLine="49" d="M752.7175,837.689 C674.0275,861.519 471,923 471,923 C471,923 366,1001 366,1001 C366,1001 341.91,1032.68 325.91,1053.72 " fill="none" id="Verlauf-backto-Onko_Variante" style="stroke:#181818;stroke-width:1.0;"/><polygon fill="#181818" points="758.46,835.95,748.687,834.7302,753.6746,837.3992,751.0057,842.3868,758.46,835.95" style="stroke:#181818;stroke-width:1.0;"/><text fill="#000000" font-family="sans-serif" font-size="13" lengthAdjust="spacing" textLength="70" x="472" y="952.4951">derivedFrom</text></g><!--reverse link MII_PathoBefund to MII_PathoAnforderung--><g id="link_MII_PathoBefund_MII_PathoAnforderung"><path codeLine="55" d="M761,87.06 C761,108.28 761,137.3 761,158.64 " fill="none" id="MII_PathoBefund-backto-MII_PathoAnforderung" style="stroke:#181818;stroke-width:1.0;"/><polygon fill="#181818" points="761,81.06,757,90.06,761,86.06,765,90.06,761,81.06" style="stroke:#181818;stroke-width:1.0;"/><text fill="#000000" font-family="sans-serif" font-size="13" lengthAdjust="spacing" textLength="43" x="762" y="125.4951">request</text></g><!--reverse link MII_MolGenBefund to MII_MolGenAnforderung--><g id="link_MII_MolGenBefund_MII_MolGenAnforderung"><path codeLine="62" d="M321.9007,87.0415 C323.5707,108.2615 325.87,137.3 327.55,158.64 " fill="none" id="MII_MolGenBefund-backto-MII_MolGenAnforderung" style="stroke:#181818;stroke-width:1.0;"/><polygon fill="#181818" points="321.43,81.06,318.1484,90.3461,321.8223,86.0446,326.1238,89.7184,321.43,81.06" style="stroke:#181818;stroke-width:1.0;"/><text fill="#000000" font-family="sans-serif" font-size="13" lengthAdjust="spacing" textLength="43" x="327" y="125.4951">request</text></g><!--link MII_MolGenBefund to Onko_Variante--><g id="link_MII_MolGenBefund_Onko_Variante"><path codeLine="70" d="M270.25,81.06 C181.71,113.21 6,177 6,177 C6,177 6,177 6,948 C6,948 177.0793,1017.3265 261.9393,1051.7165 " fill="none" id="MII_MolGenBefund-to-Onko_Variante" style="stroke:#181818;stroke-width:1.0;stroke-dasharray:7.0,7.0;"/><polygon fill="#181818" points="267.5,1053.97,260.6613,1046.8826,262.8661,1052.0921,257.6566,1054.2969,267.5,1053.97" style="stroke:#181818;stroke-width:1.0;"/><text fill="#000000" font-family="sans-serif" font-size="13" lengthAdjust="spacing" textLength="77" x="7" y="561.4951">result[variant]</text></g><!--link MII_PathoAnforderung to PrimaerDiagnose--><g id="link_MII_PathoAnforderung_PrimaerDiagnose"><path codeLine="71" d="M766.55,197.01 C783.76,252.85 834.3331,416.9561 851.6231,473.0661 " fill="none" id="MII_PathoAnforderung-to-PrimaerDiagnose" style="stroke:#181818;stroke-width:1.0;stroke-dasharray:7.0,7.0;"/><polygon fill="#181818" points="853.39,478.8,854.5623,469.0212,851.9176,474.0217,846.917,471.377,853.39,478.8" style="stroke:#181818;stroke-width:1.0;"/><text fill="#000000" font-family="sans-serif" font-size="13" lengthAdjust="spacing" textLength="97" x="807" y="322.4951">reasonReference</text></g><!--link MII_MolGenAnforderung to PrimaerDiagnose--><g id="link_MII_MolGenAnforderung_PrimaerDiagnose"><path codeLine="72" d="M329.12,197.03 C329.39,236.28 330,326 330,326 C330,326 505,440 505,440 C505,440 689.9863,469.7863 791.4163,486.1163 " fill="none" id="MII_MolGenAnforderung-to-PrimaerDiagnose" style="stroke:#181818;stroke-width:1.0;stroke-dasharray:7.0,7.0;"/><polygon fill="#181818" points="797.34,487.07,789.0902,481.6903,792.4036,486.2752,787.8186,489.5886,797.34,487.07" style="stroke:#181818;stroke-width:1.0;"/><text fill="#000000" font-family="sans-serif" font-size="13" lengthAdjust="spacing" textLength="97" x="331" y="322.4951">reasonReference</text></g><!--link MII_PathoAnforderung to MII_Bioprobe--><g id="link_MII_PathoAnforderung_MII_Bioprobe"><path codeLine="73" d="M738.33,197.18 C708.56,221.06 660,260 660,260 C660,260 609.1775,335.9639 584.4175,372.9539 " fill="none" id="MII_PathoAnforderung-to-MII_Bioprobe" style="stroke:#181818;stroke-width:1.0;stroke-dasharray:7.0,7.0;"/><polygon fill="#181818" points="581.08,377.94,589.4103,372.6859,583.8613,373.7849,582.7622,368.2359,581.08,377.94" style="stroke:#181818;stroke-width:1.0;"/><text fill="#000000" font-family="sans-serif" font-size="13" lengthAdjust="spacing" textLength="56" x="661" y="274.4951">specimen</text></g><!--reverse link MII_PathoAnforderung to MII_Bioprobe--><g id="link_MII_PathoAnforderung_MII_Bioprobe"><path codeLine="74" d="M751.6506,202.7424 C740.3906,231.3224 722,278 722,278 C722,278 635.49,344.72 592.57,377.82 " fill="none" id="MII_PathoAnforderung-backto-MII_Bioprobe" style="stroke:#181818;stroke-width:1.0;stroke-dasharray:7.0,7.0;"/><polygon fill="#181818" points="753.85,197.16,746.8294,204.0673,752.0172,201.812,754.2726,206.9998,753.85,197.16" style="stroke:#181818;stroke-width:1.0;"/><text fill="#000000" font-family="sans-serif" font-size="13" lengthAdjust="spacing" textLength="43" x="729" y="274.4951">request</text></g><!--link MII_MolGenAnforderung to MII_Bioprobe--><g id="link_MII_MolGenAnforderung_MII_Bioprobe"><path codeLine="75" d="M360.41,197.05 C385.33,211.37 416,229 416,229 C416,229 508.6264,330.1064 548.2864,373.3864 " fill="none" id="MII_MolGenAnforderung-to-MII_Bioprobe" style="stroke:#181818;stroke-width:1.0;stroke-dasharray:7.0,7.0;"/><polygon fill="#181818" points="552.34,377.81,549.2087,368.4722,548.962,374.1237,543.3105,373.877,552.34,377.81" style="stroke:#181818;stroke-width:1.0;"/><text fill="#000000" font-family="sans-serif" font-size="13" lengthAdjust="spacing" textLength="56" x="461" y="274.4951">specimen</text></g><!--reverse link MII_MolGenAnforderung to MII_Bioprobe--><g id="link_MII_MolGenAnforderung_MII_Bioprobe"><path codeLine="76" d="M343.5548,202.245 C361.4548,230.825 391,278 391,278 C391,278 491.65,344.72 541.58,377.82 " fill="none" id="MII_MolGenAnforderung-backto-MII_Bioprobe" style="stroke:#181818;stroke-width:1.0;stroke-dasharray:7.0,7.0;"/><polygon fill="#181818" points="340.37,197.16,341.7572,206.9107,343.024,201.3975,348.5372,202.6643,340.37,197.16" style="stroke:#181818;stroke-width:1.0;"/><text fill="#000000" font-family="sans-serif" font-size="13" lengthAdjust="spacing" textLength="43" x="392" y="274.4951">request</text></g><!--reverse link Onko_SystemischeTherapie to AdverseEvent--><g id="link_Onko_SystemischeTherapie_AdverseEvent"><path codeLine="79" d="M1735.4031,850.6193 C1724.1131,878.4293 1706,923 1706,923 C1706,923 1678.53,1013.94 1666.52,1053.73 " fill="none" id="Onko_SystemischeTherapie-backto-AdverseEvent" style="stroke:#181818;stroke-width:1.0;"/><polygon fill="#181818" points="1737.66,845.06,1730.5684,851.8944,1735.7792,849.6928,1737.9808,854.9036,1737.66,845.06" style="stroke:#181818;stroke-width:1.0;"/><text fill="#000000" font-family="sans-serif" font-size="13" lengthAdjust="spacing" textLength="133" x="1707" y="952.4951">suspectEntity.instance</text></g><!--reverse link Onko_Strahlentherapie to AdverseEvent--><g id="link_Onko_Strahlentherapie_AdverseEvent"><path codeLine="80" d="M1530.5257,851.1772 C1536.1757,889.9272 1548,971 1548,971 C1548,971 1608.3,1024.89 1640.8,1053.94 " fill="none" id="Onko_Strahlentherapie-backto-AdverseEvent" style="stroke:#181818;stroke-width:1.0;"/><polygon fill="#181818" points="1529.66,845.24,1527.0004,854.723,1530.3814,850.1877,1534.9167,853.5687,1529.66,845.24" style="stroke:#181818;stroke-width:1.0;"/><text fill="#000000" font-family="sans-serif" font-size="13" lengthAdjust="spacing" textLength="133" x="1549" y="952.4951">suspectEntity.instance</text></g><rect fill="#DDDDDD" height="190.0938" id="_legend" rx="7.5" ry="7.5" style="stroke:#000000;stroke-width:1.0;" width="153" x="2134" y="1125"/><text fill="#000000" font-family="sans-serif" font-size="14" lengthAdjust="spacing" textLength="34" x="2139" y="1146.5332">Color</text><text fill="#000000" font-family="sans-serif" font-size="14" lengthAdjust="spacing" textLength="32" x="2173" y="1146.5332">Type</text><rect fill="#FFFF66" height="17.6094" style="stroke:none;stroke-width:1.0;" width="34" x="2139" y="1149.6094"/><text fill="#000000" font-family="sans-serif" font-size="14" lengthAdjust="spacing" textLength="4" x="2139" y="1164.1426">&#160;</text><text fill="#000000" font-family="sans-serif" font-size="14" lengthAdjust="spacing" textLength="60" x="2173" y="1164.1426">Condition</text><rect fill="#CCCCFF" height="17.6094" style="stroke:none;stroke-width:1.0;" width="34" x="2139" y="1167.2188"/><text fill="#000000" font-family="sans-serif" font-size="14" lengthAdjust="spacing" textLength="4" x="2139" y="1181.752">&#160;</text><text fill="#000000" font-family="sans-serif" font-size="14" lengthAdjust="spacing" textLength="59" x="2173" y="1181.752">CarePlan</text><rect fill="#9999FF" height="17.6094" style="stroke:none;stroke-width:1.0;" width="34" x="2139" y="1184.8281"/><text fill="#000000" font-family="sans-serif" font-size="14" lengthAdjust="spacing" textLength="4" x="2139" y="1199.3613">&#160;</text><text fill="#000000" font-family="sans-serif" font-size="14" lengthAdjust="spacing" textLength="66" x="2173" y="1199.3613">Procedure</text><rect fill="#DDFFDD" height="17.6094" style="stroke:none;stroke-width:1.0;" width="34" x="2139" y="1202.4375"/><text fill="#000000" font-family="sans-serif" font-size="14" lengthAdjust="spacing" textLength="4" x="2139" y="1216.9707">&#160;</text><text fill="#000000" font-family="sans-serif" font-size="14" lengthAdjust="spacing" textLength="100" x="2173" y="1216.9707">ServiceRequest</text><rect fill="#88FF88" height="17.6094" style="stroke:none;stroke-width:1.0;" width="34" x="2139" y="1220.0469"/><text fill="#000000" font-family="sans-serif" font-size="14" lengthAdjust="spacing" textLength="4" x="2139" y="1234.5801">&#160;</text><text fill="#000000" font-family="sans-serif" font-size="14" lengthAdjust="spacing" textLength="109" x="2173" y="1234.5801">DiagnosticReport</text><rect fill="#22FF22" height="17.6094" style="stroke:none;stroke-width:1.0;" width="34" x="2139" y="1237.6563"/><text fill="#000000" font-family="sans-serif" font-size="14" lengthAdjust="spacing" textLength="4" x="2139" y="1252.1895">&#160;</text><text fill="#000000" font-family="sans-serif" font-size="14" lengthAdjust="spacing" textLength="77" x="2173" y="1252.1895">Observation</text><rect fill="#FFCCFF" height="17.6094" style="stroke:none;stroke-width:1.0;" width="34" x="2139" y="1255.2656"/><text fill="#000000" font-family="sans-serif" font-size="14" lengthAdjust="spacing" textLength="4" x="2139" y="1269.7988">&#160;</text><text fill="#000000" font-family="sans-serif" font-size="14" lengthAdjust="spacing" textLength="68" x="2173" y="1269.7988">Medication</text><rect fill="#FF9999" height="17.6094" style="stroke:none;stroke-width:1.0;" width="34" x="2139" y="1272.875"/><text fill="#000000" font-family="sans-serif" font-size="14" lengthAdjust="spacing" textLength="4" x="2139" y="1287.4082">&#160;</text><text fill="#000000" font-family="sans-serif" font-size="14" lengthAdjust="spacing" textLength="88" x="2173" y="1287.4082">AdverseEvent</text><rect fill="#44FFFF" height="17.6094" style="stroke:none;stroke-width:1.0;" width="34" x="2139" y="1290.4844"/><text fill="#000000" font-family="sans-serif" font-size="14" lengthAdjust="spacing" textLength="4" x="2139" y="1305.0176">&#160;</text><text fill="#000000" font-family="sans-serif" font-size="14" lengthAdjust="spacing" textLength="62" x="2173" y="1305.0176">Specimen</text><line style="stroke:#000000;stroke-width:1.0;" x1="2139" x2="2282" y1="1132" y2="1132"/><line style="stroke:#000000;stroke-width:1.0;" x1="2139" x2="2282" y1="1149.6094" y2="1149.6094"/><line style="stroke:#000000;stroke-width:1.0;" x1="2139" x2="2282" y1="1167.2188" y2="1167.2188"/><line style="stroke:#000000;stroke-width:1.0;" x1="2139" x2="2282" y1="1184.8281" y2="1184.8281"/><line style="stroke:#000000;stroke-width:1.0;" x1="2139" x2="2282" y1="1202.4375" y2="1202.4375"/><line style="stroke:#000000;stroke-width:1.0;" x1="2139" x2="2282" y1="1220.0469" y2="1220.0469"/><line style="stroke:#000000;stroke-width:1.0;" x1="2139" x2="2282" y1="1237.6563" y2="1237.6563"/><line style="stroke:#000000;stroke-width:1.0;" x1="2139" x2="2282" y1="1255.2656" y2="1255.2656"/><line style="stroke:#000000;stroke-width:1.0;" x1="2139" x2="2282" y1="1272.875" y2="1272.875"/><line style="stroke:#000000;stroke-width:1.0;" x1="2139" x2="2282" y1="1290.4844" y2="1290.4844"/><line style="stroke:#000000;stroke-width:1.0;" x1="2139" x2="2282" y1="1308.0938" y2="1308.0938"/><line style="stroke:#000000;stroke-width:1.0;" x1="2139" x2="2139" y1="1132" y2="1308.0938"/><line style="stroke:#000000;stroke-width:1.0;" x1="2173" x2="2173" y1="1132" y2="1308.0938"/><line style="stroke:#000000;stroke-width:1.0;" x1="2282" x2="2282" y1="1132" y2="1308.0938"/><!--SRC=[ZLPHRzem47xthx3ACtsegegX2cajJLTj34HHzp1Do2G7yGXsPZj8REb_toLE82HEYiKBv-_klhlpNKvlkOYPOZiQSG7c40EDPNJ8_X2v-Ws-eLEnbSlfZFO-uV6yC_6hKIoCG9WG58ivk447RM37jH_2eWLNokE8YKHibeja9zLMYZKe47zfxn4FeWdv07ZVxvTyXtJ5D0HJGIzMgaTpD76vXMQe9oCA8sLY4m6zciWWYUW40hvbXajnHVyHYgT8n-c2zZml3_sTjEOIlVUhAaEA5JNJzIM1LnLFJ0iQCyLt3DIOiusG6Z8kddTtHwgHPAmYkK4QqvK6jSyjwQkpS7BcRqnn9WnQkRdnl9kRAi039NPWcCOV21TYyNso_1enhVdwc9acwWTmWw6vWRIA_7ROnU5MI0EO6DJHYHzYXbn6lt1jR8ZFYWNS3Pg3va728ep09Dg5U7gSFZiZay5H_4v8FUTvZPhH3-bQ-ebsmpzgfo5bGQ10QsWnq9ATJgVDD0qxqETFeWlfh6adappJNIPhpws0NjGjEUy7M2SYeFJKC6N7l86AMB8-5jJb7kjJmiemol-ss38OqW0KtqFWARchtJgUGZkwzPrtU71LiXrzdiiEu7c7T94-Unld5fipTCPCQCckyghK9-dBopA7V1PhgT1KtkJZiUUDnqvSKTlUOE1vWm5sPFqcc_LEgqEgu4y2sX07pOcCda7qhOqLHkI7na7LmYxWQe5EicTN9Tk6uGhR1ja7BbTCR1tyy2PMSeL3_FOs-nXa4uiqlLxZ6TNhY0CdYSpFlHNy8iua5ghrlicqcPPY3dap-a3SsN9gkvKRhdFLQf13gcFm-Gw4M-4UDMeAPKvRsNLwQ6fqk2X7pkTWZsqDJtlSMx8lTBPOVR0hL5MGGfAHC4_2S7EuvW8RDCkHUx-xN9z4i05y2uflGaD9-eXTgj85RfWfIU-BLMA4OX7mR8pbKhldePGfcE4OpeLsLHobCoLz219b3TY-6AMlk7Hm7-OsBVcLROTHMZm0m_qvn5BPIpkPHsbbNIa8MTVPFkHNnPdxKLgDER-m3O3-Ymgc1AErCHFo7m00]--></g></svg>