<?xml version="1.0" encoding="us-ascii" standalone="no"?><svg xmlns="http://www.w3.org/2000/svg" xmlns:xlink="http://www.w3.org/1999/xlink" contentStyleType="text/css" height="623px" preserveAspectRatio="none" style="width:1906px;height:623px;background:#FFFFFF;" version="1.1" viewBox="0 0 1906 623" width="1906px" zoomAndPan="magnify"><defs/><g><g id="elem_R4_Observation"><rect fill="#22FF22" height="37.6094" style="stroke:#181818;stroke-width:0.5;" width="117" x="578" y="7"/><text fill="#000000" font-family="sans-serif" font-size="14" lengthAdjust="spacing" textLength="103" x="585" y="23.5332">R4_Observation</text><line style="stroke:#181818;stroke-width:0.5;" x1="579" x2="694" y1="28.6094" y2="28.6094"/></g><g id="elem_NrUntersuchteLymphknoten"><rect fill="#22FF22" height="43.2188" style="stroke:#181818;stroke-width:0.5;" width="405" x="7" y="109"/><text fill="#000000" font-family="sans-serif" font-size="14" lengthAdjust="spacing" textLength="175" x="122" y="125.5332">NrUntersuchteLymphknoten</text><line style="stroke:#181818;stroke-width:1.0;" x1="7" x2="412" y1="130.6094" y2="130.6094"/><text fill="#000000" font-family="sans-serif" font-size="14" lengthAdjust="spacing" textLength="179" x="12" y="147.1426">6.7 Anzahl unters. Lymphkn.</text><text fill="#000000" font-family="sans-serif" font-size="14" lengthAdjust="spacing" textLength="206" x="201" y="147.1426">Observation.valueQuantity.value</text><line style="stroke:#181818;stroke-width:1.0;" x1="196" x2="196" y1="130.6094" y2="152.2188"/></g><g id="elem_NrBefalleneLymphknoten"><rect fill="#22FF22" height="43.2188" style="stroke:#181818;stroke-width:0.5;" width="385" x="190" y="220"/><text fill="#000000" font-family="sans-serif" font-size="14" lengthAdjust="spacing" textLength="158" x="303.5" y="236.5332">NrBefalleneLymphknoten</text><line style="stroke:#181818;stroke-width:1.0;" x1="190" x2="575" y1="241.6094" y2="241.6094"/><text fill="#000000" font-family="sans-serif" font-size="14" lengthAdjust="spacing" textLength="159" x="195" y="258.1426">6.8 Anzahl bef. Lymphkn.</text><text fill="#000000" font-family="sans-serif" font-size="14" lengthAdjust="spacing" textLength="206" x="364" y="258.1426">Observation.valueQuantity.value</text><line style="stroke:#181818;stroke-width:1.0;" x1="359" x2="359" y1="241.6094" y2="263.2188"/></g><g id="elem_NrUntersuchteSentinelLymphknoten"><rect fill="#22FF22" height="43.2188" style="stroke:#181818;stroke-width:0.5;" width="443" x="415" y="341.5"/><text fill="#000000" font-family="sans-serif" font-size="14" lengthAdjust="spacing" textLength="226" x="523.5" y="358.0332">NrUntersuchteSentinelLymphknoten</text><line style="stroke:#181818;stroke-width:1.0;" x1="415" x2="858" y1="363.1094" y2="363.1094"/><text fill="#000000" font-family="sans-serif" font-size="14" lengthAdjust="spacing" textLength="217" x="420" y="379.6426">6.9 Anzahl unters. Sent.-Lymphkn.</text><text fill="#000000" font-family="sans-serif" font-size="14" lengthAdjust="spacing" textLength="206" x="647" y="379.6426">Observation.valueQuantity.value</text><line style="stroke:#181818;stroke-width:1.0;" x1="642" x2="642" y1="363.1094" y2="384.7188"/></g><g id="elem_NrBefalleneSentinelLymphknoten"><rect fill="#22FF22" height="43.2188" style="stroke:#181818;stroke-width:0.5;" width="431" x="698" y="220"/><text fill="#000000" font-family="sans-serif" font-size="14" lengthAdjust="spacing" textLength="209" x="809" y="236.5332">NrBefalleneSentinelLymphknoten</text><line style="stroke:#181818;stroke-width:1.0;" x1="698" x2="1129" y1="241.6094" y2="241.6094"/><text fill="#000000" font-family="sans-serif" font-size="14" lengthAdjust="spacing" textLength="205" x="703" y="258.1426">6.10 Anzahl bef. Sent.-Lymphkn.</text><text fill="#000000" font-family="sans-serif" font-size="14" lengthAdjust="spacing" textLength="206" x="918" y="258.1426">Observation.valueQuantity.value</text><line style="stroke:#181818;stroke-width:1.0;" x1="913" x2="913" y1="241.6094" y2="263.2188"/></g><g id="elem_Onko_Grading"><rect fill="#22FF22" height="43.2188" style="stroke:#181818;stroke-width:0.5;" width="405" x="872" y="109"/><text fill="#000000" font-family="sans-serif" font-size="14" lengthAdjust="spacing" textLength="93" x="1028" y="125.5332">Onko_Grading</text><line style="stroke:#181818;stroke-width:1.0;" x1="872" x2="1277" y1="130.6094" y2="130.6094"/><text fill="#000000" font-family="sans-serif" font-size="14" lengthAdjust="spacing" textLength="75" x="877" y="147.1426">6.6 Grading</text><text fill="#000000" font-family="sans-serif" font-size="14" lengthAdjust="spacing" textLength="310" x="962" y="147.1426">Observation.valueCodeableConcept.coding.code</text><line style="stroke:#181818;stroke-width:1.0;" x1="957" x2="957" y1="130.6094" y2="152.2188"/></g><g id="elem_Onko_Befund"><rect fill="#88FF88" height="43.2188" style="stroke:#181818;stroke-width:0.5;" width="277" x="1328" y="109"/><text fill="#000000" font-family="sans-serif" font-size="14" lengthAdjust="spacing" textLength="87" x="1423" y="125.5332">Onko_Befund</text><line style="stroke:#181818;stroke-width:1.0;" x1="1328" x2="1605" y1="130.6094" y2="130.6094"/><text fill="#000000" font-family="sans-serif" font-size="14" lengthAdjust="spacing" textLength="77" x="1333" y="147.1426">6.11 Befund</text><text fill="#000000" font-family="sans-serif" font-size="14" lengthAdjust="spacing" textLength="180" x="1420" y="147.1426">DiagnosticReport.conclusion</text><line style="stroke:#181818;stroke-width:1.0;" x1="1415" x2="1415" y1="130.6094" y2="152.2188"/></g><g id="elem_R4_DiagnosticReport"><rect fill="#88FF88" height="37.6094" style="stroke:#181818;stroke-width:0.5;" width="149" x="1392" y="7"/><text fill="#000000" font-family="sans-serif" font-size="14" lengthAdjust="spacing" textLength="135" x="1399" y="23.5332">R4_DiagnosticReport</text><line style="stroke:#181818;stroke-width:0.5;" x1="1393" x2="1540" y1="28.6094" y2="28.6094"/></g><g id="elem_Onko_Specimen"><rect fill="#44FFFF" height="64.8281" style="stroke:#181818;stroke-width:0.5;" width="466" x="1433.5" y="331"/><text fill="#000000" font-family="sans-serif" font-size="14" lengthAdjust="spacing" textLength="104" x="1614.5" y="347.5332">Onko_Specimen</text><line style="stroke:#181818;stroke-width:1.0;" x1="1433.5" x2="1899.5" y1="352.6094" y2="352.6094"/><text fill="#000000" font-family="sans-serif" font-size="14" lengthAdjust="spacing" textLength="169" x="1454" y="369.1426">6.1 Tumor Histologiedatum</text><text fill="#000000" font-family="sans-serif" font-size="14" lengthAdjust="spacing" textLength="246" x="1648.5" y="369.1426">Specimen.collection.collectedDateTime</text><line style="stroke:#181818;stroke-width:1.0;" x1="1643.5" x2="1643.5" y1="352.6094" y2="374.2188"/><line style="stroke:#181818;stroke-width:1.0;" x1="1433.5" x2="1899.5" y1="374.2188" y2="374.2188"/><text fill="#000000" font-family="sans-serif" font-size="14" lengthAdjust="spacing" textLength="200" x="1438.5" y="390.752">6.2 Histologie-Einsendenummer</text><text fill="#000000" font-family="sans-serif" font-size="14" lengthAdjust="spacing" textLength="158" x="1648.5" y="390.752">Specimen.identifier.value</text><line style="stroke:#181818;stroke-width:1.0;" x1="1643.5" x2="1643.5" y1="374.2188" y2="395.8281"/></g><g id="elem_R4_Specimen"><rect fill="#44FFFF" height="37.6094" style="stroke:#181818;stroke-width:0.5;" width="102" x="1615.5" y="7"/><text fill="#000000" font-family="sans-serif" font-size="14" lengthAdjust="spacing" textLength="88" x="1622.5" y="23.5332">R4_Specimen</text><line style="stroke:#181818;stroke-width:0.5;" x1="1616.5" x2="1716.5" y1="28.6094" y2="28.6094"/></g><!--reverse link R4_Observation to NrUntersuchteLymphknoten--><g id="link_R4_Observation_NrUntersuchteLymphknoten"><path codeLine="8" d="M560.0773,45.342 C491.5573,61.792 394.75,85.03 311.67,104.97 " fill="none" id="R4_Observation-backto-NrUntersuchteLymphknoten" style="stroke:#181818;stroke-width:1.0;"/><polygon fill="none" points="577.58,41.14,558.6767,39.5077,561.478,51.1762,577.58,41.14" style="stroke:#181818;stroke-width:1.0;"/></g><!--reverse link R4_Observation to NrBefalleneLymphknoten--><g id="link_R4_Observation_NrBefalleneLymphknoten"><path codeLine="13" d="M601.0622,56.7833 C555.4822,95.1033 463.35,172.54 411.78,215.89 " fill="none" id="R4_Observation-backto-NrBefalleneLymphknoten" style="stroke:#181818;stroke-width:1.0;"/><polygon fill="none" points="614.84,45.2,597.2011,52.1907,604.9233,61.3759,614.84,45.2" style="stroke:#181818;stroke-width:1.0;"/></g><!--reverse link R4_Observation to NrUntersuchteSentinelLymphknoten--><g id="link_R4_Observation_NrUntersuchteSentinelLymphknoten"><path codeLine="20" d="M636.5,63.01 C636.5,119.14 636.5,272.97 636.5,337.32 " fill="none" id="R4_Observation-backto-NrUntersuchteSentinelLymphknoten" style="stroke:#181818;stroke-width:1.0;"/><polygon fill="none" points="636.5,45.01,630.5,63.01,642.5,63.01,636.5,45.01" style="stroke:#181818;stroke-width:1.0;"/></g><!--reverse link R4_Observation to NrBefalleneSentinelLymphknoten--><g id="link_R4_Observation_NrBefalleneSentinelLymphknoten"><path codeLine="25" d="M674.3759,56.1895 C724.0859,94.5095 825.33,172.54 881.57,215.89 " fill="none" id="R4_Observation-backto-NrBefalleneSentinelLymphknoten" style="stroke:#181818;stroke-width:1.0;"/><polygon fill="none" points="660.12,45.2,670.7128,60.9415,678.0391,51.4375,660.12,45.2" style="stroke:#181818;stroke-width:1.0;"/></g><!--reverse link R4_Observation to Onko_Grading--><g id="link_R4_Observation_Onko_Grading"><path codeLine="32" d="M712.6465,44.8214 C782.6865,61.2114 883.67,84.84 969.63,104.96 " fill="none" id="R4_Observation-backto-Onko_Grading" style="stroke:#181818;stroke-width:1.0;"/><polygon fill="none" points="695.12,40.72,711.2794,50.6635,714.0136,38.9792,695.12,40.72" style="stroke:#181818;stroke-width:1.0;"/></g><!--reverse link R4_DiagnosticReport to Onko_Befund--><g id="link_R4_DiagnosticReport_Onko_Befund"><path codeLine="40" d="M1466.5,63.32 C1466.5,79.91 1466.5,86.47 1466.5,104.79 " fill="none" id="R4_DiagnosticReport-backto-Onko_Befund" style="stroke:#181818;stroke-width:1.0;"/><polygon fill="none" points="1466.5,45.32,1460.5,63.32,1472.5,63.32,1466.5,45.32" style="stroke:#181818;stroke-width:1.0;"/></g><!--reverse link R4_Specimen to Onko_Specimen--><g id="link_R4_Specimen_Onko_Specimen"><path codeLine="47" d="M1666.5,63.01 C1666.5,116.35 1666.5,256.2 1666.5,326.97 " fill="none" id="R4_Specimen-backto-Onko_Specimen" style="stroke:#181818;stroke-width:1.0;"/><polygon fill="none" points="1666.5,45.01,1660.5,63.01,1672.5,63.01,1666.5,45.01" style="stroke:#181818;stroke-width:1.0;"/></g><rect fill="#DDDDDD" height="190.0938" id="_legend" rx="7.5" ry="7.5" style="stroke:#000000;stroke-width:1.0;" width="153" x="1727.5" y="413.8281"/><text fill="#000000" font-family="sans-serif" font-size="14" lengthAdjust="spacing" textLength="34" x="1732.5" y="435.3613">Color</text><text fill="#000000" font-family="sans-serif" font-size="14" lengthAdjust="spacing" textLength="32" x="1766.5" y="435.3613">Type</text><rect fill="#FFFF66" height="17.6094" style="stroke:none;stroke-width:1.0;" width="34" x="1732.5" y="438.4375"/><text fill="#000000" font-family="sans-serif" font-size="14" lengthAdjust="spacing" textLength="4" x="1732.5" y="452.9707">&#160;</text><text fill="#000000" font-family="sans-serif" font-size="14" lengthAdjust="spacing" textLength="60" x="1766.5" y="452.9707">Condition</text><rect fill="#CCCCFF" height="17.6094" style="stroke:none;stroke-width:1.0;" width="34" x="1732.5" y="456.0469"/><text fill="#000000" font-family="sans-serif" font-size="14" lengthAdjust="spacing" textLength="4" x="1732.5" y="470.5801">&#160;</text><text fill="#000000" font-family="sans-serif" font-size="14" lengthAdjust="spacing" textLength="59" x="1766.5" y="470.5801">CarePlan</text><rect fill="#9999FF" height="17.6094" style="stroke:none;stroke-width:1.0;" width="34" x="1732.5" y="473.6563"/><text fill="#000000" font-family="sans-serif" font-size="14" lengthAdjust="spacing" textLength="4" x="1732.5" y="488.1895">&#160;</text><text fill="#000000" font-family="sans-serif" font-size="14" lengthAdjust="spacing" textLength="66" x="1766.5" y="488.1895">Procedure</text><rect fill="#DDFFDD" height="17.6094" style="stroke:none;stroke-width:1.0;" width="34" x="1732.5" y="491.2656"/><text fill="#000000" font-family="sans-serif" font-size="14" lengthAdjust="spacing" textLength="4" x="1732.5" y="505.7988">&#160;</text><text fill="#000000" font-family="sans-serif" font-size="14" lengthAdjust="spacing" textLength="100" x="1766.5" y="505.7988">ServiceRequest</text><rect fill="#88FF88" height="17.6094" style="stroke:none;stroke-width:1.0;" width="34" x="1732.5" y="508.875"/><text fill="#000000" font-family="sans-serif" font-size="14" lengthAdjust="spacing" textLength="4" x="1732.5" y="523.4082">&#160;</text><text fill="#000000" font-family="sans-serif" font-size="14" lengthAdjust="spacing" textLength="109" x="1766.5" y="523.4082">DiagnosticReport</text><rect fill="#22FF22" height="17.6094" style="stroke:none;stroke-width:1.0;" width="34" x="1732.5" y="526.4844"/><text fill="#000000" font-family="sans-serif" font-size="14" lengthAdjust="spacing" textLength="4" x="1732.5" y="541.0176">&#160;</text><text fill="#000000" font-family="sans-serif" font-size="14" lengthAdjust="spacing" textLength="77" x="1766.5" y="541.0176">Observation</text><rect fill="#FFCCFF" height="17.6094" style="stroke:none;stroke-width:1.0;" width="34" x="1732.5" y="544.0938"/><text fill="#000000" font-family="sans-serif" font-size="14" lengthAdjust="spacing" textLength="4" x="1732.5" y="558.627">&#160;</text><text fill="#000000" font-family="sans-serif" font-size="14" lengthAdjust="spacing" textLength="68" x="1766.5" y="558.627">Medication</text><rect fill="#FF9999" height="17.6094" style="stroke:none;stroke-width:1.0;" width="34" x="1732.5" y="561.7031"/><text fill="#000000" font-family="sans-serif" font-size="14" lengthAdjust="spacing" textLength="4" x="1732.5" y="576.2363">&#160;</text><text fill="#000000" font-family="sans-serif" font-size="14" lengthAdjust="spacing" textLength="88" x="1766.5" y="576.2363">AdverseEvent</text><rect fill="#44FFFF" height="17.6094" style="stroke:none;stroke-width:1.0;" width="34" x="1732.5" y="579.3125"/><text fill="#000000" font-family="sans-serif" font-size="14" lengthAdjust="spacing" textLength="4" x="1732.5" y="593.8457">&#160;</text><text fill="#000000" font-family="sans-serif" font-size="14" lengthAdjust="spacing" textLength="62" x="1766.5" y="593.8457">Specimen</text><line style="stroke:#000000;stroke-width:1.0;" x1="1732.5" x2="1875.5" y1="420.8281" y2="420.8281"/><line style="stroke:#000000;stroke-width:1.0;" x1="1732.5" x2="1875.5" y1="438.4375" y2="438.4375"/><line style="stroke:#000000;stroke-width:1.0;" x1="1732.5" x2="1875.5" y1="456.0469" y2="456.0469"/><line style="stroke:#000000;stroke-width:1.0;" x1="1732.5" x2="1875.5" y1="473.6563" y2="473.6563"/><line style="stroke:#000000;stroke-width:1.0;" x1="1732.5" x2="1875.5" y1="491.2656" y2="491.2656"/><line style="stroke:#000000;stroke-width:1.0;" x1="1732.5" x2="1875.5" y1="508.875" y2="508.875"/><line style="stroke:#000000;stroke-width:1.0;" x1="1732.5" x2="1875.5" y1="526.4844" y2="526.4844"/><line style="stroke:#000000;stroke-width:1.0;" x1="1732.5" x2="1875.5" y1="544.0938" y2="544.0938"/><line style="stroke:#000000;stroke-width:1.0;" x1="1732.5" x2="1875.5" y1="561.7031" y2="561.7031"/><line style="stroke:#000000;stroke-width:1.0;" x1="1732.5" x2="1875.5" y1="579.3125" y2="579.3125"/><line style="stroke:#000000;stroke-width:1.0;" x1="1732.5" x2="1875.5" y1="596.9219" y2="596.9219"/><line style="stroke:#000000;stroke-width:1.0;" x1="1732.5" x2="1732.5" y1="420.8281" y2="596.9219"/><line style="stroke:#000000;stroke-width:1.0;" x1="1766.5" x2="1766.5" y1="420.8281" y2="596.9219"/><line style="stroke:#000000;stroke-width:1.0;" x1="1875.5" x2="1875.5" y1="420.8281" y2="596.9219"/><!--SRC=[hPDDZzem48Rl_XMME2Sg4QAij1jfIpRjeVjHeEULiGTmDx5JnwQYJV_xZlF11XQqRLLV0kzCPfvvnz7BRy0jdOqUxvSbc2spKYiwYA8qZI92Rbb1wPtvgYoOql6DXS-xlDWyAMrXdqP_4Ofd7Bwdr-edssJKrVaXRPD3UXNJNlrmop87NnnJLjfTyu_y9kI8uh8AXFwXWhC03T-T-G0hbcMWpi2Dmqa7jeJLtrATWGhEz2KTL0zv3bXIGTR7w_WytiMnR_w5CFW_xWN1cp2lV7mBUFZkmD1_mVqJMq-YDh3twaa_VZHCIBK-MFMOTkfL_8fYgWMmPOPFnQ6m8TS-qpzE8mK7VNgT4T4fGGUJIPfE9hKbGzgAE7uYsLhfqae-Wq8RtqZnp9LOrc-A4ht_x8vJkvhaLEm5gUtLGveNm6NkB_vebEAftHZIXSkrePzaQNMcrn84ioxtZ5q-ig7Pl3Qf_GaYOHOM6CKIKU_bu4Qg4fG0vV8Sp44PAVosLXBCViSlKnx3aRxcf-hcwaH2CbXZ9shaUcCfgQP8OAh5he2AL9S3NsGyZb5MGdhsMftYILDKcO67Z3NY1HulFXZDGJZJ54YID4sIk9hZlYM76NntKDewr2mWhexjhuFDLOkhtarfWPhMjo0axyk-VLnTYor-W72pHPFgGEC3zcy7hWXEsyoCL_mP]--></g></svg>