<?xml version="1.0" encoding="us-ascii" standalone="no"?><svg xmlns="http://www.w3.org/2000/svg" xmlns:xlink="http://www.w3.org/1999/xlink" contentStyleType="text/css" height="828px" preserveAspectRatio="none" style="width:2368px;height:828px;background:#FFFFFF;" version="1.1" viewBox="0 0 2368 828" width="2368px" zoomAndPan="magnify"><defs/><g><g id="elem_TNM_Klassifikation"><rect fill="#22FF22" height="86.4375" style="stroke:#181818;stroke-width:0.5;" width="368" x="1375.5" y="7"/><text fill="#000000" font-family="sans-serif" font-size="14" lengthAdjust="spacing" textLength="119" x="1500" y="23.5332">TNM_Klassifikation</text><line style="stroke:#181818;stroke-width:1.0;" x1="1375.5" x2="1743.5" y1="28.6094" y2="28.6094"/><text fill="#000000" font-family="sans-serif" font-size="14" lengthAdjust="spacing" textLength="98" x="1391" y="45.1426">8.1 TNM Datum</text><text fill="#000000" font-family="sans-serif" font-size="14" lengthAdjust="spacing" textLength="114" x="1509.5" y="45.1426">effectiveDateTime</text><line style="stroke:#181818;stroke-width:1.0;" x1="1504.5" x2="1504.5" y1="28.6094" y2="50.2188"/><line style="stroke:#181818;stroke-width:1.0;" x1="1375.5" x2="1743.5" y1="50.2188" y2="50.2188"/><text fill="#000000" font-family="sans-serif" font-size="14" lengthAdjust="spacing" textLength="105" x="1387.5" y="66.752">8.2 TNM Version</text><text fill="#000000" font-family="sans-serif" font-size="14" lengthAdjust="spacing" textLength="47" x="1509.5" y="66.752">method</text><line style="stroke:#181818;stroke-width:1.0;" x1="1504.5" x2="1504.5" y1="50.2188" y2="71.8281"/><line style="stroke:#181818;stroke-width:1.0;" x1="1375.5" x2="1743.5" y1="71.8281" y2="71.8281"/><text fill="#000000" font-family="sans-serif" font-size="14" lengthAdjust="spacing" textLength="119" x="1380.5" y="88.3613">8.17 UICC Stadium</text><text fill="#000000" font-family="sans-serif" font-size="14" lengthAdjust="spacing" textLength="229" x="1509.5" y="88.3613">valueCodeableConcept.coding.code</text><line style="stroke:#181818;stroke-width:1.0;" x1="1504.5" x2="1504.5" y1="71.8281" y2="93.4375"/></g><g id="elem_TNM_T"><rect fill="#22FF22" height="64.8281" style="stroke:#181818;stroke-width:0.5;" width="683" x="7" y="161"/><text fill="#000000" font-family="sans-serif" font-size="14" lengthAdjust="spacing" textLength="46" x="325.5" y="177.5332">TNM_T</text><line style="stroke:#181818;stroke-width:1.0;" x1="7" x2="690" y1="182.6094" y2="182.6094"/><text fill="#000000" font-family="sans-serif" font-size="14" lengthAdjust="spacing" textLength="129" x="13.5" y="199.1426">8.6 TNM c/p-Pr&#228;fix T</text><text fill="#000000" font-family="sans-serif" font-size="14" lengthAdjust="spacing" textLength="531" x="154" y="199.1426">code.extension[MII_EX_Onko_TNM_cp_Praefix].valueCodeableConcept.coding.code</text><line style="stroke:#181818;stroke-width:1.0;" x1="149" x2="149" y1="182.6094" y2="204.2188"/><line style="stroke:#181818;stroke-width:1.0;" x1="7" x2="690" y1="204.2188" y2="204.2188"/><text fill="#000000" font-family="sans-serif" font-size="14" lengthAdjust="spacing" textLength="132" x="12" y="220.752">8.9 TNM T-Kategorie</text><text fill="#000000" font-family="sans-serif" font-size="14" lengthAdjust="spacing" textLength="229" x="154" y="220.752">valueCodeableConcept.coding.code</text><line style="stroke:#181818;stroke-width:1.0;" x1="149" x2="149" y1="204.2188" y2="225.8281"/></g><g id="elem_TNM_N"><rect fill="#22FF22" height="64.8281" style="stroke:#181818;stroke-width:0.5;" width="691" x="238" y="293"/><text fill="#000000" font-family="sans-serif" font-size="14" lengthAdjust="spacing" textLength="46" x="560.5" y="309.5332">TNM_N</text><line style="stroke:#181818;stroke-width:1.0;" x1="238" x2="929" y1="314.6094" y2="314.6094"/><text fill="#000000" font-family="sans-serif" font-size="14" lengthAdjust="spacing" textLength="129" x="248.5" y="331.1426">8.7 TNM c/p-Pr&#228;fix N</text><text fill="#000000" font-family="sans-serif" font-size="14" lengthAdjust="spacing" textLength="531" x="393" y="331.1426">code.extension[MII_EX_Onko_TNM_cp_Praefix].valueCodeableConcept.coding.code</text><line style="stroke:#181818;stroke-width:1.0;" x1="388" x2="388" y1="314.6094" y2="336.2188"/><line style="stroke:#181818;stroke-width:1.0;" x1="238" x2="929" y1="336.2188" y2="336.2188"/><text fill="#000000" font-family="sans-serif" font-size="14" lengthAdjust="spacing" textLength="140" x="243" y="352.752">8.11 TNM N-Kategorie</text><text fill="#000000" font-family="sans-serif" font-size="14" lengthAdjust="spacing" textLength="229" x="393" y="352.752">valueCodeableConcept.coding.code</text><line style="stroke:#181818;stroke-width:1.0;" x1="388" x2="388" y1="336.2188" y2="357.8281"/></g><g id="elem_TNM_M"><rect fill="#22FF22" height="64.8281" style="stroke:#181818;stroke-width:0.5;" width="693" x="437" y="425"/><text fill="#000000" font-family="sans-serif" font-size="14" lengthAdjust="spacing" textLength="48" x="759.5" y="441.5332">TNM_M</text><line style="stroke:#181818;stroke-width:1.0;" x1="437" x2="1130" y1="446.6094" y2="446.6094"/><text fill="#000000" font-family="sans-serif" font-size="14" lengthAdjust="spacing" textLength="131" x="447.5" y="463.1426">8.8 TNM c/p-Pr&#228;fix M</text><text fill="#000000" font-family="sans-serif" font-size="14" lengthAdjust="spacing" textLength="531" x="594" y="463.1426">code.extension[MII_EX_Onko_TNM_cp_Praefix].valueCodeableConcept.coding.code</text><line style="stroke:#181818;stroke-width:1.0;" x1="589" x2="589" y1="446.6094" y2="468.2188"/><line style="stroke:#181818;stroke-width:1.0;" x1="437" x2="1130" y1="468.2188" y2="468.2188"/><text fill="#000000" font-family="sans-serif" font-size="14" lengthAdjust="spacing" textLength="142" x="442" y="484.752">8.12 TNM M-Kategorie</text><text fill="#000000" font-family="sans-serif" font-size="14" lengthAdjust="spacing" textLength="229" x="594" y="484.752">valueCodeableConcept.coding.code</text><line style="stroke:#181818;stroke-width:1.0;" x1="589" x2="589" y1="468.2188" y2="489.8281"/></g><g id="elem_TNM_m"><rect fill="#22FF22" height="43.2188" style="stroke:#181818;stroke-width:0.5;" width="376" x="1051.5" y="171.5"/><text fill="#000000" font-family="sans-serif" font-size="14" lengthAdjust="spacing" textLength="48" x="1215.5" y="188.0332">TNM_m</text><line style="stroke:#181818;stroke-width:1.0;" x1="1051.5" x2="1427.5" y1="193.1094" y2="193.1094"/><text fill="#000000" font-family="sans-serif" font-size="14" lengthAdjust="spacing" textLength="127" x="1056.5" y="209.6426">8.10 TNM m-Symbol</text><text fill="#000000" font-family="sans-serif" font-size="14" lengthAdjust="spacing" textLength="229" x="1193.5" y="209.6426">valueCodeableConcept.coding.code</text><line style="stroke:#181818;stroke-width:1.0;" x1="1188.5" x2="1188.5" y1="193.1094" y2="214.7188"/></g><g id="elem_TNM_a"><rect fill="#22FF22" height="43.2188" style="stroke:#181818;stroke-width:0.5;" width="365" x="1133" y="303.5"/><text fill="#000000" font-family="sans-serif" font-size="14" lengthAdjust="spacing" textLength="45" x="1293" y="320.0332">TNM_a</text><line style="stroke:#181818;stroke-width:1.0;" x1="1133" x2="1498" y1="325.1094" y2="325.1094"/><text fill="#000000" font-family="sans-serif" font-size="14" lengthAdjust="spacing" textLength="116" x="1138" y="341.6426">8.5 TNM a-Symbol</text><text fill="#000000" font-family="sans-serif" font-size="14" lengthAdjust="spacing" textLength="229" x="1264" y="341.6426">valueCodeableConcept.coding.code</text><line style="stroke:#181818;stroke-width:1.0;" x1="1259" x2="1259" y1="325.1094" y2="346.7188"/></g><g id="elem_TNM_L"><rect fill="#22FF22" height="43.2188" style="stroke:#181818;stroke-width:0.5;" width="388" x="1181.5" y="435.5"/><text fill="#000000" font-family="sans-serif" font-size="14" lengthAdjust="spacing" textLength="45" x="1353" y="452.0332">TNM_L</text><line style="stroke:#181818;stroke-width:1.0;" x1="1181.5" x2="1569.5" y1="457.1094" y2="457.1094"/><text fill="#000000" font-family="sans-serif" font-size="14" lengthAdjust="spacing" textLength="139" x="1186.5" y="473.6426">8.13 TNM L-Kategorie</text><text fill="#000000" font-family="sans-serif" font-size="14" lengthAdjust="spacing" textLength="229" x="1335.5" y="473.6426">valueCodeableConcept.coding.code</text><line style="stroke:#181818;stroke-width:1.0;" x1="1330.5" x2="1330.5" y1="457.1094" y2="478.7188"/></g><g id="elem_TNM_Pn"><rect fill="#22FF22" height="43.2188" style="stroke:#181818;stroke-width:0.5;" width="397" x="1252" y="557"/><text fill="#000000" font-family="sans-serif" font-size="14" lengthAdjust="spacing" textLength="54" x="1423.5" y="573.5332">TNM_Pn</text><line style="stroke:#181818;stroke-width:1.0;" x1="1252" x2="1649" y1="578.6094" y2="578.6094"/><text fill="#000000" font-family="sans-serif" font-size="14" lengthAdjust="spacing" textLength="148" x="1257" y="595.1426">8.15 TNM Pn-Kategorie</text><text fill="#000000" font-family="sans-serif" font-size="14" lengthAdjust="spacing" textLength="229" x="1415" y="595.1426">valueCodeableConcept.coding.code</text><line style="stroke:#181818;stroke-width:1.0;" x1="1410" x2="1410" y1="578.6094" y2="600.2188"/></g><g id="elem_TNM_r"><rect fill="#22FF22" height="43.2188" style="stroke:#181818;stroke-width:0.5;" width="362" x="1700.5" y="557"/><text fill="#000000" font-family="sans-serif" font-size="14" lengthAdjust="spacing" textLength="42" x="1860.5" y="573.5332">TNM_r</text><line style="stroke:#181818;stroke-width:1.0;" x1="1700.5" x2="2062.5" y1="578.6094" y2="578.6094"/><text fill="#000000" font-family="sans-serif" font-size="14" lengthAdjust="spacing" textLength="113" x="1705.5" y="595.1426">8.4 TNM r-Symbol</text><text fill="#000000" font-family="sans-serif" font-size="14" lengthAdjust="spacing" textLength="229" x="1828.5" y="595.1426">valueCodeableConcept.coding.code</text><line style="stroke:#181818;stroke-width:1.0;" x1="1823.5" x2="1823.5" y1="578.6094" y2="600.2188"/></g><g id="elem_TNM_S"><rect fill="#22FF22" height="43.2188" style="stroke:#181818;stroke-width:0.5;" width="389" x="1763" y="435.5"/><text fill="#000000" font-family="sans-serif" font-size="14" lengthAdjust="spacing" textLength="46" x="1934.5" y="452.0332">TNM_S</text><line style="stroke:#181818;stroke-width:1.0;" x1="1763" x2="2152" y1="457.1094" y2="457.1094"/><text fill="#000000" font-family="sans-serif" font-size="14" lengthAdjust="spacing" textLength="140" x="1768" y="473.6426">8.16 TNM S-Kategorie</text><text fill="#000000" font-family="sans-serif" font-size="14" lengthAdjust="spacing" textLength="229" x="1918" y="473.6426">valueCodeableConcept.coding.code</text><line style="stroke:#181818;stroke-width:1.0;" x1="1913" x2="1913" y1="457.1094" y2="478.7188"/></g><g id="elem_TNM_V"><rect fill="#22FF22" height="43.2188" style="stroke:#181818;stroke-width:0.5;" width="389" x="1834" y="303.5"/><text fill="#000000" font-family="sans-serif" font-size="14" lengthAdjust="spacing" textLength="46" x="2005.5" y="320.0332">TNM_V</text><line style="stroke:#181818;stroke-width:1.0;" x1="1834" x2="2223" y1="325.1094" y2="325.1094"/><text fill="#000000" font-family="sans-serif" font-size="14" lengthAdjust="spacing" textLength="140" x="1839" y="341.6426">8.14 TNM V-Kategorie</text><text fill="#000000" font-family="sans-serif" font-size="14" lengthAdjust="spacing" textLength="229" x="1989" y="341.6426">valueCodeableConcept.coding.code</text><line style="stroke:#181818;stroke-width:1.0;" x1="1984" x2="1984" y1="325.1094" y2="346.7188"/></g><g id="elem_TNM_y"><rect fill="#22FF22" height="43.2188" style="stroke:#181818;stroke-width:0.5;" width="364" x="1997.5" y="171.5"/><text fill="#000000" font-family="sans-serif" font-size="14" lengthAdjust="spacing" textLength="44" x="2157.5" y="188.0332">TNM_y</text><line style="stroke:#181818;stroke-width:1.0;" x1="1997.5" x2="2361.5" y1="193.1094" y2="193.1094"/><text fill="#000000" font-family="sans-serif" font-size="14" lengthAdjust="spacing" textLength="115" x="2002.5" y="209.6426">8.3 TNM y-Symbol</text><text fill="#000000" font-family="sans-serif" font-size="14" lengthAdjust="spacing" textLength="229" x="2127.5" y="209.6426">valueCodeableConcept.coding.code</text><line style="stroke:#181818;stroke-width:1.0;" x1="2122.5" x2="2122.5" y1="193.1094" y2="214.7188"/></g><!--reverse link TNM_Klassifikation to TNM_T--><g id="link_TNM_Klassifikation_TNM_T"><path codeLine="12" d="M1355.3605,74.7679 C1162.3005,97.2479 873.96,130.82 649.34,156.97 " fill="none" id="TNM_Klassifikation-backto-TNM_T" style="stroke:#181818;stroke-width:1.0;"/><polygon fill="none" points="1367.28,73.38,1360.8576,70.1008,1355.3605,74.7679,1361.7829,78.0471,1367.28,73.38" style="stroke:#181818;stroke-width:1.0;"/></g><!--reverse link TNM_Klassifikation to TNM_N--><g id="link_TNM_Klassifikation_TNM_N"><path codeLine="17" d="M1355.3281,75.1693 C1237.4481,91.8293 1096.28,117 964.5,157 C850.3,191.66 724.78,251.16 650.14,288.99 " fill="none" id="TNM_Klassifikation-backto-TNM_N" style="stroke:#181818;stroke-width:1.0;"/><polygon fill="none" points="1367.21,73.49,1360.7093,70.369,1355.3281,75.1693,1361.8288,78.2903,1367.21,73.49" style="stroke:#181818;stroke-width:1.0;"/></g><!--reverse link TNM_Klassifikation to TNM_M--><g id="link_TNM_Klassifikation_TNM_M"><path codeLine="22" d="M1355.3778,70.4587 C1223.8178,86.4587 1076.27,112.84 1025.5,157 C953.07,220.01 1016.3,287.53 954.5,361 C933.19,386.34 903.3,406.16 874.47,420.99 " fill="none" id="TNM_Klassifikation-backto-TNM_M" style="stroke:#181818;stroke-width:1.0;"/><polygon fill="none" points="1367.29,69.01,1360.851,65.7636,1355.3778,70.4587,1361.8168,73.7051,1367.29,69.01" style="stroke:#181818;stroke-width:1.0;"/></g><!--reverse link TNM_Klassifikation to TNM_m--><g id="link_TNM_Klassifikation_TNM_m"><path codeLine="26" d="M1443.7387,102.0085 C1390.6987,125.3785 1339.41,147.98 1295.53,167.31 " fill="none" id="TNM_Klassifikation-backto-TNM_m" style="stroke:#181818;stroke-width:1.0;"/><polygon fill="none" points="1454.72,97.17,1447.6165,95.9288,1443.7387,102.0085,1450.8422,103.2497,1454.72,97.17" style="stroke:#181818;stroke-width:1.0;"/></g><!--reverse link TNM_Klassifikation to TNM_a--><g id="link_TNM_Klassifikation_TNM_a"><path codeLine="30" d="M1533.1855,108.1239 C1514.3555,146.3339 1489.36,189.66 1452.5,229 C1425.88,257.41 1389.42,282.19 1360.8,299.31 " fill="none" id="TNM_Klassifikation-backto-TNM_a" style="stroke:#181818;stroke-width:1.0;"/><polygon fill="none" points="1538.49,97.36,1532.2498,100.9738,1533.1855,108.1239,1539.4257,104.5101,1538.49,97.36" style="stroke:#181818;stroke-width:1.0;"/></g><!--reverse link TNM_Klassifikation to TNM_L--><g id="link_TNM_Klassifikation_TNM_L"><path codeLine="34" d="M1566.899,108.9529 C1573.189,173.2129 1574.56,279.18 1523.5,361 C1503.7,392.73 1468.96,415.85 1438.11,431.33 " fill="none" id="TNM_Klassifikation-backto-TNM_L" style="stroke:#181818;stroke-width:1.0;"/><polygon fill="none" points="1565.73,97.01,1562.3335,103.3711,1566.899,108.9529,1570.2955,102.5918,1565.73,97.01" style="stroke:#181818;stroke-width:1.0;"/></g><!--reverse link TNM_Klassifikation to TNM_Pn--><g id="link_TNM_Klassifikation_TNM_Pn"><path codeLine="38" d="M1583.4689,108.1981 C1616.3089,192.8781 1667.66,365.25 1594.5,493 C1578.87,520.29 1550.62,539.63 1523.26,552.85 " fill="none" id="TNM_Klassifikation-backto-TNM_Pn" style="stroke:#181818;stroke-width:1.0;"/><polygon fill="none" points="1579.13,97.01,1577.5701,104.0504,1583.4689,108.1981,1585.0288,101.1578,1579.13,97.01" style="stroke:#181818;stroke-width:1.0;"/></g><!--reverse link TNM_Klassifikation to TNM_r--><g id="link_TNM_Klassifikation_TNM_r"><path codeLine="42" d="M1604.8188,106.7884 C1618.1888,124.6584 1625.23,136.19 1635.5,157 C1704.56,296.95 1640.9,370.43 1737.5,493 C1758.22,519.3 1789.56,539.06 1817.71,552.84 " fill="none" id="TNM_Klassifikation-backto-TNM_r" style="stroke:#181818;stroke-width:1.0;"/><polygon fill="none" points="1597.63,97.18,1598.0216,104.3805,1604.8188,106.7884,1604.4272,99.5879,1597.63,97.18" style="stroke:#181818;stroke-width:1.0;"/></g><!--reverse link TNM_Klassifikation to TNM_S--><g id="link_TNM_Klassifikation_TNM_S"><path codeLine="46" d="M1665.4438,103.359 C1691.5338,119.449 1707.78,133.25 1727.5,157 C1789.82,232.05 1746.36,285.8 1808.5,361 C1833.61,391.39 1871.05,415.21 1902.12,431.39 " fill="none" id="TNM_Klassifikation-backto-TNM_S" style="stroke:#181818;stroke-width:1.0;"/><polygon fill="none" points="1655.23,97.06,1658.2373,103.6141,1665.4438,103.359,1662.4366,96.8049,1655.23,97.06" style="stroke:#181818;stroke-width:1.0;"/></g><!--reverse link TNM_Klassifikation to TNM_V--><g id="link_TNM_Klassifikation_TNM_V"><path codeLine="50" d="M1687.5156,101.7999 C1727.1356,118.9199 1760.06,134.85 1798.5,157 C1874.82,200.98 1956.53,264.82 1999.01,299.44 " fill="none" id="TNM_Klassifikation-backto-TNM_V" style="stroke:#181818;stroke-width:1.0;"/><polygon fill="none" points="1676.5,97.04,1680.4212,103.0918,1687.5156,101.7999,1683.5944,95.7481,1676.5,97.04" style="stroke:#181818;stroke-width:1.0;"/></g><!--reverse link TNM_Klassifikation to TNM_y--><g id="link_TNM_Klassifikation_TNM_y"><path codeLine="54" d="M1763.5511,97.4018 C1868.7911,121.3418 1983.58,147.44 2071.58,167.46 " fill="none" id="TNM_Klassifikation-backto-TNM_y" style="stroke:#181818;stroke-width:1.0;"/><polygon fill="none" points="1751.85,94.74,1756.8133,99.9712,1763.5511,97.4018,1758.5878,92.1705,1751.85,94.74" style="stroke:#181818;stroke-width:1.0;"/></g><rect fill="#DDDDDD" height="190.0938" id="_legend" rx="7.5" ry="7.5" style="stroke:#000000;stroke-width:1.0;" width="153" x="2189.5" y="618.2188"/><text fill="#000000" font-family="sans-serif" font-size="14" lengthAdjust="spacing" textLength="34" x="2194.5" y="639.752">Color</text><text fill="#000000" font-family="sans-serif" font-size="14" lengthAdjust="spacing" textLength="32" x="2228.5" y="639.752">Type</text><rect fill="#FFFF66" height="17.6094" style="stroke:none;stroke-width:1.0;" width="34" x="2194.5" y="642.8281"/><text fill="#000000" font-family="sans-serif" font-size="14" lengthAdjust="spacing" textLength="4" x="2194.5" y="657.3613">&#160;</text><text fill="#000000" font-family="sans-serif" font-size="14" lengthAdjust="spacing" textLength="60" x="2228.5" y="657.3613">Condition</text><rect fill="#CCCCFF" height="17.6094" style="stroke:none;stroke-width:1.0;" width="34" x="2194.5" y="660.4375"/><text fill="#000000" font-family="sans-serif" font-size="14" lengthAdjust="spacing" textLength="4" x="2194.5" y="674.9707">&#160;</text><text fill="#000000" font-family="sans-serif" font-size="14" lengthAdjust="spacing" textLength="59" x="2228.5" y="674.9707">CarePlan</text><rect fill="#9999FF" height="17.6094" style="stroke:none;stroke-width:1.0;" width="34" x="2194.5" y="678.0469"/><text fill="#000000" font-family="sans-serif" font-size="14" lengthAdjust="spacing" textLength="4" x="2194.5" y="692.5801">&#160;</text><text fill="#000000" font-family="sans-serif" font-size="14" lengthAdjust="spacing" textLength="66" x="2228.5" y="692.5801">Procedure</text><rect fill="#DDFFDD" height="17.6094" style="stroke:none;stroke-width:1.0;" width="34" x="2194.5" y="695.6563"/><text fill="#000000" font-family="sans-serif" font-size="14" lengthAdjust="spacing" textLength="4" x="2194.5" y="710.1895">&#160;</text><text fill="#000000" font-family="sans-serif" font-size="14" lengthAdjust="spacing" textLength="100" x="2228.5" y="710.1895">ServiceRequest</text><rect fill="#88FF88" height="17.6094" style="stroke:none;stroke-width:1.0;" width="34" x="2194.5" y="713.2656"/><text fill="#000000" font-family="sans-serif" font-size="14" lengthAdjust="spacing" textLength="4" x="2194.5" y="727.7988">&#160;</text><text fill="#000000" font-family="sans-serif" font-size="14" lengthAdjust="spacing" textLength="109" x="2228.5" y="727.7988">DiagnosticReport</text><rect fill="#22FF22" height="17.6094" style="stroke:none;stroke-width:1.0;" width="34" x="2194.5" y="730.875"/><text fill="#000000" font-family="sans-serif" font-size="14" lengthAdjust="spacing" textLength="4" x="2194.5" y="745.4082">&#160;</text><text fill="#000000" font-family="sans-serif" font-size="14" lengthAdjust="spacing" textLength="77" x="2228.5" y="745.4082">Observation</text><rect fill="#FFCCFF" height="17.6094" style="stroke:none;stroke-width:1.0;" width="34" x="2194.5" y="748.4844"/><text fill="#000000" font-family="sans-serif" font-size="14" lengthAdjust="spacing" textLength="4" x="2194.5" y="763.0176">&#160;</text><text fill="#000000" font-family="sans-serif" font-size="14" lengthAdjust="spacing" textLength="68" x="2228.5" y="763.0176">Medication</text><rect fill="#FF9999" height="17.6094" style="stroke:none;stroke-width:1.0;" width="34" x="2194.5" y="766.0938"/><text fill="#000000" font-family="sans-serif" font-size="14" lengthAdjust="spacing" textLength="4" x="2194.5" y="780.627">&#160;</text><text fill="#000000" font-family="sans-serif" font-size="14" lengthAdjust="spacing" textLength="88" x="2228.5" y="780.627">AdverseEvent</text><rect fill="#44FFFF" height="17.6094" style="stroke:none;stroke-width:1.0;" width="34" x="2194.5" y="783.7031"/><text fill="#000000" font-family="sans-serif" font-size="14" lengthAdjust="spacing" textLength="4" x="2194.5" y="798.2363">&#160;</text><text fill="#000000" font-family="sans-serif" font-size="14" lengthAdjust="spacing" textLength="62" x="2228.5" y="798.2363">Specimen</text><line style="stroke:#000000;stroke-width:1.0;" x1="2194.5" x2="2337.5" y1="625.2188" y2="625.2188"/><line style="stroke:#000000;stroke-width:1.0;" x1="2194.5" x2="2337.5" y1="642.8281" y2="642.8281"/><line style="stroke:#000000;stroke-width:1.0;" x1="2194.5" x2="2337.5" y1="660.4375" y2="660.4375"/><line style="stroke:#000000;stroke-width:1.0;" x1="2194.5" x2="2337.5" y1="678.0469" y2="678.0469"/><line style="stroke:#000000;stroke-width:1.0;" x1="2194.5" x2="2337.5" y1="695.6563" y2="695.6563"/><line style="stroke:#000000;stroke-width:1.0;" x1="2194.5" x2="2337.5" y1="713.2656" y2="713.2656"/><line style="stroke:#000000;stroke-width:1.0;" x1="2194.5" x2="2337.5" y1="730.875" y2="730.875"/><line style="stroke:#000000;stroke-width:1.0;" x1="2194.5" x2="2337.5" y1="748.4844" y2="748.4844"/><line style="stroke:#000000;stroke-width:1.0;" x1="2194.5" x2="2337.5" y1="766.0938" y2="766.0938"/><line style="stroke:#000000;stroke-width:1.0;" x1="2194.5" x2="2337.5" y1="783.7031" y2="783.7031"/><line style="stroke:#000000;stroke-width:1.0;" x1="2194.5" x2="2337.5" y1="801.3125" y2="801.3125"/><line style="stroke:#000000;stroke-width:1.0;" x1="2194.5" x2="2194.5" y1="625.2188" y2="801.3125"/><line style="stroke:#000000;stroke-width:1.0;" x1="2228.5" x2="2228.5" y1="625.2188" y2="801.3125"/><line style="stroke:#000000;stroke-width:1.0;" x1="2337.5" x2="2337.5" y1="625.2188" y2="801.3125"/><!--SRC=[jPNXQjim483_woa4_UrioRBKXTKmuWf2uzJKNXYCOHJxaehQaYSxeM7ks-nDzcAJh4mCkwpTSFN7S3hTTzzPYGDQudWL9DSvhIgsPVUqPeBZiyc4aCa4VqSOkwEnJi4-hVS5nfSUXkqMqfeTG8KWPWNWDctIfgr1Lhh4fLT0VISoipS-nvyMypcEQfenLKPLET1y3tEH0TtawibJAEjHAZB6T_e1w56Tn2WuTHZ_Rahtf4lEMbpwfdH2-VF7bZtWM9VLHqVmK0FNRNm95elawdDom-z5eikaPH9A2Yhzw-ZP3WpeeWN5phMotGd9u4NTgwEF23qnM-4uHiYghRfgvpsrrUkeZSshNVsFszDgncrbtOAkczjp2rx9pTp7O40t8nTOkQ8hDtxRCWidEXORaR_mcl_baXIMHRkizosA3e4oB6fPovxNknQs_CTPFZF8fGM6l4SqUY4V3EcSI1OgkynfYvI3JFI4avOMzGpD7rWqx4mZ2rptWCPlFHJGK2plsEMPEtCSxBTmH2Y77V0CIxQxgp5gvY8NiecF9JIe-N16r9hDF1Nc6TD7s-XSBK9Kb4e8Ssg25shfO2X52jbUcWA-JuZlUqq4yi1Ik8LlUwZgTijr2N5Th_4PtN5HrIozXL98iscylUPcKwcJrA89CUW0CfR-6TPuh_cO7TJ74guEm4sTwLGhA7u9gVgigcnbQvmH-WK0]--></g></svg>