<?xml version="1.0" encoding="us-ascii" standalone="no"?><svg xmlns="http://www.w3.org/2000/svg" xmlns:xlink="http://www.w3.org/1999/xlink" contentStyleType="text/css" height="798px" preserveAspectRatio="none" style="width:1277px;height:798px;background:#FFFFFF;" version="1.1" viewBox="0 0 1277 798" width="1277px" zoomAndPan="magnify"><defs/><g><g id="elem_R4_Observation"><rect fill="#22FF22" height="37.6094" style="stroke:#181818;stroke-width:0.5;" width="117" x="680.5" y="7"/><text fill="#000000" font-family="sans-serif" font-size="14" lengthAdjust="spacing" textLength="103" x="687.5" y="23.5332">R4_Observation</text><line style="stroke:#181818;stroke-width:0.5;" x1="681.5" x2="796.5" y1="28.6094" y2="28.6094"/></g><g id="elem_09_WeitereKlassifikation"><rect fill="#22FF22" height="86.4375" style="stroke:#181818;stroke-width:0.5;" width="636" x="7" y="109"/><text fill="#000000" font-family="sans-serif" font-size="14" lengthAdjust="spacing" textLength="155" x="247.5" y="125.5332">09_WeitereKlassifikation</text><line style="stroke:#181818;stroke-width:1.0;" x1="7" x2="643" y1="130.6094" y2="130.6094"/><text fill="#000000" font-family="sans-serif" font-size="14" lengthAdjust="spacing" textLength="395" x="25" y="147.1426">09.1 H&#228;matoonkologische und sonstige Klassifikationen Datum</text><text fill="#000000" font-family="sans-serif" font-size="14" lengthAdjust="spacing" textLength="195" x="443" y="147.1426">Observation.effectiveDateTime</text><line style="stroke:#181818;stroke-width:1.0;" x1="438" x2="438" y1="130.6094" y2="152.2188"/><line style="stroke:#181818;stroke-width:1.0;" x1="7" x2="643" y1="152.2188" y2="152.2188"/><text fill="#000000" font-family="sans-serif" font-size="14" lengthAdjust="spacing" textLength="390" x="27.5" y="168.752">09.2 H&#228;matoonkologische und sonstige Klassifikationen Name</text><text fill="#000000" font-family="sans-serif" font-size="14" lengthAdjust="spacing" textLength="138" x="443" y="168.752">Observation.code.text</text><line style="stroke:#181818;stroke-width:1.0;" x1="438" x2="438" y1="152.2188" y2="173.8281"/><line style="stroke:#181818;stroke-width:1.0;" x1="7" x2="643" y1="173.8281" y2="173.8281"/><text fill="#000000" font-family="sans-serif" font-size="14" lengthAdjust="spacing" textLength="421" x="12" y="190.3613">09.3 H&#228;matoonkologische und sonstige Klassifikationen Einstufung</text><text fill="#000000" font-family="sans-serif" font-size="14" lengthAdjust="spacing" textLength="129" x="443" y="190.3613">Observation.value[x]</text><line style="stroke:#181818;stroke-width:1.0;" x1="438" x2="438" y1="173.8281" y2="195.4375"/></g><g id="elem_13_MII_Onko_Operation"><rect fill="#9999FF" height="37.6094" style="stroke:#181818;stroke-width:0.5;" width="168" x="313" y="408"/><text fill="#000000" font-family="sans-serif" font-size="14" lengthAdjust="spacing" textLength="154" x="320" y="424.5332">13_MII_Onko_Operation</text><line style="stroke:#181818;stroke-width:0.5;" x1="314" x2="480" y1="429.6094" y2="429.6094"/></g><g id="elem_GMN6"><path d="M166.5,535.5 L166.5,561.8516 A0,0 0 0 0 166.5,561.8516 L627.5,561.8516 A0,0 0 0 0 627.5,561.8516 L627.5,545.5 L617.5,535.5 L401,535.5 L397,446.15 L393,535.5 L166.5,535.5 A0,0 0 0 0 166.5,535.5 " fill="#FEFFDD" style="stroke:#181818;stroke-width:0.5;"/><path d="M617.5,535.5 L617.5,545.5 L627.5,545.5 L617.5,535.5 " fill="#FEFFDD" style="stroke:#181818;stroke-width:0.5;"/><text fill="#000000" font-family="sans-serif" font-size="13" lengthAdjust="spacing" textLength="440" x="172.5" y="553.9951">Lokaler Residualstatus wird &#252;ber Procedure.outcome einer Operation erfasst</text></g><g id="elem_10_Residualstatus"><rect fill="#22FF22" height="64.8281" style="stroke:#181818;stroke-width:0.5;" width="572" x="127" y="263"/><text fill="#000000" font-family="sans-serif" font-size="14" lengthAdjust="spacing" textLength="117" x="354.5" y="279.5332">10_Residualstatus</text><line style="stroke:#181818;stroke-width:1.0;" x1="127" x2="699" y1="284.6094" y2="284.6094"/><text fill="#000000" font-family="sans-serif" font-size="14" lengthAdjust="spacing" textLength="323" x="251.5" y="301.1426">10.1 lokaler Residualstatus nach Abschluss der OP</text><line style="stroke:#181818;stroke-width:1.0;" x1="127" x2="699" y1="306.2188" y2="306.2188"/><text fill="#000000" font-family="sans-serif" font-size="14" lengthAdjust="spacing" textLength="276" x="155.5" y="322.752">10.2 Gesamtbeurteilung des Residualstatus</text><text fill="#000000" font-family="sans-serif" font-size="14" lengthAdjust="spacing" textLength="229" x="465" y="322.752">valueCodeableConcept.coding.code</text><line style="stroke:#181818;stroke-width:1.0;" x1="460" x2="460" y1="306.2188" y2="327.8281"/></g><g id="elem_11_Fernmetastasen"><rect fill="#22FF22" height="64.8281" style="stroke:#181818;stroke-width:0.5;" width="502" x="524" y="395"/><text fill="#000000" font-family="sans-serif" font-size="14" lengthAdjust="spacing" textLength="127" x="711.5" y="411.5332">11_Fernmetastasen</text><line style="stroke:#181818;stroke-width:1.0;" x1="524" x2="1026" y1="416.6094" y2="416.6094"/><text fill="#000000" font-family="sans-serif" font-size="14" lengthAdjust="spacing" textLength="251" x="536" y="433.1426">11.1 Lokalisation von Fernmetastase(n)</text><text fill="#000000" font-family="sans-serif" font-size="14" lengthAdjust="spacing" textLength="217" x="804" y="433.1426">Observation.bodySite.coding.code</text><line style="stroke:#181818;stroke-width:1.0;" x1="799" x2="799" y1="416.6094" y2="438.2188"/><line style="stroke:#181818;stroke-width:1.0;" x1="524" x2="1026" y1="438.2188" y2="438.2188"/><text fill="#000000" font-family="sans-serif" font-size="14" lengthAdjust="spacing" textLength="265" x="529" y="454.752">11.2 Datum der diagnostischen Sicherung</text><text fill="#000000" font-family="sans-serif" font-size="14" lengthAdjust="spacing" textLength="195" x="804" y="454.752">Observation.effectiveDateTime</text><line style="stroke:#181818;stroke-width:1.0;" x1="799" x2="799" y1="438.2188" y2="459.8281"/></g><g id="elem_12_ECOGStatus"><rect fill="#22FF22" height="43.2188" style="stroke:#181818;stroke-width:0.5;" width="366" x="904" y="527"/><text fill="#000000" font-family="sans-serif" font-size="14" lengthAdjust="spacing" textLength="105" x="1034.5" y="543.5332">12_ECOGStatus</text><line style="stroke:#181818;stroke-width:1.0;" x1="904" x2="1270" y1="548.6094" y2="548.6094"/><text fill="#000000" font-family="sans-serif" font-size="14" lengthAdjust="spacing" textLength="117" x="909" y="565.1426">12. 1ECOG Status</text><text fill="#000000" font-family="sans-serif" font-size="14" lengthAdjust="spacing" textLength="229" x="1036" y="565.1426">Observation.valueCodeableConcept</text><line style="stroke:#181818;stroke-width:1.0;" x1="1031" x2="1031" y1="548.6094" y2="570.2188"/></g><!--reverse link R4_Observation to 09_WeitereKlassifikation--><g id="link_R4_Observation_09_WeitereKlassifikation"><path codeLine="7" d="M662.8769,49.7947 C610.5269,65.4747 548.88,83.94 478.74,104.95 " fill="none" id="R4_Observation-backto-09_WeitereKlassifikation" style="stroke:#181818;stroke-width:1.0;"/><polygon fill="none" points="680.12,44.63,661.1553,44.047,664.5984,55.5424,680.12,44.63" style="stroke:#181818;stroke-width:1.0;"/></g><!--link 10_Residualstatus to 13_MII_Onko_Operation--><g id="link_10_Residualstatus_13_MII_Onko_Operation"><path d="M126,294 C109.55,294 117.31,317.71 127,331 C169.51,389.33 244.7583,411.2154 307.0483,419.9654 " fill="none" id="10_Residualstatus-to-13_MII_Onko_Operation" style="stroke:#181818;stroke-width:1.0;"/><polygon fill="#181818" points="312.99,420.8,304.6339,415.5869,308.0386,420.1045,303.5211,423.5092,312.99,420.8" style="stroke:#181818;stroke-width:1.0;"/></g><!--reverse link R4_Observation to 10_Residualstatus--><g id="link_R4_Observation_10_Residualstatus"><path codeLine="19" d="M733.3304,62.9915 C727.3904,97.6615 712.85,155.69 668,199 C640.39,225.67 604.62,244.97 568.65,258.91 " fill="none" id="R4_Observation-backto-10_Residualstatus" style="stroke:#181818;stroke-width:1.0;"/><polygon fill="none" points="736.37,45.25,727.4165,61.9783,739.2442,64.0047,736.37,45.25" style="stroke:#181818;stroke-width:1.0;"/></g><!--reverse link R4_Observation to 11_Fernmetastasen--><g id="link_R4_Observation_11_Fernmetastasen"><path codeLine="26" d="M742.2563,63.1073 C747.8163,124.7773 764.42,308.77 771.83,390.84 " fill="none" id="R4_Observation-backto-11_Fernmetastasen" style="stroke:#181818;stroke-width:1.0;"/><polygon fill="none" points="740.64,45.18,736.2805,63.646,748.232,62.5685,740.64,45.18" style="stroke:#181818;stroke-width:1.0;"/></g><!--reverse link R4_Observation to 12_ECOGStatus--><g id="link_R4_Observation_12_ECOGStatus"><path codeLine="33" d="M774.5849,57.0262 C832.1549,106.3862 974.81,237.18 1052,391 C1073.73,434.3 1082.09,491.04 1085.22,522.94 " fill="none" id="R4_Observation-backto-12_ECOGStatus" style="stroke:#181818;stroke-width:1.0;"/><polygon fill="none" points="760.92,45.31,770.6795,61.5812,778.4903,52.4712,760.92,45.31" style="stroke:#181818;stroke-width:1.0;"/></g><rect fill="#DDDDDD" height="190.0938" id="_legend" rx="7.5" ry="7.5" style="stroke:#000000;stroke-width:1.0;" width="153" x="1098" y="588.2188"/><text fill="#000000" font-family="sans-serif" font-size="14" lengthAdjust="spacing" textLength="34" x="1103" y="609.752">Color</text><text fill="#000000" font-family="sans-serif" font-size="14" lengthAdjust="spacing" textLength="32" x="1137" y="609.752">Type</text><rect fill="#FFFF66" height="17.6094" style="stroke:none;stroke-width:1.0;" width="34" x="1103" y="612.8281"/><text fill="#000000" font-family="sans-serif" font-size="14" lengthAdjust="spacing" textLength="4" x="1103" y="627.3613">&#160;</text><text fill="#000000" font-family="sans-serif" font-size="14" lengthAdjust="spacing" textLength="60" x="1137" y="627.3613">Condition</text><rect fill="#CCCCFF" height="17.6094" style="stroke:none;stroke-width:1.0;" width="34" x="1103" y="630.4375"/><text fill="#000000" font-family="sans-serif" font-size="14" lengthAdjust="spacing" textLength="4" x="1103" y="644.9707">&#160;</text><text fill="#000000" font-family="sans-serif" font-size="14" lengthAdjust="spacing" textLength="59" x="1137" y="644.9707">CarePlan</text><rect fill="#9999FF" height="17.6094" style="stroke:none;stroke-width:1.0;" width="34" x="1103" y="648.0469"/><text fill="#000000" font-family="sans-serif" font-size="14" lengthAdjust="spacing" textLength="4" x="1103" y="662.5801">&#160;</text><text fill="#000000" font-family="sans-serif" font-size="14" lengthAdjust="spacing" textLength="66" x="1137" y="662.5801">Procedure</text><rect fill="#DDFFDD" height="17.6094" style="stroke:none;stroke-width:1.0;" width="34" x="1103" y="665.6563"/><text fill="#000000" font-family="sans-serif" font-size="14" lengthAdjust="spacing" textLength="4" x="1103" y="680.1895">&#160;</text><text fill="#000000" font-family="sans-serif" font-size="14" lengthAdjust="spacing" textLength="100" x="1137" y="680.1895">ServiceRequest</text><rect fill="#88FF88" height="17.6094" style="stroke:none;stroke-width:1.0;" width="34" x="1103" y="683.2656"/><text fill="#000000" font-family="sans-serif" font-size="14" lengthAdjust="spacing" textLength="4" x="1103" y="697.7988">&#160;</text><text fill="#000000" font-family="sans-serif" font-size="14" lengthAdjust="spacing" textLength="109" x="1137" y="697.7988">DiagnosticReport</text><rect fill="#22FF22" height="17.6094" style="stroke:none;stroke-width:1.0;" width="34" x="1103" y="700.875"/><text fill="#000000" font-family="sans-serif" font-size="14" lengthAdjust="spacing" textLength="4" x="1103" y="715.4082">&#160;</text><text fill="#000000" font-family="sans-serif" font-size="14" lengthAdjust="spacing" textLength="77" x="1137" y="715.4082">Observation</text><rect fill="#FFCCFF" height="17.6094" style="stroke:none;stroke-width:1.0;" width="34" x="1103" y="718.4844"/><text fill="#000000" font-family="sans-serif" font-size="14" lengthAdjust="spacing" textLength="4" x="1103" y="733.0176">&#160;</text><text fill="#000000" font-family="sans-serif" font-size="14" lengthAdjust="spacing" textLength="68" x="1137" y="733.0176">Medication</text><rect fill="#FF9999" height="17.6094" style="stroke:none;stroke-width:1.0;" width="34" x="1103" y="736.0938"/><text fill="#000000" font-family="sans-serif" font-size="14" lengthAdjust="spacing" textLength="4" x="1103" y="750.627">&#160;</text><text fill="#000000" font-family="sans-serif" font-size="14" lengthAdjust="spacing" textLength="88" x="1137" y="750.627">AdverseEvent</text><rect fill="#44FFFF" height="17.6094" style="stroke:none;stroke-width:1.0;" width="34" x="1103" y="753.7031"/><text fill="#000000" font-family="sans-serif" font-size="14" lengthAdjust="spacing" textLength="4" x="1103" y="768.2363">&#160;</text><text fill="#000000" font-family="sans-serif" font-size="14" lengthAdjust="spacing" textLength="62" x="1137" y="768.2363">Specimen</text><line style="stroke:#000000;stroke-width:1.0;" x1="1103" x2="1246" y1="595.2188" y2="595.2188"/><line style="stroke:#000000;stroke-width:1.0;" x1="1103" x2="1246" y1="612.8281" y2="612.8281"/><line style="stroke:#000000;stroke-width:1.0;" x1="1103" x2="1246" y1="630.4375" y2="630.4375"/><line style="stroke:#000000;stroke-width:1.0;" x1="1103" x2="1246" y1="648.0469" y2="648.0469"/><line style="stroke:#000000;stroke-width:1.0;" x1="1103" x2="1246" y1="665.6563" y2="665.6563"/><line style="stroke:#000000;stroke-width:1.0;" x1="1103" x2="1246" y1="683.2656" y2="683.2656"/><line style="stroke:#000000;stroke-width:1.0;" x1="1103" x2="1246" y1="700.875" y2="700.875"/><line style="stroke:#000000;stroke-width:1.0;" x1="1103" x2="1246" y1="718.4844" y2="718.4844"/><line style="stroke:#000000;stroke-width:1.0;" x1="1103" x2="1246" y1="736.0938" y2="736.0938"/><line style="stroke:#000000;stroke-width:1.0;" x1="1103" x2="1246" y1="753.7031" y2="753.7031"/><line style="stroke:#000000;stroke-width:1.0;" x1="1103" x2="1246" y1="771.3125" y2="771.3125"/><line style="stroke:#000000;stroke-width:1.0;" x1="1103" x2="1103" y1="595.2188" y2="771.3125"/><line style="stroke:#000000;stroke-width:1.0;" x1="1137" x2="1137" y1="595.2188" y2="771.3125"/><line style="stroke:#000000;stroke-width:1.0;" x1="1246" x2="1246" y1="595.2188" y2="771.3125"/><!--SRC=[dLF1Qjj04BtlLmpaqXPaB2K41r91iACqjAcD7UYX5B7IZkMjfLrtT-KaHFcRVaPl-R6E92Ur5QU730Z1pEwRUU_DwkGdfWwcH_4uiMZMt4cju208eYW8s1LVGVya_eRIeS7FERTMpkLovn3SCphJy-7Ju- -2EwtLKkSwapPT89HAWDNAEfaXxDv71IFkoW8-Xh3LkuVpEKqarqXLl9O5Dl316-2_yWAxwAaMs7DuwnhKmpUWdakgbFDIPLtiDSzB_7xxWpq0wmXwMdb2toZlLJKPqwqJ_c5yTNaPZscWUBn2iz7wX2AAcD8E8T7EwG8OK7pHIvwZWIbQAKgUMqUQMhYHHi3ZduGg4wDJ5AN1dYvTgaaIb8ho_y3Hp6aKnv1urmrOuxlVZpkW6yFlcyP-dopFztTNF5t0MK9YvgMr8Efk4_ZWUU5-Ua-00LoWvOLBi3GEPLvhBD1suKdsHkeXUScJdFugnPMhlPKgQom6O0_iDHEybzmsbFquGgCAT9pI5bM7ia-K6y6bRH7NzEtSUAVUGtSj4YtkPcJvzdnFUC7c3TGI2SapfMdhwYLKC9FqCtlMRCy38RAlSVLUic8Rja5yFXnVpFQP6_J0huimUvRynQPtv6V_6yBRxSPOZbczRaPc2mUi6jBhCzNrtGehLfqUH1J7no6bbP0rL9CTKaGHPRd1ISxRPFimmkfvpPliQ1H5er5OpMWMcU8KVvLeNLCQ3A9eC0YhqPFSwHHNshJ5LeImscAn6QXjVOL2fjlfkdrOdOar6eldQrGjpj5HJO7whp0bX-WqiMqvC_ON]--></g></svg>