<?xml version="1.0" encoding="us-ascii" standalone="no"?><svg xmlns="http://www.w3.org/2000/svg" xmlns:xlink="http://www.w3.org/1999/xlink" contentStyleType="text/css" height="878px" preserveAspectRatio="none" style="width:2419px;height:878px;background:#FFFFFF;" version="1.1" viewBox="0 0 2419 878" width="2419px" zoomAndPan="magnify"><defs/><g><!--cluster Medikation--><g id="cluster_Medikation"><rect fill="none" height="90" rx="2.5" ry="2.5" style="stroke:#181818;stroke-width:1.0;" width="178" x="2235" y="322.3564"/><text fill="#000000" font-family="sans-serif" font-size="14" font-weight="bold" lengthAdjust="spacing" textLength="78" x="2285" y="338.8896">Medikation</text></g><!--cluster Onkologie Observations--><g id="cluster_Onkologie Observations"><rect fill="none" height="90" rx="2.5" ry="2.5" style="stroke:#181818;stroke-width:1.0;" width="1620" x="7" y="561.3564"/><text fill="#000000" font-family="sans-serif" font-size="14" font-weight="bold" lengthAdjust="spacing" textLength="171" x="731.5" y="577.8896">Onkologie Observations</text></g><g id="elem_MedicationStatement"><rect fill="#FFCCFF" height="37.6094" style="stroke:#181818;stroke-width:0.5;" width="146" x="2251" y="358.3564"/><text fill="#000000" font-family="sans-serif" font-size="14" lengthAdjust="spacing" textLength="132" x="2258" y="374.8896">MedicationStatement</text><line style="stroke:#181818;stroke-width:0.5;" x1="2252" x2="2396" y1="379.9658" y2="379.9658"/></g><g id="elem_Onko_Variante"><rect fill="#22FF22" height="37.6094" style="stroke:#181818;stroke-width:0.5;" width="109" x="775.5" y="597.3564"/><text fill="#000000" font-family="sans-serif" font-size="14" lengthAdjust="spacing" textLength="95" x="782.5" y="613.8896">Onko_Variante</text><line style="stroke:#181818;stroke-width:0.5;" x1="776.5" x2="883.5" y1="618.9658" y2="618.9658"/></g><g id="elem_Fernmetastasen"><rect fill="#22FF22" height="37.6094" style="stroke:#181818;stroke-width:0.5;" width="117" x="1357.5" y="597.3564"/><text fill="#000000" font-family="sans-serif" font-size="14" lengthAdjust="spacing" textLength="103" x="1364.5" y="613.8896">Fernmetastasen</text><line style="stroke:#181818;stroke-width:0.5;" x1="1358.5" x2="1473.5" y1="618.9658" y2="618.9658"/></g><g id="elem_TNM_Klassifikation"><rect fill="#22FF22" height="37.6094" style="stroke:#181818;stroke-width:0.5;" width="133" x="445.5" y="597.3564"/><text fill="#000000" font-family="sans-serif" font-size="14" lengthAdjust="spacing" textLength="119" x="452.5" y="613.8896">TNM_Klassifikation</text><line style="stroke:#181818;stroke-width:0.5;" x1="446.5" x2="577.5" y1="618.9658" y2="618.9658"/></g><g id="elem_WeitereKlassifikation"><rect fill="#22FF22" height="37.6094" style="stroke:#181818;stroke-width:0.5;" width="145" x="23.5" y="597.3564"/><text fill="#000000" font-family="sans-serif" font-size="14" lengthAdjust="spacing" textLength="131" x="30.5" y="613.8896">WeitereKlassifikation</text><line style="stroke:#181818;stroke-width:0.5;" x1="24.5" x2="167.5" y1="618.9658" y2="618.9658"/></g><g id="elem_Lymphknotenuntersuchung"><rect fill="#22FF22" height="37.6094" style="stroke:#181818;stroke-width:0.5;" width="186" x="1136" y="597.3564"/><text fill="#000000" font-family="sans-serif" font-size="14" lengthAdjust="spacing" textLength="172" x="1143" y="613.8896">Lymphknotenuntersuchung</text><line style="stroke:#181818;stroke-width:0.5;" x1="1137" x2="1321" y1="618.9658" y2="618.9658"/></g><g id="elem_HistologieGrading"><rect fill="#22FF22" height="37.6094" style="stroke:#181818;stroke-width:0.5;" width="126" x="614" y="597.3564"/><text fill="#000000" font-family="sans-serif" font-size="14" lengthAdjust="spacing" textLength="112" x="621" y="613.8896">HistologieGrading</text><line style="stroke:#181818;stroke-width:0.5;" x1="615" x2="739" y1="618.9658" y2="618.9658"/></g><g id="elem_Residualstatus"><rect fill="#22FF22" height="37.6094" style="stroke:#181818;stroke-width:0.5;" width="107" x="919.5" y="597.3564"/><text fill="#000000" font-family="sans-serif" font-size="14" lengthAdjust="spacing" textLength="93" x="926.5" y="613.8896">Residualstatus</text><line style="stroke:#181818;stroke-width:0.5;" x1="920.5" x2="1025.5" y1="618.9658" y2="618.9658"/></g><g id="elem_Allgemeiner_Leistungszustand"><rect fill="#22FF22" height="37.6094" style="stroke:#181818;stroke-width:0.5;" width="206" x="204" y="597.3564"/><text fill="#000000" font-family="sans-serif" font-size="14" lengthAdjust="spacing" textLength="192" x="211" y="613.8896">Allgemeiner_Leistungszustand</text><line style="stroke:#181818;stroke-width:0.5;" x1="205" x2="409" y1="618.9658" y2="618.9658"/></g><g id="elem_Tod"><rect fill="#22FF22" height="37.6094" style="stroke:#181818;stroke-width:0.5;" width="39" x="1061.5" y="597.3564"/><text fill="#000000" font-family="sans-serif" font-size="14" lengthAdjust="spacing" textLength="25" x="1068.5" y="613.8896">Tod</text><line style="stroke:#181818;stroke-width:0.5;" x1="1062.5" x2="1099.5" y1="618.9658" y2="618.9658"/></g><g id="elem_Onko_Befund"><rect fill="#88FF88" height="37.6094" style="stroke:#181818;stroke-width:0.5;" width="101" x="1509.5" y="597.3564"/><text fill="#000000" font-family="sans-serif" font-size="14" lengthAdjust="spacing" textLength="87" x="1516.5" y="613.8896">Onko_Befund</text><line style="stroke:#181818;stroke-width:0.5;" x1="1510.5" x2="1609.5" y1="618.9658" y2="618.9658"/></g><g id="elem_Onko_OP"><rect fill="#9999FF" height="37.6094" style="stroke:#181818;stroke-width:0.5;" width="76" x="1629" y="124.3564"/><text fill="#000000" font-family="sans-serif" font-size="14" lengthAdjust="spacing" textLength="62" x="1636" y="140.8896">Onko_OP</text><line style="stroke:#181818;stroke-width:0.5;" x1="1630" x2="1704" y1="145.9658" y2="145.9658"/></g><g id="elem_Onko_Strahlentherapie"><rect fill="#9999FF" height="37.6094" style="stroke:#181818;stroke-width:0.5;" width="161" x="1811.5" y="124.3564"/><text fill="#000000" font-family="sans-serif" font-size="14" lengthAdjust="spacing" textLength="147" x="1818.5" y="140.8896">Onko_Strahlentherapie</text><line style="stroke:#181818;stroke-width:0.5;" x1="1812.5" x2="1971.5" y1="145.9658" y2="145.9658"/></g><g id="elem_Onko_SystemischeTherapie"><rect fill="#9999FF" height="37.6094" style="stroke:#181818;stroke-width:0.5;" width="192" x="2008" y="124.3564"/><text fill="#000000" font-family="sans-serif" font-size="14" lengthAdjust="spacing" textLength="178" x="2015" y="140.8896">Onko_SystemischeTherapie</text><line style="stroke:#181818;stroke-width:0.5;" x1="2009" x2="2199" y1="145.9658" y2="145.9658"/></g><g id="elem_Therapieplanung_Tumorkonferenz"><rect fill="#CCCCFF" height="37.6094" style="stroke:#181818;stroke-width:0.5;" width="233" x="1689.5" y="8.3564"/><text fill="#000000" font-family="sans-serif" font-size="14" lengthAdjust="spacing" textLength="219" x="1696.5" y="24.8896">Therapieplanung_Tumorkonferenz</text><line style="stroke:#181818;stroke-width:0.5;" x1="1690.5" x2="1921.5" y1="29.9658" y2="29.9658"/></g><g id="elem_Diagnose_Primaertumor"><rect fill="#FFFF66" height="37.6094" style="stroke:#181818;stroke-width:0.5;" width="167" x="511.5" y="8.3564"/><text fill="#000000" font-family="sans-serif" font-size="14" lengthAdjust="spacing" textLength="153" x="518.5" y="24.8896">Diagnose_Primaertumor</text><line style="stroke:#181818;stroke-width:0.5;" x1="512.5" x2="677.5" y1="29.9658" y2="29.9658"/></g><g id="elem_Evidenz_Erstdiagnose"><rect fill="#EEEEEE" height="37.6094" style="stroke:#181818;stroke-width:0.5;" width="154" x="236" y="8.3564"/><text fill="#000000" font-family="sans-serif" font-size="14" lengthAdjust="spacing" textLength="140" x="243" y="24.8896">Evidenz_Erstdiagnose</text><line style="stroke:#181818;stroke-width:0.5;" x1="237" x2="389" y1="29.9658" y2="29.9658"/></g><g id="elem_Verlauf"><rect fill="#22FF22" height="37.6094" style="stroke:#181818;stroke-width:0.5;" width="59" x="863.5" y="358.3564"/><text fill="#000000" font-family="sans-serif" font-size="14" lengthAdjust="spacing" textLength="45" x="870.5" y="374.8896">Verlauf</text><line style="stroke:#181818;stroke-width:0.5;" x1="864.5" x2="921.5" y1="379.9658" y2="379.9658"/></g><g id="elem_Onko_Bioprobe"><rect fill="#44FFFF" height="37.6094" style="stroke:#181818;stroke-width:0.5;" width="113" x="1811.5" y="459.3564"/><text fill="#000000" font-family="sans-serif" font-size="14" lengthAdjust="spacing" textLength="99" x="1818.5" y="475.8896">Onko_Bioprobe</text><line style="stroke:#181818;stroke-width:0.5;" x1="1812.5" x2="1923.5" y1="480.9658" y2="480.9658"/></g><g id="elem_AdverseEvent"><rect fill="#FF9999" height="37.6094" style="stroke:#181818;stroke-width:0.5;" width="102" x="1905" y="358.3564"/><text fill="#000000" font-family="sans-serif" font-size="14" lengthAdjust="spacing" textLength="88" x="1912" y="374.8896">AdverseEvent</text><line style="stroke:#181818;stroke-width:0.5;" x1="1906" x2="2006" y1="379.9658" y2="379.9658"/></g><!--reverse link Therapieplanung_Tumorkonferenz to Onko_OP--><g id="link_Therapieplanung_Tumorkonferenz_Onko_OP"><path codeLine="7" d="M1752.352,48.4732 C1716.032,62.0932 1678,76.3564 1678,76.3564 C1678,76.3564 1673.26,104.7764 1670.01,124.3264 " fill="none" id="Therapieplanung_Tumorkonferenz-backto-Onko_OP" style="stroke:#181818;stroke-width:1.0;"/><polygon fill="#181818" points="1757.97,46.3664,1748.1385,45.7812,1753.2884,48.1221,1750.9475,53.2719,1757.97,46.3664" style="stroke:#181818;stroke-width:1.0;"/><text fill="#000000" font-family="sans-serif" font-size="13" lengthAdjust="spacing" textLength="52" x="1679" y="90.8516">basedOn</text></g><!--reverse link Therapieplanung_Tumorkonferenz to Onko_Strahlentherapie--><g id="link_Therapieplanung_Tumorkonferenz_Onko_Strahlentherapie"><path codeLine="8" d="M1823.2437,51.2061 C1839.2537,72.4261 1862.05,102.6564 1878.15,123.9964 " fill="none" id="Therapieplanung_Tumorkonferenz-backto-Onko_Strahlentherapie" style="stroke:#181818;stroke-width:1.0;"/><polygon fill="#181818" points="1819.63,46.4164,1821.8574,56.0101,1822.6414,50.4079,1828.2437,51.1918,1819.63,46.4164" style="stroke:#181818;stroke-width:1.0;"/><text fill="#000000" font-family="sans-serif" font-size="13" lengthAdjust="spacing" textLength="52" x="1855" y="90.8516">basedOn</text></g><!--reverse link Therapieplanung_Tumorkonferenz to Onko_SystemischeTherapie--><g id="link_Therapieplanung_Tumorkonferenz_Onko_SystemischeTherapie"><path codeLine="9" d="M1858.8236,48.561 C1914.4536,69.851 2000.76,102.8564 2056.51,124.1864 " fill="none" id="Therapieplanung_Tumorkonferenz-backto-Onko_SystemischeTherapie" style="stroke:#181818;stroke-width:1.0;"/><polygon fill="#181818" points="1853.22,46.4164,1860.1958,53.369,1857.8897,48.2036,1863.0552,45.8975,1853.22,46.4164" style="stroke:#181818;stroke-width:1.0;"/><text fill="#000000" font-family="sans-serif" font-size="13" lengthAdjust="spacing" textLength="52" x="1973" y="90.8516">basedOn</text></g><!--reverse link Onko_SystemischeTherapie to MedicationStatement--><g id="link_Onko_SystemischeTherapie_MedicationStatement"><path codeLine="13" d="M2125.3887,166.91 C2166.5187,210.28 2265.77,314.9564 2306.82,358.2364 " fill="none" id="Onko_SystemischeTherapie-backto-MedicationStatement" style="stroke:#181818;stroke-width:1.0;"/><polygon fill="#181818" points="2121.26,162.5564,2124.5507,171.8393,2124.7006,166.1844,2130.3555,166.3343,2121.26,162.5564" style="stroke:#181818;stroke-width:1.0;"/><text fill="#000000" font-family="sans-serif" font-size="13" lengthAdjust="spacing" textLength="35" x="2211" y="254.8516">partOf</text></g><!--reverse link Therapieplanung_Tumorkonferenz to MedicationStatement--><g id="link_Therapieplanung_Tumorkonferenz_MedicationStatement"><path codeLine="14" d="M1897.4213,47.6026 C1962.1113,61.2226 2034,76.3564 2034,76.3564 C2034,76.3564 2218,124.3564 2218,124.3564 C2218,124.3564 2292.07,300.4564 2316.38,358.2364 " fill="none" id="Therapieplanung_Tumorkonferenz-backto-MedicationStatement" style="stroke:#181818;stroke-width:1.0;"/><polygon fill="#181818" points="1891.55,46.3664,1899.5328,52.1349,1896.4427,47.3966,1901.181,44.3065,1891.55,46.3664" style="stroke:#181818;stroke-width:1.0;"/><text fill="#000000" font-family="sans-serif" font-size="13" lengthAdjust="spacing" textLength="52" x="2255" y="206.8516">basedOn</text></g><!--reverse link Evidenz_Erstdiagnose to Diagnose_Primaertumor--><g id="link_Evidenz_Erstdiagnose_Diagnose_Primaertumor"><path codeLine="17" d="M396.06,27.3564 C433.65,27.3564 472.93,27.3564 511.36,27.3564 " fill="none" id="Evidenz_Erstdiagnose-backto-Diagnose_Primaertumor" style="stroke:#181818;stroke-width:1.0;"/><polygon fill="#181818" points="390.06,27.3564,399.06,31.3564,395.06,27.3564,399.06,23.3564,390.06,27.3564" style="stroke:#181818;stroke-width:1.0;"/><text fill="#000000" font-family="sans-serif" font-size="13" lengthAdjust="spacing" textLength="85" x="408.25" y="20.8516">evidence.detail</text></g><!--reverse link Diagnose_Primaertumor to TNM_Klassifikation--><g id="link_Diagnose_Primaertumor_TNM_Klassifikation"><path codeLine="35" d="M544.7574,48.6654 C465.2374,80.8154 313,142.3564 313,142.3564 C313,142.3564 313,142.3564 313,479.3564 C313,479.3564 427,553.3564 427,553.3564 C427,553.3564 461.88,578.7964 486.96,597.0864 " fill="none" id="Diagnose_Primaertumor-backto-TNM_Klassifikation" style="stroke:#181818;stroke-width:1.0;"/><polygon fill="#181818" points="550.32,46.4164,540.4768,46.0815,545.6845,48.2906,543.4754,53.4983,550.32,46.4164" style="stroke:#181818;stroke-width:1.0;"/><text fill="#000000" font-family="sans-serif" font-size="13" lengthAdjust="spacing" textLength="31" x="314" y="302.8516">focus</text></g><!--reverse link Diagnose_Primaertumor to Therapieplanung_Tumorkonferenz--><g id="link_Diagnose_Primaertumor_Therapieplanung_Tumorkonferenz"><path codeLine="36" d="M684.71,27.3564 C896.19,27.3564 1446.31,27.3564 1689.43,27.3564 " fill="none" id="Diagnose_Primaertumor-backto-Therapieplanung_Tumorkonferenz" style="stroke:#181818;stroke-width:1.0;"/><polygon fill="#181818" points="678.71,27.3564,687.71,31.3564,683.71,27.3564,687.71,23.3564,678.71,27.3564" style="stroke:#181818;stroke-width:1.0;"/><text fill="#000000" font-family="sans-serif" font-size="13" lengthAdjust="spacing" textLength="60" x="1154" y="20.8516">addresses</text></g><!--reverse link Diagnose_Primaertumor to Lymphknotenuntersuchung--><g id="link_Diagnose_Primaertumor_Lymphknotenuntersuchung"><path codeLine="37" d="M631.7752,49.5981 C773.7652,131.6381 1341,459.3564 1341,459.3564 C1341,459.3564 1341,497.3564 1341,497.3564 C1341,497.3564 1277.67,564.0764 1246.25,597.1764 " fill="none" id="Diagnose_Primaertumor-backto-Lymphknotenuntersuchung" style="stroke:#181818;stroke-width:1.0;"/><polygon fill="#181818" points="626.58,46.5964,632.3716,54.5624,630.9093,49.0979,636.3739,47.6356,626.58,46.5964" style="stroke:#181818;stroke-width:1.0;"/><text fill="#000000" font-family="sans-serif" font-size="13" lengthAdjust="spacing" textLength="31" x="1074" y="302.8516">focus</text></g><!--reverse link Diagnose_Primaertumor to HistologieGrading--><g id="link_Diagnose_Primaertumor_HistologieGrading"><path codeLine="38" d="M582.3127,51.7824 C574.9527,65.3724 569,76.3564 569,76.3564 C569,76.3564 519,288.3564 519,288.3564 C519,288.3564 519,306.3564 519,306.3564 C519,306.3564 569,545.3564 569,545.3564 C569,545.3564 596,553.3564 596,553.3564 C596,553.3564 629.24,578.7964 653.14,597.0864 " fill="none" id="Diagnose_Primaertumor-backto-HistologieGrading" style="stroke:#181818;stroke-width:1.0;"/><polygon fill="#181818" points="585.17,46.5064,577.3667,52.5155,582.7889,50.9031,584.4013,56.3253,585.17,46.5064" style="stroke:#181818;stroke-width:1.0;"/><text fill="#000000" font-family="sans-serif" font-size="13" lengthAdjust="spacing" textLength="31" x="520" y="302.8516">focus</text></g><!--reverse link Diagnose_Primaertumor to Onko_Variante--><g id="link_Diagnose_Primaertumor_Onko_Variante"><path codeLine="39" d="M595,52.4164 C595,84.5664 595,142.3564 595,142.3564 C595,142.3564 595,142.3564 595,479.3564 C595,479.3564 757,553.3564 757,553.3564 C757,553.3564 786.96,578.7964 808.49,597.0864 " fill="none" id="Diagnose_Primaertumor-backto-Onko_Variante" style="stroke:#181818;stroke-width:1.0;"/><polygon fill="#181818" points="595,46.4164,591,55.4164,595,51.4164,599,55.4164,595,46.4164" style="stroke:#181818;stroke-width:1.0;"/><text fill="#000000" font-family="sans-serif" font-size="13" lengthAdjust="spacing" textLength="31" x="596" y="302.8516">focus</text></g><!--reverse link Diagnose_Primaertumor to WeitereKlassifikation--><g id="link_Diagnose_Primaertumor_WeitereKlassifikation"><path codeLine="40" d="M505.4643,47.6289 C442.1843,61.2489 372,76.3564 372,76.3564 C372,76.3564 135,142.3564 135,142.3564 C135,142.3564 135,142.3564 135,479.3564 C135,479.3564 111.79,560.3064 101.18,597.2964 " fill="none" id="Diagnose_Primaertumor-backto-WeitereKlassifikation" style="stroke:#181818;stroke-width:1.0;"/><polygon fill="#181818" points="511.33,46.3664,501.6898,44.3497,506.4419,47.4185,503.3732,52.1706,511.33,46.3664" style="stroke:#181818;stroke-width:1.0;"/><text fill="#000000" font-family="sans-serif" font-size="13" lengthAdjust="spacing" textLength="31" x="136" y="302.8516">focus</text></g><!--reverse link Diagnose_Primaertumor to Allgemeiner_Leistungszustand--><g id="link_Diagnose_Primaertumor_Allgemeiner_Leistungszustand"><path codeLine="41" d="M527.3288,48.0424 C480.5088,61.6624 430,76.3564 430,76.3564 C430,76.3564 240,142.3564 240,142.3564 C240,142.3564 240,142.3564 240,479.3564 C240,479.3564 279.88,560.3064 298.1,597.2964 " fill="none" id="Diagnose_Primaertumor-backto-Allgemeiner_Leistungszustand" style="stroke:#181818;stroke-width:1.0;"/><polygon fill="#181818" points="533.09,46.3664,523.3309,45.0396,528.289,47.7631,525.5655,52.7211,533.09,46.3664" style="stroke:#181818;stroke-width:1.0;"/><text fill="#000000" font-family="sans-serif" font-size="13" lengthAdjust="spacing" textLength="31" x="241" y="302.8516">focus</text></g><!--reverse link Diagnose_Primaertumor to Fernmetastasen--><g id="link_Diagnose_Primaertumor_Fernmetastasen"><path codeLine="42" d="M666.7483,47.9362 C886.9183,108.0262 1577,296.3564 1577,296.3564 C1577,296.3564 1577,296.3564 1577,479.3564 C1577,479.3564 1481.17,560.3064 1437.38,597.2964 " fill="none" id="Diagnose_Primaertumor-backto-Fernmetastasen" style="stroke:#181818;stroke-width:1.0;"/><polygon fill="#181818" points="660.96,46.3564,668.5893,52.585,665.7836,47.6729,670.6956,44.8672,660.96,46.3564" style="stroke:#181818;stroke-width:1.0;"/><text fill="#000000" font-family="sans-serif" font-size="13" lengthAdjust="spacing" textLength="31" x="1578" y="302.8516">focus</text></g><!--reverse link Therapieplanung_Tumorkonferenz to Onko_Befund--><g id="link_Therapieplanung_Tumorkonferenz_Onko_Befund"><path codeLine="44" d="M1796.0627,51.9467 C1782.5327,84.0967 1758,142.3564 1758,142.3564 C1758,142.3564 1758,142.3564 1758,479.3564 C1758,479.3564 1640.15,560.3064 1586.29,597.2964 " fill="none" id="Therapieplanung_Tumorkonferenz-backto-Onko_Befund" style="stroke:#181818;stroke-width:1.0;"/><polygon fill="#181818" points="1798.39,46.4164,1791.2122,53.1602,1796.4505,51.025,1798.5858,56.2634,1798.39,46.4164" style="stroke:#181818;stroke-width:1.0;"/><text fill="#000000" font-family="sans-serif" font-size="13" lengthAdjust="spacing" textLength="52" x="1759" y="302.8516">basedOn</text></g><!--reverse link Diagnose_Primaertumor to Verlauf--><g id="link_Diagnose_Primaertumor_Verlauf"><path codeLine="47" d="M614.5026,51.1338 C666.0026,111.2738 826.28,298.4464 877.55,358.3164 " fill="none" id="Diagnose_Primaertumor-backto-Verlauf" style="stroke:#181818;stroke-width:1.0;"/><polygon fill="#181818" points="610.6,46.5764,613.4157,56.0142,613.8522,50.3742,619.4922,50.8107,610.6,46.5764" style="stroke:#181818;stroke-width:1.0;"/><text fill="#000000" font-family="sans-serif" font-size="13" lengthAdjust="spacing" textLength="31" x="749" y="206.8516">focus</text></g><!--link Verlauf to Tod--><g id="link_Verlauf_Tod"><path codeLine="48" d="M919.93,396.5364 C955.31,420.4164 1013,459.3564 1013,459.3564 C1013,459.3564 1052.7322,550.5064 1070.6722,591.6564 " fill="none" id="Verlauf-to-Tod" style="stroke:#181818;stroke-width:1.0;"/><polygon fill="#181818" points="1073.07,597.1564,1073.1399,587.3078,1071.0718,592.5731,1065.8066,590.5049,1073.07,597.1564" style="stroke:#181818;stroke-width:1.0;"/><text fill="#000000" font-family="sans-serif" font-size="13" lengthAdjust="spacing" textLength="68" x="1030" y="483.8516">hasMember</text></g><!--link Verlauf to TNM_Klassifikation--><g id="link_Verlauf_TNM_Klassifikation"><path codeLine="49" d="M863.25,389.1164 C802.32,411.1464 669,459.3564 669,459.3564 C669,459.3564 569,527.3564 569,527.3564 C569,527.3564 543.7721,566.3107 527.0721,592.0907 " fill="none" id="Verlauf-to-TNM_Klassifikation" style="stroke:#181818;stroke-width:1.0;"/><polygon fill="#181818" points="523.81,597.1264,532.0603,591.7476,526.5284,592.93,525.346,587.3981,523.81,597.1264" style="stroke:#181818;stroke-width:1.0;"/><text fill="#000000" font-family="sans-serif" font-size="13" lengthAdjust="spacing" textLength="68" x="670" y="483.8516">hasMember</text></g><!--link Verlauf to Lymphknotenuntersuchung--><g id="link_Verlauf_Lymphknotenuntersuchung"><path codeLine="50" d="M922.76,389.6164 C981.56,411.8764 1107,459.3564 1107,459.3564 C1107,459.3564 1178.8832,551.2806 1211.0732,592.4306 " fill="none" id="Verlauf-to-Lymphknotenuntersuchung" style="stroke:#181818;stroke-width:1.0;"/><polygon fill="#181818" points="1214.77,597.1564,1212.3753,587.6031,1211.6893,593.2183,1206.0742,592.5323,1214.77,597.1564" style="stroke:#181818;stroke-width:1.0;"/><text fill="#000000" font-family="sans-serif" font-size="13" lengthAdjust="spacing" textLength="68" x="1136" y="483.8516">hasMember</text></g><!--link Verlauf to HistologieGrading--><g id="link_Verlauf_HistologieGrading"><path codeLine="51" d="M864.95,396.5364 C828.09,420.4164 768,459.3564 768,459.3564 C768,459.3564 714.6428,550.8235 690.6428,591.9735 " fill="none" id="Verlauf-to-HistologieGrading" style="stroke:#181818;stroke-width:1.0;"/><polygon fill="#181818" points="687.62,597.1564,695.6095,591.3973,690.139,592.8374,688.699,587.3669,687.62,597.1564" style="stroke:#181818;stroke-width:1.0;"/><text fill="#000000" font-family="sans-serif" font-size="13" lengthAdjust="spacing" textLength="68" x="769" y="483.8516">hasMember</text></g><!--link Verlauf to Fernmetastasen--><g id="link_Verlauf_Fernmetastasen"><path codeLine="52" d="M922.53,385.8364 C1001.75,405.8864 1213,459.3564 1213,459.3564 C1213,459.3564 1340,553.3564 1340,553.3564 C1340,553.3564 1366.5408,575.0037 1388.9608,593.2937 " fill="none" id="Verlauf-to-Fernmetastasen" style="stroke:#181818;stroke-width:1.0;"/><polygon fill="#181818" points="1393.61,597.0864,1389.1647,588.2978,1389.7357,593.9258,1384.1077,594.4968,1393.61,597.0864" style="stroke:#181818;stroke-width:1.0;"/><text fill="#000000" font-family="sans-serif" font-size="13" lengthAdjust="spacing" textLength="68" x="1264" y="483.8516">hasMember</text></g><!--link Verlauf to Residualstatus--><g id="link_Verlauf_Residualstatus"><path codeLine="53" d="M900.03,396.7364 C909.18,420.6364 924,459.3564 924,459.3564 C924,459.3564 952.5627,550.282 965.4827,591.432 " fill="none" id="Verlauf-to-Residualstatus" style="stroke:#181818;stroke-width:1.0;"/><polygon fill="#181818" points="967.28,597.1564,968.4003,587.3715,965.7822,592.3861,960.7677,589.768,967.28,597.1564" style="stroke:#181818;stroke-width:1.0;"/><text fill="#000000" font-family="sans-serif" font-size="13" lengthAdjust="spacing" textLength="68" x="936" y="483.8516">hasMember</text></g><!--link Verlauf to Onko_Variante--><g id="link_Verlauf_Onko_Variante"><path codeLine="54" d="M883.24,396.7364 C870.56,420.6364 850,459.3564 850,459.3564 C850,459.3564 838.3736,550.0552 833.0936,591.2052 " fill="none" id="Verlauf-to-Onko_Variante" style="stroke:#181818;stroke-width:1.0;"/><polygon fill="#181818" points="832.33,597.1564,837.4429,588.7387,832.9663,592.1971,829.5079,587.7206,832.33,597.1564" style="stroke:#181818;stroke-width:1.0;"/><text fill="#000000" font-family="sans-serif" font-size="13" lengthAdjust="spacing" textLength="68" x="851" y="483.8516">hasMember</text></g><!--reverse link Onko_Bioprobe to Onko_Befund--><g id="link_Onko_Bioprobe_Onko_Befund"><path codeLine="57" d="M1840.3329,501.0945 C1815.4629,520.6445 1784,545.3564 1784,545.3564 C1784,545.3564 1676.62,578.9164 1610.55,599.5564 " fill="none" id="Onko_Bioprobe-backto-Onko_Befund" style="stroke:#181818;stroke-width:1.0;"/><polygon fill="#181818" points="1845.05,497.3864,1835.5024,499.8038,1841.1191,500.4765,1840.4464,506.0932,1845.05,497.3864" style="stroke:#181818;stroke-width:1.0;"/><text fill="#000000" font-family="sans-serif" font-size="13" lengthAdjust="spacing" textLength="56" x="1807" y="541.8516">specimen</text></g><!--reverse link Onko_SystemischeTherapie to AdverseEvent--><g id="link_Onko_SystemischeTherapie_AdverseEvent"><path codeLine="60" d="M2089.9631,167.5494 C2070.5031,199.6994 2035,258.3564 2035,258.3564 C2035,258.3564 1990.33,325.0764 1968.17,358.1764 " fill="none" id="Onko_SystemischeTherapie-backto-AdverseEvent" style="stroke:#181818;stroke-width:1.0;"/><polygon fill="#181818" points="2093.07,162.4164,2084.9877,168.0446,2090.4809,166.6939,2091.8316,172.1871,2093.07,162.4164" style="stroke:#181818;stroke-width:1.0;"/><text fill="#000000" font-family="sans-serif" font-size="13" lengthAdjust="spacing" textLength="133" x="2046" y="254.8516">suspectEntity.instance</text></g><!--reverse link Onko_Strahlentherapie to AdverseEvent--><g id="link_Onko_Strahlentherapie_AdverseEvent"><path codeLine="61" d="M1892.8408,168.4127 C1893.9708,200.5627 1896,258.3564 1896,258.3564 C1896,258.3564 1929.93,325.0764 1946.76,358.1764 " fill="none" id="Onko_Strahlentherapie-backto-AdverseEvent" style="stroke:#181818;stroke-width:1.0;"/><polygon fill="#181818" points="1892.63,162.4164,1888.9486,171.5514,1892.8056,167.4134,1896.9437,171.2704,1892.63,162.4164" style="stroke:#181818;stroke-width:1.0;"/><text fill="#000000" font-family="sans-serif" font-size="13" lengthAdjust="spacing" textLength="133" x="1897" y="254.8516">suspectEntity.instance</text></g><rect fill="#DDDDDD" height="190.0938" id="_legend" rx="7.5" ry="7.5" style="stroke:#000000;stroke-width:1.0;" width="153" x="2240" y="668.3564"/><text fill="#000000" font-family="sans-serif" font-size="14" lengthAdjust="spacing" textLength="34" x="2245" y="689.8896">Color</text><text fill="#000000" font-family="sans-serif" font-size="14" lengthAdjust="spacing" textLength="32" x="2279" y="689.8896">Type</text><rect fill="#FFFF66" height="17.6094" style="stroke:none;stroke-width:1.0;" width="34" x="2245" y="692.9658"/><text fill="#000000" font-family="sans-serif" font-size="14" lengthAdjust="spacing" textLength="4" x="2245" y="707.499">&#160;</text><text fill="#000000" font-family="sans-serif" font-size="14" lengthAdjust="spacing" textLength="60" x="2279" y="707.499">Condition</text><rect fill="#CCCCFF" height="17.6094" style="stroke:none;stroke-width:1.0;" width="34" x="2245" y="710.5752"/><text fill="#000000" font-family="sans-serif" font-size="14" lengthAdjust="spacing" textLength="4" x="2245" y="725.1084">&#160;</text><text fill="#000000" font-family="sans-serif" font-size="14" lengthAdjust="spacing" textLength="59" x="2279" y="725.1084">CarePlan</text><rect fill="#9999FF" height="17.6094" style="stroke:none;stroke-width:1.0;" width="34" x="2245" y="728.1846"/><text fill="#000000" font-family="sans-serif" font-size="14" lengthAdjust="spacing" textLength="4" x="2245" y="742.7178">&#160;</text><text fill="#000000" font-family="sans-serif" font-size="14" lengthAdjust="spacing" textLength="66" x="2279" y="742.7178">Procedure</text><rect fill="#DDFFDD" height="17.6094" style="stroke:none;stroke-width:1.0;" width="34" x="2245" y="745.7939"/><text fill="#000000" font-family="sans-serif" font-size="14" lengthAdjust="spacing" textLength="4" x="2245" y="760.3271">&#160;</text><text fill="#000000" font-family="sans-serif" font-size="14" lengthAdjust="spacing" textLength="100" x="2279" y="760.3271">ServiceRequest</text><rect fill="#88FF88" height="17.6094" style="stroke:none;stroke-width:1.0;" width="34" x="2245" y="763.4033"/><text fill="#000000" font-family="sans-serif" font-size="14" lengthAdjust="spacing" textLength="4" x="2245" y="777.9365">&#160;</text><text fill="#000000" font-family="sans-serif" font-size="14" lengthAdjust="spacing" textLength="109" x="2279" y="777.9365">DiagnosticReport</text><rect fill="#22FF22" height="17.6094" style="stroke:none;stroke-width:1.0;" width="34" x="2245" y="781.0127"/><text fill="#000000" font-family="sans-serif" font-size="14" lengthAdjust="spacing" textLength="4" x="2245" y="795.5459">&#160;</text><text fill="#000000" font-family="sans-serif" font-size="14" lengthAdjust="spacing" textLength="77" x="2279" y="795.5459">Observation</text><rect fill="#FFCCFF" height="17.6094" style="stroke:none;stroke-width:1.0;" width="34" x="2245" y="798.6221"/><text fill="#000000" font-family="sans-serif" font-size="14" lengthAdjust="spacing" textLength="4" x="2245" y="813.1553">&#160;</text><text fill="#000000" font-family="sans-serif" font-size="14" lengthAdjust="spacing" textLength="68" x="2279" y="813.1553">Medication</text><rect fill="#FF9999" height="17.6094" style="stroke:none;stroke-width:1.0;" width="34" x="2245" y="816.2314"/><text fill="#000000" font-family="sans-serif" font-size="14" lengthAdjust="spacing" textLength="4" x="2245" y="830.7646">&#160;</text><text fill="#000000" font-family="sans-serif" font-size="14" lengthAdjust="spacing" textLength="88" x="2279" y="830.7646">AdverseEvent</text><rect fill="#44FFFF" height="17.6094" style="stroke:none;stroke-width:1.0;" width="34" x="2245" y="833.8408"/><text fill="#000000" font-family="sans-serif" font-size="14" lengthAdjust="spacing" textLength="4" x="2245" y="848.374">&#160;</text><text fill="#000000" font-family="sans-serif" font-size="14" lengthAdjust="spacing" textLength="62" x="2279" y="848.374">Specimen</text><line style="stroke:#000000;stroke-width:1.0;" x1="2245" x2="2388" y1="675.3564" y2="675.3564"/><line style="stroke:#000000;stroke-width:1.0;" x1="2245" x2="2388" y1="692.9658" y2="692.9658"/><line style="stroke:#000000;stroke-width:1.0;" x1="2245" x2="2388" y1="710.5752" y2="710.5752"/><line style="stroke:#000000;stroke-width:1.0;" x1="2245" x2="2388" y1="728.1846" y2="728.1846"/><line style="stroke:#000000;stroke-width:1.0;" x1="2245" x2="2388" y1="745.7939" y2="745.7939"/><line style="stroke:#000000;stroke-width:1.0;" x1="2245" x2="2388" y1="763.4033" y2="763.4033"/><line style="stroke:#000000;stroke-width:1.0;" x1="2245" x2="2388" y1="781.0127" y2="781.0127"/><line style="stroke:#000000;stroke-width:1.0;" x1="2245" x2="2388" y1="798.6221" y2="798.6221"/><line style="stroke:#000000;stroke-width:1.0;" x1="2245" x2="2388" y1="816.2314" y2="816.2314"/><line style="stroke:#000000;stroke-width:1.0;" x1="2245" x2="2388" y1="833.8408" y2="833.8408"/><line style="stroke:#000000;stroke-width:1.0;" x1="2245" x2="2388" y1="851.4502" y2="851.4502"/><line style="stroke:#000000;stroke-width:1.0;" x1="2245" x2="2245" y1="675.3564" y2="851.4502"/><line style="stroke:#000000;stroke-width:1.0;" x1="2279" x2="2279" y1="675.3564" y2="851.4502"/><line style="stroke:#000000;stroke-width:1.0;" x1="2388" x2="2388" y1="675.3564" y2="851.4502"/><!--SRC=[ZLPTRvim57tthx2QP_eGLLM6gaXh4pPfxHArKVSOEN01Bs0psqHAn_xxBbyDfAR4oakkpps-7uThwpqN6LCifGaNO8uPq4mcn_8FaRlVu1kw4dkvNQtfv0ikp-kPNunYSGB2nA1Oni4EEce3ATT-39i1N6lF4YPo4MqtUIhLNeeG58WtEdd0XMWoWhjpd3PSb-wOXc0bwCLEvycyKrpEy37J4ud2H9c84g1NJn3mFJDSYYlwbr1SJHtA3R_QU34CgJ0OEl6yAlb_PB2Q681ZzNKfDjUimakAO6KuXTz4kE0i4bB3Tgruoa2PagUCqVDkRrlGyi03PDqkbJP1uq0dosfHOgTmd0H2upXpkxTBeJBxS1s0OJmXk3ebBMkJo0YBiTffK8Sg3NtLgsvLlrUcE1C6uvbEFMywxG8yK295Teq_43R4vkVJzaV2jEPXqq4RwXTmWtMr0saN-NXCitWlf07i2lhet8-nFJRIxroREiLlYWNS3de6pOES9PY1oRKDyJL98cmjVk1g-mZ8YSVfjnmTH63DM5hDLItl8SnBhzdCysOpWX8TQ6ubhu-rSsae_LmFEYaUnIW9EZOVNCg2G87Me3yBOA3OOr6WvyVQkwC-VRMDuwsYkI2sJniwVkoPvXk7yNdHzgOh17eQ5-qeU0MLi3nybz1m9DZc5jnctVvtoh60GdHfpFGJf3jGPtiMQGrX1x-vGNPR-uUm_N8EmlhVwN2mFH5rsNetx3sNcP8xd6atD-KafgHllZlhaqjr1Zx70V_EypKuO2LWUMYkdF9-7hbmkYx8c9USPYaCDyThBahz-K3ipuJB_Ka24M38bTmeAHwm3whOu4Eb8CLTS-_CqIm2NlQzijRF1RGo1MiKS6MiNnppOgsa3q6kQeB5mlCMYtdnWdS6z-4P_kIWJRLLJxLvqKZMSFyPCgdgpLhEyw9pspG1rKUVxjB6N1u_BxevLnjrm_3yfY45mMphd0dv3m00]--></g></svg>