<?xml version="1.0" encoding="us-ascii" standalone="no"?><svg xmlns="http://www.w3.org/2000/svg" xmlns:xlink="http://www.w3.org/1999/xlink" contentStyleType="text/css" height="798px" preserveAspectRatio="none" style="width:1431px;height:798px;background:#FFFFFF;" version="1.1" viewBox="0 0 1431 798" width="1431px" zoomAndPan="magnify"><defs/><g><g id="elem_R4_Observation"><rect fill="#22FF22" height="37.6094" style="stroke:#181818;stroke-width:0.5;" width="117" x="680.5" y="7"/><text fill="#000000" font-family="sans-serif" font-size="14" lengthAdjust="spacing" textLength="103" x="687.5" y="23.5332">R4_Observation</text><line style="stroke:#181818;stroke-width:0.5;" x1="681.5" x2="796.5" y1="28.6094" y2="28.6094"/></g><g id="elem_09_WeitereKlassifikation"><rect fill="#22FF22" height="86.4375" style="stroke:#181818;stroke-width:0.5;" width="636" x="7" y="109"/><text fill="#000000" font-family="sans-serif" font-size="14" lengthAdjust="spacing" textLength="155" x="247.5" y="125.5332">09_WeitereKlassifikation</text><line style="stroke:#181818;stroke-width:1.0;" x1="7" x2="643" y1="130.6094" y2="130.6094"/><text fill="#000000" font-family="sans-serif" font-size="14" lengthAdjust="spacing" textLength="395" x="25" y="147.1426">09.1 H&#228;matoonkologische und sonstige Klassifikationen Datum</text><text fill="#000000" font-family="sans-serif" font-size="14" lengthAdjust="spacing" textLength="195" x="443" y="147.1426">Observation.effectiveDateTime</text><line style="stroke:#181818;stroke-width:1.0;" x1="438" x2="438" y1="130.6094" y2="152.2188"/><line style="stroke:#181818;stroke-width:1.0;" x1="7" x2="643" y1="152.2188" y2="152.2188"/><text fill="#000000" font-family="sans-serif" font-size="14" lengthAdjust="spacing" textLength="390" x="27.5" y="168.752">09.2 H&#228;matoonkologische und sonstige Klassifikationen Name</text><text fill="#000000" font-family="sans-serif" font-size="14" lengthAdjust="spacing" textLength="138" x="443" y="168.752">Observation.code.text</text><line style="stroke:#181818;stroke-width:1.0;" x1="438" x2="438" y1="152.2188" y2="173.8281"/><line style="stroke:#181818;stroke-width:1.0;" x1="7" x2="643" y1="173.8281" y2="173.8281"/><text fill="#000000" font-family="sans-serif" font-size="14" lengthAdjust="spacing" textLength="421" x="12" y="190.3613">09.3 H&#228;matoonkologische und sonstige Klassifikationen Einstufung</text><text fill="#000000" font-family="sans-serif" font-size="14" lengthAdjust="spacing" textLength="129" x="443" y="190.3613">Observation.value[x]</text><line style="stroke:#181818;stroke-width:1.0;" x1="438" x2="438" y1="173.8281" y2="195.4375"/></g><g id="elem_13_MII_Onko_Operation"><rect fill="#9999FF" height="37.6094" style="stroke:#181818;stroke-width:0.5;" width="168" x="307" y="408"/><text fill="#000000" font-family="sans-serif" font-size="14" lengthAdjust="spacing" textLength="154" x="314" y="424.5332">13_MII_Onko_Operation</text><line style="stroke:#181818;stroke-width:0.5;" x1="308" x2="474" y1="429.6094" y2="429.6094"/></g><g id="elem_GMN6"><path d="M160.5,535.5 L160.5,561.8516 A0,0 0 0 0 160.5,561.8516 L621.5,561.8516 A0,0 0 0 0 621.5,561.8516 L621.5,545.5 L611.5,535.5 L395,535.5 L391,446.15 L387,535.5 L160.5,535.5 A0,0 0 0 0 160.5,535.5 " fill="#FEFFDD" style="stroke:#181818;stroke-width:0.5;"/><path d="M611.5,535.5 L611.5,545.5 L621.5,545.5 L611.5,535.5 " fill="#FEFFDD" style="stroke:#181818;stroke-width:0.5;"/><text fill="#000000" font-family="sans-serif" font-size="13" lengthAdjust="spacing" textLength="440" x="166.5" y="553.9951">Lokaler Residualstatus wird &#252;ber Procedure.outcome einer Operation erfasst</text></g><g id="elem_10_Residualstatus"><rect fill="#22FF22" height="64.8281" style="stroke:#181818;stroke-width:0.5;" width="572" x="124" y="263"/><text fill="#000000" font-family="sans-serif" font-size="14" lengthAdjust="spacing" textLength="117" x="351.5" y="279.5332">10_Residualstatus</text><line style="stroke:#181818;stroke-width:1.0;" x1="124" x2="696" y1="284.6094" y2="284.6094"/><text fill="#000000" font-family="sans-serif" font-size="14" lengthAdjust="spacing" textLength="323" x="248.5" y="301.1426">10.1 lokaler Residualstatus nach Abschluss der OP</text><line style="stroke:#181818;stroke-width:1.0;" x1="124" x2="696" y1="306.2188" y2="306.2188"/><text fill="#000000" font-family="sans-serif" font-size="14" lengthAdjust="spacing" textLength="276" x="152.5" y="322.752">10.2 Gesamtbeurteilung des Residualstatus</text><text fill="#000000" font-family="sans-serif" font-size="14" lengthAdjust="spacing" textLength="229" x="462" y="322.752">valueCodeableConcept.coding.code</text><line style="stroke:#181818;stroke-width:1.0;" x1="457" x2="457" y1="306.2188" y2="327.8281"/></g><g id="elem_11_Fernmetastasen"><rect fill="#22FF22" height="64.8281" style="stroke:#181818;stroke-width:0.5;" width="514" x="518" y="395"/><text fill="#000000" font-family="sans-serif" font-size="14" lengthAdjust="spacing" textLength="127" x="711.5" y="411.5332">11_Fernmetastasen</text><line style="stroke:#181818;stroke-width:1.0;" x1="518" x2="1032" y1="416.6094" y2="416.6094"/><text fill="#000000" font-family="sans-serif" font-size="14" lengthAdjust="spacing" textLength="251" x="530" y="433.1426">11.1 Lokalisation von Fernmetastase(n)</text><text fill="#000000" font-family="sans-serif" font-size="14" lengthAdjust="spacing" textLength="229" x="798" y="433.1426">Observation.valueCodeableConcept</text><line style="stroke:#181818;stroke-width:1.0;" x1="793" x2="793" y1="416.6094" y2="438.2188"/><line style="stroke:#181818;stroke-width:1.0;" x1="518" x2="1032" y1="438.2188" y2="438.2188"/><text fill="#000000" font-family="sans-serif" font-size="14" lengthAdjust="spacing" textLength="265" x="523" y="454.752">11.2 Datum der diagnostischen Sicherung</text><text fill="#000000" font-family="sans-serif" font-size="14" lengthAdjust="spacing" textLength="195" x="798" y="454.752">Observation.effectiveDateTime</text><line style="stroke:#181818;stroke-width:1.0;" x1="793" x2="793" y1="438.2188" y2="459.8281"/></g><g id="elem_12_Allgemeiner_Leistungszustand"><rect fill="#22FF22" height="43.2188" style="stroke:#181818;stroke-width:0.5;" width="663" x="761.5" y="527"/><text fill="#000000" font-family="sans-serif" font-size="14" lengthAdjust="spacing" textLength="216" x="985" y="543.5332">12_Allgemeiner_Leistungszustand</text><line style="stroke:#181818;stroke-width:1.0;" x1="761.5" x2="1424.5" y1="548.6094" y2="548.6094"/><text fill="#000000" font-family="sans-serif" font-size="14" lengthAdjust="spacing" textLength="228" x="766.5" y="565.1426">12. 1 Allgemeiner_Leistungszustand</text><text fill="#000000" font-family="sans-serif" font-size="14" lengthAdjust="spacing" textLength="415" x="1004.5" y="565.1426">Observation.component[ecog / karnofsky].valueCodeableConcept</text><line style="stroke:#181818;stroke-width:1.0;" x1="999.5" x2="999.5" y1="548.6094" y2="570.2188"/></g><!--reverse link R4_Observation to 09_WeitereKlassifikation--><g id="link_R4_Observation_09_WeitereKlassifikation"><path codeLine="7" d="M662.8769,49.7947 C610.5269,65.4747 548.88,83.94 478.74,104.95 " fill="none" id="R4_Observation-backto-09_WeitereKlassifikation" style="stroke:#181818;stroke-width:1.0;"/><polygon fill="none" points="680.12,44.63,661.1553,44.047,664.5984,55.5424,680.12,44.63" style="stroke:#181818;stroke-width:1.0;"/></g><!--link 10_Residualstatus to 13_MII_Onko_Operation--><g id="link_10_Residualstatus_13_MII_Onko_Operation"><path d="M123,294 C106.55,294 114.34,317.69 124,331 C165.77,388.53 239.5131,410.512 301.0031,419.502 " fill="none" id="10_Residualstatus-to-13_MII_Onko_Operation" style="stroke:#181818;stroke-width:1.0;"/><polygon fill="#181818" points="306.94,420.37,298.6133,415.1101,301.9926,419.6467,297.456,423.0259,306.94,420.37" style="stroke:#181818;stroke-width:1.0;"/></g><!--reverse link R4_Observation to 10_Residualstatus--><g id="link_R4_Observation_10_Residualstatus"><path codeLine="19" d="M733.6417,62.7651 C728.0017,97.3351 713.88,155.67 669,199 C641.35,225.7 605.59,244.99 569.51,258.9 " fill="none" id="R4_Observation-backto-10_Residualstatus" style="stroke:#181818;stroke-width:1.0;"/><polygon fill="none" points="736.54,45,727.72,61.799,739.5634,63.7312,736.54,45" style="stroke:#181818;stroke-width:1.0;"/></g><!--reverse link R4_Observation to 11_Fernmetastasen--><g id="link_R4_Observation_11_Fernmetastasen"><path codeLine="26" d="M742.2563,63.1073 C747.8163,124.7773 764.42,308.77 771.83,390.84 " fill="none" id="R4_Observation-backto-11_Fernmetastasen" style="stroke:#181818;stroke-width:1.0;"/><polygon fill="none" points="740.64,45.18,736.2805,63.646,748.232,62.5685,740.64,45.18" style="stroke:#181818;stroke-width:1.0;"/></g><!--reverse link R4_Observation to 12_Allgemeiner_Leistungszustand--><g id="link_R4_Observation_12_Allgemeiner_Leistungszustand"><path codeLine="33" d="M775.1656,56.7601 C833.8656,105.8701 979.44,236.28 1058,391 C1079.93,434.2 1088.22,490.97 1091.28,522.91 " fill="none" id="R4_Observation-backto-12_Allgemeiner_Leistungszustand" style="stroke:#181818;stroke-width:1.0;"/><polygon fill="none" points="761.36,45.21,771.3156,61.362,779.0156,52.1583,761.36,45.21" style="stroke:#181818;stroke-width:1.0;"/></g><rect fill="#DDDDDD" height="190.0938" id="_legend" rx="7.5" ry="7.5" style="stroke:#000000;stroke-width:1.0;" width="153" x="1252.5" y="588.2188"/><text fill="#000000" font-family="sans-serif" font-size="14" lengthAdjust="spacing" textLength="34" x="1257.5" y="609.752">Color</text><text fill="#000000" font-family="sans-serif" font-size="14" lengthAdjust="spacing" textLength="32" x="1291.5" y="609.752">Type</text><rect fill="#FFFF66" height="17.6094" style="stroke:none;stroke-width:1.0;" width="34" x="1257.5" y="612.8281"/><text fill="#000000" font-family="sans-serif" font-size="14" lengthAdjust="spacing" textLength="4" x="1257.5" y="627.3613">&#160;</text><text fill="#000000" font-family="sans-serif" font-size="14" lengthAdjust="spacing" textLength="60" x="1291.5" y="627.3613">Condition</text><rect fill="#CCCCFF" height="17.6094" style="stroke:none;stroke-width:1.0;" width="34" x="1257.5" y="630.4375"/><text fill="#000000" font-family="sans-serif" font-size="14" lengthAdjust="spacing" textLength="4" x="1257.5" y="644.9707">&#160;</text><text fill="#000000" font-family="sans-serif" font-size="14" lengthAdjust="spacing" textLength="59" x="1291.5" y="644.9707">CarePlan</text><rect fill="#9999FF" height="17.6094" style="stroke:none;stroke-width:1.0;" width="34" x="1257.5" y="648.0469"/><text fill="#000000" font-family="sans-serif" font-size="14" lengthAdjust="spacing" textLength="4" x="1257.5" y="662.5801">&#160;</text><text fill="#000000" font-family="sans-serif" font-size="14" lengthAdjust="spacing" textLength="66" x="1291.5" y="662.5801">Procedure</text><rect fill="#DDFFDD" height="17.6094" style="stroke:none;stroke-width:1.0;" width="34" x="1257.5" y="665.6563"/><text fill="#000000" font-family="sans-serif" font-size="14" lengthAdjust="spacing" textLength="4" x="1257.5" y="680.1895">&#160;</text><text fill="#000000" font-family="sans-serif" font-size="14" lengthAdjust="spacing" textLength="100" x="1291.5" y="680.1895">ServiceRequest</text><rect fill="#88FF88" height="17.6094" style="stroke:none;stroke-width:1.0;" width="34" x="1257.5" y="683.2656"/><text fill="#000000" font-family="sans-serif" font-size="14" lengthAdjust="spacing" textLength="4" x="1257.5" y="697.7988">&#160;</text><text fill="#000000" font-family="sans-serif" font-size="14" lengthAdjust="spacing" textLength="109" x="1291.5" y="697.7988">DiagnosticReport</text><rect fill="#22FF22" height="17.6094" style="stroke:none;stroke-width:1.0;" width="34" x="1257.5" y="700.875"/><text fill="#000000" font-family="sans-serif" font-size="14" lengthAdjust="spacing" textLength="4" x="1257.5" y="715.4082">&#160;</text><text fill="#000000" font-family="sans-serif" font-size="14" lengthAdjust="spacing" textLength="77" x="1291.5" y="715.4082">Observation</text><rect fill="#FFCCFF" height="17.6094" style="stroke:none;stroke-width:1.0;" width="34" x="1257.5" y="718.4844"/><text fill="#000000" font-family="sans-serif" font-size="14" lengthAdjust="spacing" textLength="4" x="1257.5" y="733.0176">&#160;</text><text fill="#000000" font-family="sans-serif" font-size="14" lengthAdjust="spacing" textLength="68" x="1291.5" y="733.0176">Medication</text><rect fill="#FF9999" height="17.6094" style="stroke:none;stroke-width:1.0;" width="34" x="1257.5" y="736.0938"/><text fill="#000000" font-family="sans-serif" font-size="14" lengthAdjust="spacing" textLength="4" x="1257.5" y="750.627">&#160;</text><text fill="#000000" font-family="sans-serif" font-size="14" lengthAdjust="spacing" textLength="88" x="1291.5" y="750.627">AdverseEvent</text><rect fill="#44FFFF" height="17.6094" style="stroke:none;stroke-width:1.0;" width="34" x="1257.5" y="753.7031"/><text fill="#000000" font-family="sans-serif" font-size="14" lengthAdjust="spacing" textLength="4" x="1257.5" y="768.2363">&#160;</text><text fill="#000000" font-family="sans-serif" font-size="14" lengthAdjust="spacing" textLength="62" x="1291.5" y="768.2363">Specimen</text><line style="stroke:#000000;stroke-width:1.0;" x1="1257.5" x2="1400.5" y1="595.2188" y2="595.2188"/><line style="stroke:#000000;stroke-width:1.0;" x1="1257.5" x2="1400.5" y1="612.8281" y2="612.8281"/><line style="stroke:#000000;stroke-width:1.0;" x1="1257.5" x2="1400.5" y1="630.4375" y2="630.4375"/><line style="stroke:#000000;stroke-width:1.0;" x1="1257.5" x2="1400.5" y1="648.0469" y2="648.0469"/><line style="stroke:#000000;stroke-width:1.0;" x1="1257.5" x2="1400.5" y1="665.6563" y2="665.6563"/><line style="stroke:#000000;stroke-width:1.0;" x1="1257.5" x2="1400.5" y1="683.2656" y2="683.2656"/><line style="stroke:#000000;stroke-width:1.0;" x1="1257.5" x2="1400.5" y1="700.875" y2="700.875"/><line style="stroke:#000000;stroke-width:1.0;" x1="1257.5" x2="1400.5" y1="718.4844" y2="718.4844"/><line style="stroke:#000000;stroke-width:1.0;" x1="1257.5" x2="1400.5" y1="736.0938" y2="736.0938"/><line style="stroke:#000000;stroke-width:1.0;" x1="1257.5" x2="1400.5" y1="753.7031" y2="753.7031"/><line style="stroke:#000000;stroke-width:1.0;" x1="1257.5" x2="1400.5" y1="771.3125" y2="771.3125"/><line style="stroke:#000000;stroke-width:1.0;" x1="1257.5" x2="1257.5" y1="595.2188" y2="771.3125"/><line style="stroke:#000000;stroke-width:1.0;" x1="1291.5" x2="1291.5" y1="595.2188" y2="771.3125"/><line style="stroke:#000000;stroke-width:1.0;" x1="1400.5" x2="1400.5" y1="595.2188" y2="771.3125"/><!--SRC=[dLFRJjmm47ttLup4Irifsqr0Q95e9CII5fMR5gG-81GvoMnmrx5JsrcWXB_fP_ID7-iaMThTi509Ir6a6VlCd7DcTF8TKmUJhVWqiMZct0cjO2C8eYW8s34lORWJVqFXqE1NoQqLKp5RkGJtZEuCVFZo-AlWJcirqrBdmgRN29NAm6fbdSWHLj-ZWZ5tLG6VGbYgFS3fb3eISwGiNeW2M_ZW3V0dlC0-Ugep73YyTItgvXjG3mHbgccbyZxsdCiABs-ls0Emdg2xjPVf6-Mzg2PZkdF2tuoF3m_ZKseeFYtHBBJUeHD5J6c7a6ZdT04Cw1pf6PTeO89MP1MNrf6c5cw4oU3nTqAPCwDJp2g30rsvL9CaA1J5_u6ZcL8hZY7nRWgmrdT_6FT05uRVjuNz8LakrrTNFBs6lOJ4b9Mra3NLpk23vuNhwJq11l0PBIzSWfLnA6IZSOQs3q-ojrBlavSyaVHNAPQkyLQelBKOW3smbqpmddDRKFRZ28qgq74AMrGzoZvHRWKNjaESqxVoufrw3sl7ejVh4rwms856eapmN6cQkcO85PmB-farOxPcGOZiIrozvwpOWcqGxqcPOz7EGto4WkPQvVPdHTTe55Qv1mFmuTNxppQjA9k5SPUOwXm-memRfQTsTdUrNfBNI7Z_wvOnYNapm4RarmvOlK_xREgBkn9hLkzkH7IsjqCAgqmqu6rqdquKKPGRF9Ey2tQh5jP_5wUDZiTHD1w7zJbr9rASu8yAhMjJer4KZKPXFNuoC9rWgKsNx4GCwoLUYuQwqiUOYNGvt9GFwxriZiRYmPm4R1DRMmq5gbzYIfxJRMBRSMRi3m00]--></g></svg>