<?xml version="1.0" encoding="us-ascii" standalone="no"?><svg xmlns="http://www.w3.org/2000/svg" xmlns:xlink="http://www.w3.org/1999/xlink" contentStyleType="text/css" height="1458px" preserveAspectRatio="none" style="width:2896px;height:1458px;background:#FFFFFF;" version="1.1" viewBox="0 0 2896 1458" width="2896px" zoomAndPan="magnify"><defs/><g><!--cluster Modul Medikation--><g id="cluster_Modul Medikation"><rect fill="none" height="90" rx="2.5" ry="2.5" style="stroke:#181818;stroke-width:1.0;" width="178" x="7" y="1141"/><text fill="#000000" font-family="sans-serif" font-size="14" font-weight="bold" lengthAdjust="spacing" textLength="126" x="33" y="1157.5332">Modul Medikation</text></g><!--cluster Onkologie Observations--><g id="cluster_Onkologie Observations"><rect fill="none" height="90" rx="2.5" ry="2.5" style="stroke:#181818;stroke-width:1.0;" width="1619" x="699" y="1018"/><text fill="#000000" font-family="sans-serif" font-size="14" font-weight="bold" lengthAdjust="spacing" textLength="171" x="1423" y="1034.5332">Onkologie Observations</text></g><!--cluster Modul Pathologiebefund--><g id="cluster_Modul Pathologiebefund"><rect fill="none" height="206" rx="2.5" ry="2.5" style="stroke:#181818;stroke-width:1.0;" width="189" x="2162" y="7"/><text fill="#000000" font-family="sans-serif" font-size="14" font-weight="bold" lengthAdjust="spacing" textLength="173" x="2170" y="23.5332">Modul Pathologiebefund</text></g><!--cluster Modul MolGen-Befundbericht--><g id="cluster_Modul MolGen-Befundbericht"><rect fill="none" height="206" rx="2.5" ry="2.5" style="stroke:#181818;stroke-width:1.0;" width="225" x="2538" y="7"/><text fill="#000000" font-family="sans-serif" font-size="14" font-weight="bold" lengthAdjust="spacing" textLength="209" x="2546" y="23.5332">Modul MolGen-Befundbericht</text></g><!--cluster Modul Biobank--><g id="cluster_Modul Biobank"><rect fill="none" height="90" rx="2.5" ry="2.5" style="stroke:#181818;stroke-width:1.0;" width="128" x="2378" y="342"/><text fill="#000000" font-family="sans-serif" font-size="14" font-weight="bold" lengthAdjust="spacing" textLength="105" x="2389.5" y="358.5332">Modul Biobank</text></g><g id="elem_MedicationStatement"><rect fill="#FFCCFF" height="37.6094" style="stroke:#181818;stroke-width:0.5;" width="146" x="23" y="1177"/><text fill="#000000" font-family="sans-serif" font-size="14" lengthAdjust="spacing" textLength="132" x="30" y="1193.5332">MedicationStatement</text><line style="stroke:#181818;stroke-width:0.5;" x1="24" x2="168" y1="1198.6094" y2="1198.6094"/></g><g id="elem_Onko_Variante"><rect fill="#22FF22" height="37.6094" style="stroke:#181818;stroke-width:0.5;" width="109" x="2192.5" y="1054"/><text fill="#000000" font-family="sans-serif" font-size="14" lengthAdjust="spacing" textLength="95" x="2199.5" y="1070.5332">Onko_Variante</text><line style="stroke:#181818;stroke-width:0.5;" x1="2193.5" x2="2300.5" y1="1075.6094" y2="1075.6094"/></g><g id="elem_Fernmetastasen"><rect fill="#22FF22" height="37.6094" style="stroke:#181818;stroke-width:0.5;" width="117" x="1273.5" y="1054"/><text fill="#000000" font-family="sans-serif" font-size="14" lengthAdjust="spacing" textLength="103" x="1280.5" y="1070.5332">Fernmetastasen</text><line style="stroke:#181818;stroke-width:0.5;" x1="1274.5" x2="1389.5" y1="1075.6094" y2="1075.6094"/></g><g id="elem_TNM_Klassifikation"><rect fill="#22FF22" height="37.6094" style="stroke:#181818;stroke-width:0.5;" width="133" x="1425.5" y="1054"/><text fill="#000000" font-family="sans-serif" font-size="14" lengthAdjust="spacing" textLength="119" x="1432.5" y="1070.5332">TNM_Klassifikation</text><line style="stroke:#181818;stroke-width:0.5;" x1="1426.5" x2="1557.5" y1="1075.6094" y2="1075.6094"/></g><g id="elem_WeitereKlassifikation"><rect fill="#22FF22" height="37.6094" style="stroke:#181818;stroke-width:0.5;" width="145" x="715.5" y="1054"/><text fill="#000000" font-family="sans-serif" font-size="14" lengthAdjust="spacing" textLength="131" x="722.5" y="1070.5332">WeitereKlassifikation</text><line style="stroke:#181818;stroke-width:0.5;" x1="716.5" x2="859.5" y1="1075.6094" y2="1075.6094"/></g><g id="elem_Lymphknotenuntersuchung"><rect fill="#22FF22" height="37.6094" style="stroke:#181818;stroke-width:0.5;" width="186" x="1594" y="1054"/><text fill="#000000" font-family="sans-serif" font-size="14" lengthAdjust="spacing" textLength="172" x="1601" y="1070.5332">Lymphknotenuntersuchung</text><line style="stroke:#181818;stroke-width:0.5;" x1="1595" x2="1779" y1="1075.6094" y2="1075.6094"/></g><g id="elem_HistologieGrading"><rect fill="#22FF22" height="37.6094" style="stroke:#181818;stroke-width:0.5;" width="126" x="1815" y="1054"/><text fill="#000000" font-family="sans-serif" font-size="14" lengthAdjust="spacing" textLength="112" x="1822" y="1070.5332">HistologieGrading</text><line style="stroke:#181818;stroke-width:0.5;" x1="1816" x2="1940" y1="1075.6094" y2="1075.6094"/></g><g id="elem_Residualstatus"><rect fill="#22FF22" height="37.6094" style="stroke:#181818;stroke-width:0.5;" width="107" x="2050.5" y="1054"/><text fill="#000000" font-family="sans-serif" font-size="14" lengthAdjust="spacing" textLength="93" x="2057.5" y="1070.5332">Residualstatus</text><line style="stroke:#181818;stroke-width:0.5;" x1="2051.5" x2="2156.5" y1="1075.6094" y2="1075.6094"/></g><g id="elem_Allgemeiner_Leistungszustand"><rect fill="#22FF22" height="37.6094" style="stroke:#181818;stroke-width:0.5;" width="206" x="1032" y="1054"/><text fill="#000000" font-family="sans-serif" font-size="14" lengthAdjust="spacing" textLength="192" x="1039" y="1070.5332">Allgemeiner_Leistungszustand</text><line style="stroke:#181818;stroke-width:0.5;" x1="1033" x2="1237" y1="1075.6094" y2="1075.6094"/></g><g id="elem_Tod"><rect fill="#22FF22" height="37.6094" style="stroke:#181818;stroke-width:0.5;" width="39" x="1976.5" y="1054"/><text fill="#000000" font-family="sans-serif" font-size="14" lengthAdjust="spacing" textLength="25" x="1983.5" y="1070.5332">Tod</text><line style="stroke:#181818;stroke-width:0.5;" x1="1977.5" x2="2014.5" y1="1075.6094" y2="1075.6094"/></g><g id="elem_Onko_Befund"><rect fill="#88FF88" height="37.6094" style="stroke:#181818;stroke-width:0.5;" width="101" x="895.5" y="1054"/><text fill="#000000" font-family="sans-serif" font-size="14" lengthAdjust="spacing" textLength="87" x="902.5" y="1070.5332">Onko_Befund</text><line style="stroke:#181818;stroke-width:0.5;" x1="896.5" x2="995.5" y1="1075.6094" y2="1075.6094"/></g><g id="elem_MII_PathoAnforderung"><rect fill="#DDFFDD" height="37.6094" style="stroke:#181818;stroke-width:0.5;" width="155" x="2178.5" y="159"/><text fill="#000000" font-family="sans-serif" font-size="14" lengthAdjust="spacing" textLength="141" x="2185.5" y="175.5332">MII_PathoAnforderung</text><line style="stroke:#181818;stroke-width:0.5;" x1="2179.5" x2="2332.5" y1="180.6094" y2="180.6094"/></g><g id="elem_MII_PathoBefund"><rect fill="#88FF88" height="37.6094" style="stroke:#181818;stroke-width:0.5;" width="121" x="2178.5" y="43"/><text fill="#000000" font-family="sans-serif" font-size="14" lengthAdjust="spacing" textLength="107" x="2185.5" y="59.5332">MII_PathoBefund</text><line style="stroke:#181818;stroke-width:0.5;" x1="2179.5" x2="2298.5" y1="64.6094" y2="64.6094"/></g><g id="elem_MII_MolGenAnforderung"><rect fill="#DDFFDD" height="37.6094" style="stroke:#181818;stroke-width:0.5;" width="167" x="2567.5" y="159"/><text fill="#000000" font-family="sans-serif" font-size="14" lengthAdjust="spacing" textLength="153" x="2574.5" y="175.5332">MII_MolGenAnforderung</text><line style="stroke:#181818;stroke-width:0.5;" x1="2568.5" x2="2733.5" y1="180.6094" y2="180.6094"/></g><g id="elem_MII_MolGenBefund"><rect fill="#88FF88" height="37.6094" style="stroke:#181818;stroke-width:0.5;" width="133" x="2596.5" y="43"/><text fill="#000000" font-family="sans-serif" font-size="14" lengthAdjust="spacing" textLength="119" x="2603.5" y="59.5332">MII_MolGenBefund</text><line style="stroke:#181818;stroke-width:0.5;" x1="2597.5" x2="2728.5" y1="64.6094" y2="64.6094"/></g><g id="elem_MII_Bioprobe"><rect fill="#44FFFF" height="37.6094" style="stroke:#181818;stroke-width:0.5;" width="96" x="2394" y="378"/><text fill="#000000" font-family="sans-serif" font-size="14" lengthAdjust="spacing" textLength="82" x="2401" y="394.5332">MII_Bioprobe</text><line style="stroke:#181818;stroke-width:0.5;" x1="2395" x2="2489" y1="399.6094" y2="399.6094"/></g><g id="elem_Onko_OP"><rect fill="#9999FF" height="37.6094" style="stroke:#181818;stroke-width:0.5;" width="76" x="164" y="916"/><text fill="#000000" font-family="sans-serif" font-size="14" lengthAdjust="spacing" textLength="62" x="171" y="932.5332">Onko_OP</text><line style="stroke:#181818;stroke-width:0.5;" x1="165" x2="239" y1="937.6094" y2="937.6094"/></g><g id="elem_Onko_Strahlentherapie"><rect fill="#9999FF" height="37.6094" style="stroke:#181818;stroke-width:0.5;" width="161" x="573.5" y="916"/><text fill="#000000" font-family="sans-serif" font-size="14" lengthAdjust="spacing" textLength="147" x="580.5" y="932.5332">Onko_Strahlentherapie</text><line style="stroke:#181818;stroke-width:0.5;" x1="574.5" x2="733.5" y1="937.6094" y2="937.6094"/></g><g id="elem_Onko_SystemischeTherapie"><rect fill="#9999FF" height="37.6094" style="stroke:#181818;stroke-width:0.5;" width="192" x="275" y="916"/><text fill="#000000" font-family="sans-serif" font-size="14" lengthAdjust="spacing" textLength="178" x="282" y="932.5332">Onko_SystemischeTherapie</text><line style="stroke:#181818;stroke-width:0.5;" x1="276" x2="466" y1="937.6094" y2="937.6094"/></g><g id="elem_Therapieplanung_Tumorkonferenz"><rect fill="#CCCCFF" height="37.6094" style="stroke:#181818;stroke-width:0.5;" width="233" x="448.5" y="800"/><text fill="#000000" font-family="sans-serif" font-size="14" lengthAdjust="spacing" textLength="219" x="455.5" y="816.5332">Therapieplanung_Tumorkonferenz</text><line style="stroke:#181818;stroke-width:0.5;" x1="449.5" x2="680.5" y1="821.6094" y2="821.6094"/></g><g id="elem_Diagnose_Primaertumor"><rect fill="#FFFF66" height="37.6094" style="stroke:#181818;stroke-width:0.5;" width="167" x="1021.5" y="605"/><text fill="#000000" font-family="sans-serif" font-size="14" lengthAdjust="spacing" textLength="153" x="1028.5" y="621.5332">Diagnose_Primaertumor</text><line style="stroke:#181818;stroke-width:0.5;" x1="1022.5" x2="1187.5" y1="626.6094" y2="626.6094"/></g><g id="elem_Evidenz_Erstdiagnose"><rect fill="#EEEEEE" height="37.6094" style="stroke:#181818;stroke-width:0.5;" width="154" x="746" y="605"/><text fill="#000000" font-family="sans-serif" font-size="14" lengthAdjust="spacing" textLength="140" x="753" y="621.5332">Evidenz_Erstdiagnose</text><line style="stroke:#181818;stroke-width:0.5;" x1="747" x2="899" y1="626.6094" y2="626.6094"/></g><g id="elem_Verlauf"><rect fill="#22FF22" height="37.6094" style="stroke:#181818;stroke-width:0.5;" width="59" x="1836.5" y="800"/><text fill="#000000" font-family="sans-serif" font-size="14" lengthAdjust="spacing" textLength="45" x="1843.5" y="816.5332">Verlauf</text><line style="stroke:#181818;stroke-width:0.5;" x1="1837.5" x2="1894.5" y1="821.6094" y2="821.6094"/></g><!--class PrimaerDiagnose--><g id="elem_PrimaerDiagnose"><rect fill="#F1F1F1" height="48" id="PrimaerDiagnose" rx="2.5" ry="2.5" style="stroke:#181818;stroke-width:0.5;" width="141" x="2093.5" y="479"/><ellipse cx="2108.5" cy="495" fill="#ADD1B2" rx="11" ry="11" style="stroke:#181818;stroke-width:1.0;"/><path d="M2111.2656,490.875 Q2111.4219,490.6563 2111.6094,490.5469 Q2111.7969,490.4375 2112.0156,490.4375 Q2112.3906,490.4375 2112.625,490.6953 Q2112.8594,490.9531 2112.8594,491.5625 L2112.8594,493.0156 Q2112.8594,493.625 2112.625,493.8906 Q2112.3906,494.1563 2112.0156,494.1563 Q2111.6719,494.1563 2111.4688,493.9531 Q2111.2656,493.7656 2111.1563,493.25 Q2111.1094,492.8906 2110.9219,492.7031 Q2110.5938,492.3281 2109.9844,492.1094 Q2109.375,491.8906 2108.75,491.8906 Q2107.9844,491.8906 2107.3516,492.2188 Q2106.7188,492.5469 2106.2266,493.2969 Q2105.7344,494.0469 2105.7344,495.0781 L2105.7344,496.1719 Q2105.7344,497.4063 2106.625,498.2266 Q2107.5156,499.0469 2109.1094,499.0469 Q2110.0469,499.0469 2110.7031,498.7969 Q2111.0938,498.6406 2111.5156,498.2031 Q2111.7813,497.9375 2111.9297,497.8594 Q2112.0781,497.7813 2112.2813,497.7813 Q2112.6094,497.7813 2112.8672,498.0391 Q2113.125,498.2969 2113.125,498.6406 Q2113.125,498.9844 2112.7813,499.3906 Q2112.2813,499.9688 2111.4844,500.2969 Q2110.4063,500.75 2109.1094,500.75 Q2107.5938,500.75 2106.3906,500.125 Q2105.4063,499.625 2104.7188,498.5547 Q2104.0313,497.4844 2104.0313,496.2031 L2104.0313,495.0469 Q2104.0313,493.7188 2104.6484,492.5703 Q2105.2656,491.4219 2106.3594,490.8047 Q2107.4531,490.1875 2108.6875,490.1875 Q2109.4219,490.1875 2110.0703,490.3516 Q2110.7188,490.5156 2111.2656,490.875 Z " fill="#000000"/><text fill="#000000" font-family="sans-serif" font-size="14" lengthAdjust="spacing" textLength="109" x="2122.5" y="500.7285">PrimaerDiagnose</text><line style="stroke:#181818;stroke-width:0.5;" x1="2094.5" x2="2233.5" y1="511" y2="511"/><line style="stroke:#181818;stroke-width:0.5;" x1="2094.5" x2="2233.5" y1="519" y2="519"/></g><g id="elem_AdverseEvent"><rect fill="#FF9999" height="37.6094" style="stroke:#181818;stroke-width:0.5;" width="102" x="397" y="1177"/><text fill="#000000" font-family="sans-serif" font-size="14" lengthAdjust="spacing" textLength="88" x="404" y="1193.5332">AdverseEvent</text><line style="stroke:#181818;stroke-width:0.5;" x1="398" x2="498" y1="1198.6094" y2="1198.6094"/></g><!--reverse link Therapieplanung_Tumorkonferenz to Onko_OP--><g id="link_Therapieplanung_Tumorkonferenz_Onko_OP"><path codeLine="8" d="M482.238,839.3779 C424.068,852.9979 360,868 360,868 C360,868 287.01,898.49 240.25,918.02 " fill="none" id="Therapieplanung_Tumorkonferenz-backto-Onko_OP" style="stroke:#181818;stroke-width:1.0;"/><polygon fill="#181818" points="488.08,838.01,478.4051,836.1671,483.2117,839.1499,480.2289,843.9564,488.08,838.01" style="stroke:#181818;stroke-width:1.0;"/><text fill="#000000" font-family="sans-serif" font-size="13" lengthAdjust="spacing" textLength="52" x="361" y="882.4951">basedOn</text></g><!--reverse link Therapieplanung_Tumorkonferenz to Onko_Strahlentherapie--><g id="link_Therapieplanung_Tumorkonferenz_Onko_Strahlentherapie"><path codeLine="9" d="M582.7927,842.789 C599.3627,864.009 623,894.3 639.67,915.64 " fill="none" id="Therapieplanung_Tumorkonferenz-backto-Onko_Strahlentherapie" style="stroke:#181818;stroke-width:1.0;"/><polygon fill="#181818" points="579.1,838.06,581.4864,847.6154,582.1773,842.0009,587.7918,842.6917,579.1,838.06" style="stroke:#181818;stroke-width:1.0;"/><text fill="#000000" font-family="sans-serif" font-size="13" lengthAdjust="spacing" textLength="52" x="616" y="882.4951">basedOn</text></g><!--reverse link Therapieplanung_Tumorkonferenz to Onko_SystemischeTherapie--><g id="link_Therapieplanung_Tumorkonferenz_Onko_SystemischeTherapie"><path codeLine="10" d="M512.4987,840.1608 C477.0287,853.7808 440,868 440,868 C440,868 410.28,896.42 389.85,915.97 " fill="none" id="Therapieplanung_Tumorkonferenz-backto-Onko_SystemischeTherapie" style="stroke:#181818;stroke-width:1.0;"/><polygon fill="#181818" points="518.1,838.01,508.2643,837.502,513.4323,839.8023,511.132,844.9704,518.1,838.01" style="stroke:#181818;stroke-width:1.0;"/><text fill="#000000" font-family="sans-serif" font-size="13" lengthAdjust="spacing" textLength="52" x="441" y="882.4951">basedOn</text></g><!--reverse link Onko_SystemischeTherapie to MedicationStatement--><g id="link_Onko_SystemischeTherapie_MedicationStatement"><path codeLine="14" d="M347.2925,958.324 C296.8025,1005.884 165.78,1129.28 115.32,1176.81 " fill="none" id="Onko_SystemischeTherapie-backto-MedicationStatement" style="stroke:#181818;stroke-width:1.0;"/><polygon fill="#181818" points="351.66,954.21,342.3661,957.4694,348.0204,957.6384,347.8515,963.2927,351.66,954.21" style="stroke:#181818;stroke-width:1.0;"/><text fill="#000000" font-family="sans-serif" font-size="13" lengthAdjust="spacing" textLength="35" x="293" y="1078.4951">partOf</text></g><!--reverse link Therapieplanung_Tumorkonferenz to MedicationStatement--><g id="link_Therapieplanung_Tumorkonferenz_MedicationStatement"><path codeLine="15" d="M554.6478,843.5637 C526.4278,907.8337 435,1116 435,1116 C435,1116 268.8,1154.73 169.14,1177.96 " fill="none" id="Therapieplanung_Tumorkonferenz-backto-MedicationStatement" style="stroke:#181818;stroke-width:1.0;"/><polygon fill="#181818" points="557.06,838.07,549.7792,844.7025,555.0498,842.6481,557.1042,847.9188,557.06,838.07" style="stroke:#181818;stroke-width:1.0;"/><text fill="#000000" font-family="sans-serif" font-size="13" lengthAdjust="spacing" textLength="52" x="494" y="998.4951">basedOn</text></g><!--reverse link Evidenz_Erstdiagnose to Diagnose_Primaertumor--><g id="link_Evidenz_Erstdiagnose_Diagnose_Primaertumor"><path codeLine="18" d="M906.06,624 C943.65,624 982.93,624 1021.36,624 " fill="none" id="Evidenz_Erstdiagnose-backto-Diagnose_Primaertumor" style="stroke:#181818;stroke-width:1.0;"/><polygon fill="#181818" points="900.06,624,909.06,628,905.06,624,909.06,620,900.06,624" style="stroke:#181818;stroke-width:1.0;"/><text fill="#000000" font-family="sans-serif" font-size="13" lengthAdjust="spacing" textLength="85" x="918.25" y="617.4951">evidence.detail</text></g><!--reverse link Diagnose_Primaertumor to TNM_Klassifikation--><g id="link_Diagnose_Primaertumor_TNM_Klassifikation"><path codeLine="34" d="M1117.7562,648.4511 C1158.7062,723.7611 1310,1002 1310,1002 C1310,1002 1408,1010 1408,1010 C1408,1010 1442.47,1035.44 1467.25,1053.73 " fill="none" id="Diagnose_Primaertumor-backto-TNM_Klassifikation" style="stroke:#181818;stroke-width:1.0;"/><polygon fill="#181818" points="1114.89,643.18,1115.6752,652.9975,1117.2785,647.5726,1122.7034,649.1759,1114.89,643.18" style="stroke:#181818;stroke-width:1.0;"/><text fill="#000000" font-family="sans-serif" font-size="13" lengthAdjust="spacing" textLength="31" x="1221" y="824.4951">focus</text></g><!--reverse link Diagnose_Primaertumor to Therapieplanung_Tumorkonferenz--><g id="link_Diagnose_Primaertumor_Therapieplanung_Tumorkonferenz"><path codeLine="35" d="M1016.9691,644.2946 C954.8291,657.9146 886,673 886,673 C886,673 691.06,761.06 605.01,799.93 " fill="none" id="Diagnose_Primaertumor-backto-Therapieplanung_Tumorkonferenz" style="stroke:#181818;stroke-width:1.0;"/><polygon fill="#181818" points="1022.83,643.01,1013.1823,641.0297,1017.9459,644.0805,1014.8951,648.8441,1022.83,643.01" style="stroke:#181818;stroke-width:1.0;"/><text fill="#000000" font-family="sans-serif" font-size="13" lengthAdjust="spacing" textLength="60" x="779" y="735.4951">addresses</text></g><!--reverse link Diagnose_Primaertumor to Lymphknotenuntersuchung--><g id="link_Diagnose_Primaertumor_Lymphknotenuntersuchung"><path codeLine="36" d="M1163.2732,645.0731 C1249.8032,674.8631 1407,729 1407,729 C1407,729 1407,729 1407,936 C1407,936 1576,1010 1576,1010 C1576,1010 1621.83,1035.6 1654.6,1053.9 " fill="none" id="Diagnose_Primaertumor-backto-Lymphknotenuntersuchung" style="stroke:#181818;stroke-width:1.0;"/><polygon fill="#181818" points="1157.6,643.12,1164.8077,649.8318,1162.3277,644.7476,1167.4119,642.2676,1157.6,643.12" style="stroke:#181818;stroke-width:1.0;"/><text fill="#000000" font-family="sans-serif" font-size="13" lengthAdjust="spacing" textLength="31" x="1408" y="824.4951">focus</text></g><!--reverse link Diagnose_Primaertumor to HistologieGrading--><g id="link_Diagnose_Primaertumor_HistologieGrading"><path codeLine="37" d="M1194.4404,643.1321 C1339.8104,672.6021 1618,729 1618,729 C1618,729 1618,729 1618,878 C1618,878 1798,1010 1798,1010 C1798,1010 1830.83,1035.44 1854.43,1053.73 " fill="none" id="Diagnose_Primaertumor-backto-HistologieGrading" style="stroke:#181818;stroke-width:1.0;"/><polygon fill="#181818" points="1188.56,641.94,1196.5858,647.6484,1193.4603,642.9334,1198.1753,639.8079,1188.56,641.94" style="stroke:#181818;stroke-width:1.0;"/><text fill="#000000" font-family="sans-serif" font-size="13" lengthAdjust="spacing" textLength="31" x="1619" y="824.4951">focus</text></g><!--reverse link Diagnose_Primaertumor to Onko_Variante--><g id="link_Diagnose_Primaertumor_Onko_Variante"><path codeLine="38" d="M1194.677,639.1128 C1284.967,653.3228 1410,673 1410,673 C1410,673 1626,721 1626,721 C1626,721 2364,916 2364,916 C2364,916 2372,984 2372,984 C2372,984 2372,1002 2372,1002 C2372,1002 2316.23,1033.23 2279.19,1053.97 " fill="none" id="Diagnose_Primaertumor-backto-Onko_Variante" style="stroke:#181818;stroke-width:1.0;"/><polygon fill="#181818" points="1188.75,638.18,1197.0187,643.5306,1193.6892,638.9573,1198.2624,635.6278,1188.75,638.18" style="stroke:#181818;stroke-width:1.0;"/><text fill="#000000" font-family="sans-serif" font-size="13" lengthAdjust="spacing" textLength="31" x="2067" y="824.4951">focus</text></g><!--reverse link Diagnose_Primaertumor to WeitereKlassifikation--><g id="link_Diagnose_Primaertumor_WeitereKlassifikation"><path codeLine="39" d="M1082.2784,647.4134 C1017.6884,711.1234 810,916 810,916 C810,916 796.37,1012.65 790.57,1053.8 " fill="none" id="Diagnose_Primaertumor-backto-WeitereKlassifikation" style="stroke:#181818;stroke-width:1.0;"/><polygon fill="#181818" points="1086.55,643.2,1077.3336,646.6724,1082.9903,646.7112,1082.9515,652.3679,1086.55,643.2" style="stroke:#181818;stroke-width:1.0;"/><text fill="#000000" font-family="sans-serif" font-size="13" lengthAdjust="spacing" textLength="31" x="927" y="824.4951">focus</text></g><!--reverse link Diagnose_Primaertumor to Allgemeiner_Leistungszustand--><g id="link_Diagnose_Primaertumor_Allgemeiner_Leistungszustand"><path codeLine="40" d="M1043.7626,644.8608 C1001.7626,658.4808 957,673 957,673 C957,673 957,691 957,691 C957,691 978,838 978,838 C978,838 1028,1002 1028,1002 C1028,1002 1075.74,1033.23 1107.44,1053.97 " fill="none" id="Diagnose_Primaertumor-backto-Allgemeiner_Leistungszustand" style="stroke:#181818;stroke-width:1.0;"/><polygon fill="#181818" points="1049.47,643.01,1039.675,641.9813,1044.7138,644.5524,1042.1428,649.5912,1049.47,643.01" style="stroke:#181818;stroke-width:1.0;"/><text fill="#000000" font-family="sans-serif" font-size="13" lengthAdjust="spacing" textLength="31" x="979" y="824.4951">focus</text></g><!--reverse link Diagnose_Primaertumor to Fernmetastasen--><g id="link_Diagnose_Primaertumor_Fernmetastasen"><path codeLine="41" d="M1093.4766,648.5063 C1078.8566,678.2963 1054,729 1054,729 C1054,729 1054,729 1054,936 C1054,936 1099,954 1099,954 C1099,954 1256,1010 1256,1010 C1256,1010 1287.19,1035.44 1309.61,1053.73 " fill="none" id="Diagnose_Primaertumor-backto-Fernmetastasen" style="stroke:#181818;stroke-width:1.0;"/><polygon fill="#181818" points="1096.12,643.12,1088.564,649.4372,1093.9171,647.6086,1095.7457,652.9617,1096.12,643.12" style="stroke:#181818;stroke-width:1.0;"/><text fill="#000000" font-family="sans-serif" font-size="13" lengthAdjust="spacing" textLength="31" x="1055" y="824.4951">focus</text></g><!--reverse link Therapieplanung_Tumorkonferenz to Onko_Befund--><g id="link_Therapieplanung_Tumorkonferenz_Onko_Befund"><path codeLine="43" d="M612.5349,840.3735 C644.3149,853.9935 677,868 677,868 C677,868 752,916 752,916 C752,916 878,1010 878,1010 C878,1010 905.91,1035.44 925.97,1053.73 " fill="none" id="Therapieplanung_Tumorkonferenz-backto-Onko_Befund" style="stroke:#181818;stroke-width:1.0;"/><polygon fill="#181818" points="607.02,838.01,613.7166,845.2319,611.6157,839.9796,616.868,837.8787,607.02,838.01" style="stroke:#181818;stroke-width:1.0;"/><text fill="#000000" font-family="sans-serif" font-size="13" lengthAdjust="spacing" textLength="52" x="803" y="940.4951">basedOn</text></g><!--reverse link PrimaerDiagnose to Verlauf--><g id="link_PrimaerDiagnose_Verlauf"><path codeLine="46" d="M2137.9599,531.4422 C2081.2399,591.2122 1934.59,745.73 1883.34,799.73 " fill="none" id="PrimaerDiagnose-backto-Verlauf" style="stroke:#181818;stroke-width:1.0;"/><polygon fill="#181818" points="2142.09,527.09,2132.9933,530.8649,2138.6482,530.7169,2138.7963,536.3718,2142.09,527.09" style="stroke:#181818;stroke-width:1.0;"/><text fill="#000000" font-family="sans-serif" font-size="13" lengthAdjust="spacing" textLength="31" x="2003" y="687.4951">focus</text></g><!--link Verlauf to Tod--><g id="link_Verlauf_Tod"><path codeLine="47" d="M1895.72,826.57 C1955.15,839.72 2083,868 2083,868 C2083,868 2135,916 2135,916 C2135,916 2135,954 2135,954 C2135,954 2033,1010 2033,1010 C2033,1010 2020.8958,1030.2883 2009.9758,1048.5783 " fill="none" id="Verlauf-to-Tod" style="stroke:#181818;stroke-width:1.0;"/><polygon fill="#181818" points="2006.9,1053.73,2014.9481,1048.053,2009.4632,1049.437,2008.0792,1043.952,2006.9,1053.73" style="stroke:#181818;stroke-width:1.0;"/><text fill="#000000" font-family="sans-serif" font-size="13" lengthAdjust="spacing" textLength="68" x="2136" y="940.4951">hasMember</text></g><!--link Verlauf to TNM_Klassifikation--><g id="link_Verlauf_TNM_Klassifikation"><path codeLine="48" d="M1836.37,836.07 C1785.99,863.4 1689,916 1689,916 C1689,916 1571.654,1008.9254 1519.684,1050.0754 " fill="none" id="Verlauf-to-TNM_Klassifikation" style="stroke:#181818;stroke-width:1.0;"/><polygon fill="#181818" points="1514.98,1053.8,1524.519,1051.3491,1518.9,1050.6962,1519.5529,1045.0771,1514.98,1053.8" style="stroke:#181818;stroke-width:1.0;"/><text fill="#000000" font-family="sans-serif" font-size="13" lengthAdjust="spacing" textLength="68" x="1690" y="940.4951">hasMember</text></g><!--link Verlauf to Lymphknotenuntersuchung--><g id="link_Verlauf_Lymphknotenuntersuchung"><path codeLine="49" d="M1852.08,838.06 C1830.65,865.87 1792,916 1792,916 C1792,916 1730.3005,1007.6726 1702.6005,1048.8226 " fill="none" id="Verlauf-to-Lymphknotenuntersuchung" style="stroke:#181818;stroke-width:1.0;"/><polygon fill="#181818" points="1699.25,1053.8,1707.594,1048.5676,1702.0421,1049.6522,1700.9575,1044.1003,1699.25,1053.8" style="stroke:#181818;stroke-width:1.0;"/><text fill="#000000" font-family="sans-serif" font-size="13" lengthAdjust="spacing" textLength="68" x="1793" y="940.4951">hasMember</text></g><!--link Verlauf to HistologieGrading--><g id="link_Verlauf_HistologieGrading"><path codeLine="50" d="M1866.86,838.12 C1869.07,884.51 1874.6243,1001.1368 1876.8443,1047.7068 " fill="none" id="Verlauf-to-HistologieGrading" style="stroke:#181818;stroke-width:1.0;"/><polygon fill="#181818" points="1877.13,1053.7,1880.6969,1044.5197,1876.8919,1048.7057,1872.706,1044.9007,1877.13,1053.7" style="stroke:#181818;stroke-width:1.0;"/><text fill="#000000" font-family="sans-serif" font-size="13" lengthAdjust="spacing" textLength="68" x="1873" y="940.4951">hasMember</text></g><!--link Verlauf to Fernmetastasen--><g id="link_Verlauf_Fernmetastasen"><path codeLine="51" d="M1836.5,828.7 C1721.55,862.61 1310,984 1310,984 C1310,984 1310,1002 1310,1002 C1310,1002 1318.0231,1027.5054 1324.5331,1048.2454 " fill="none" id="Verlauf-to-Fernmetastasen" style="stroke:#181818;stroke-width:1.0;"/><polygon fill="#181818" points="1326.33,1053.97,1327.4511,1044.1852,1324.8326,1049.1995,1319.8183,1046.581,1326.33,1053.97" style="stroke:#181818;stroke-width:1.0;"/><text fill="#000000" font-family="sans-serif" font-size="13" lengthAdjust="spacing" textLength="68" x="1533" y="940.4951">hasMember</text></g><!--link Verlauf to Residualstatus--><g id="link_Verlauf_Residualstatus"><path codeLine="52" d="M1883.12,838.12 C1926.92,884.51 2038.6099,1002.7683 2082.5999,1049.3383 " fill="none" id="Verlauf-to-Residualstatus" style="stroke:#181818;stroke-width:1.0;"/><polygon fill="#181818" points="2086.72,1053.7,2083.4477,1044.4107,2083.2866,1050.0652,2077.632,1049.9041,2086.72,1053.7" style="stroke:#181818;stroke-width:1.0;"/><text fill="#000000" font-family="sans-serif" font-size="13" lengthAdjust="spacing" textLength="68" x="1989" y="940.4951">hasMember</text></g><!--link Verlauf to Onko_Variante--><g id="link_Verlauf_Onko_Variante"><path codeLine="53" d="M1895.9,825.69 C1962.65,838.41 2118,868 2118,868 C2118,868 2213,916 2213,916 C2213,916 2346,984 2346,984 C2346,984 2346,1002 2346,1002 C2346,1002 2306.7295,1029.7666 2277.3895,1050.5066 " fill="none" id="Verlauf-to-Onko_Variante" style="stroke:#181818;stroke-width:1.0;"/><polygon fill="#181818" points="2272.49,1053.97,2282.1482,1052.0413,2276.5729,1051.0839,2277.5303,1045.5086,2272.49,1053.97" style="stroke:#181818;stroke-width:1.0;"/><text fill="#000000" font-family="sans-serif" font-size="13" lengthAdjust="spacing" textLength="68" x="2287" y="940.4951">hasMember</text></g><!--reverse link MII_PathoBefund to MII_PathoAnforderung--><g id="link_MII_PathoBefund_MII_PathoAnforderung"><path codeLine="59" d="M2242.5765,86.9942 C2245.7465,108.2142 2250.08,137.3 2253.26,158.64 " fill="none" id="MII_PathoBefund-backto-MII_PathoAnforderung" style="stroke:#181818;stroke-width:1.0;"/><polygon fill="#181818" points="2241.69,81.06,2239.0636,90.5522,2242.4287,86.0051,2246.9758,89.3702,2241.69,81.06" style="stroke:#181818;stroke-width:1.0;"/><text fill="#000000" font-family="sans-serif" font-size="13" lengthAdjust="spacing" textLength="43" x="2249" y="125.4951">request</text></g><!--link MII_PathoBefund to TNM_Klassifikation--><g id="link_MII_PathoBefund_TNM_Klassifikation"><path codeLine="60" d="M2178.26,77.67 C2050.78,108.46 1767,177 1767,177 C1767,177 1767,177 1767,625 C1767,625 1575,800 1575,800 C1575,800 1513,984 1513,984 C1513,984 1503.8923,1022.1538 1497.7423,1047.9338 " fill="none" id="MII_PathoBefund-to-TNM_Klassifikation" style="stroke:#181818;stroke-width:1.0;"/><polygon fill="#181818" points="1496.35,1053.77,1502.3292,1045.9438,1497.5102,1048.9065,1494.5476,1044.0875,1496.35,1053.77" style="stroke:#181818;stroke-width:1.0;"/><text fill="#000000" font-family="sans-serif" font-size="13" lengthAdjust="spacing" textLength="32" x="1768" y="571.4951">result</text></g><!--link MII_PathoBefund to WeitereKlassifikation--><g id="link_MII_PathoBefund_WeitereKlassifikation"><path codeLine="61" d="M2178.31,65.43 C1934.57,75.19 1040,111 1040,111 C1040,111 105,159 105,159 C105,159 39,177 39,177 C39,177 39,177 39,936 C39,936 346,1002 346,1002 C346,1002 707,1010 707,1010 C707,1010 735.4752,1031.7936 759.3752,1050.0836 " fill="none" id="MII_PathoBefund-to-WeitereKlassifikation" style="stroke:#181818;stroke-width:1.0;"/><polygon fill="#181818" points="764.14,1053.73,759.4237,1045.0838,760.1693,1050.6913,754.5618,1051.437,764.14,1053.73" style="stroke:#181818;stroke-width:1.0;"/><text fill="#000000" font-family="sans-serif" font-size="13" lengthAdjust="spacing" textLength="32" x="40" y="571.4951">result</text></g><!--link MII_PathoBefund to HistologieGrading--><g id="link_MII_PathoBefund_HistologieGrading"><path codeLine="62" d="M2193.98,81.01 C2159.92,94.63 2119,111 2119,111 C2119,111 1969,177 1969,177 C1969,177 1969,177 1969,936 C1969,936 1918.1775,1011.9639 1893.4175,1048.9539 " fill="none" id="MII_PathoBefund-to-HistologieGrading" style="stroke:#181818;stroke-width:1.0;"/><polygon fill="#181818" points="1890.08,1053.94,1898.4103,1048.6859,1892.8613,1049.7849,1891.7622,1044.2359,1890.08,1053.94" style="stroke:#181818;stroke-width:1.0;"/><text fill="#000000" font-family="sans-serif" font-size="13" lengthAdjust="spacing" textLength="32" x="1970" y="571.4951">result</text></g><!--link MII_PathoBefund to Fernmetastasen--><g id="link_MII_PathoBefund_Fernmetastasen"><path codeLine="63" d="M2178.23,66.26 C1830.95,84.88 113,177 113,177 C113,177 113,177 113,504 C113,504 146,954 146,954 C146,954 478,1002 478,1002 C478,1002 1256,1010 1256,1010 C1256,1010 1282.5408,1031.6472 1304.9608,1049.9372 " fill="none" id="MII_PathoBefund-to-Fernmetastasen" style="stroke:#181818;stroke-width:1.0;"/><polygon fill="#181818" points="1309.61,1053.73,1305.1647,1044.9414,1305.7357,1050.5694,1300.1077,1051.1403,1309.61,1053.73" style="stroke:#181818;stroke-width:1.0;"/><text fill="#000000" font-family="sans-serif" font-size="13" lengthAdjust="spacing" textLength="32" x="120" y="571.4951">result</text></g><!--link MII_PathoBefund to Residualstatus--><g id="link_MII_PathoBefund_Residualstatus"><path codeLine="64" d="M2207.47,81.06 C2151.36,113.21 2040,177 2040,177 C2040,177 2040,177 2040,449 C2040,449 2213,916 2213,916 C2213,916 2213,954 2213,954 C2213,954 2155.4416,1016.3129 2124.8616,1049.4129 " fill="none" id="MII_PathoBefund-to-Residualstatus" style="stroke:#181818;stroke-width:1.0;"/><polygon fill="#181818" points="2120.79,1053.82,2129.8354,1049.9237,2124.183,1050.1474,2123.9593,1044.495,2120.79,1053.82" style="stroke:#181818;stroke-width:1.0;"/><text fill="#000000" font-family="sans-serif" font-size="13" lengthAdjust="spacing" textLength="32" x="2087" y="571.4951">result</text></g><!--link MII_PathoBefund to Onko_Variante--><g id="link_MII_PathoBefund_Onko_Variante"><path codeLine="65" d="M2224.33,81.06 C2201.73,108.87 2161,159 2161,159 C2161,159 2161,221 2161,221 C2161,221 2378,440 2378,440 C2378,440 2602,502 2602,502 C2602,502 2602,502 2602,936 C2602,936 2396.313,1014.8038 2299.743,1051.7938 " fill="none" id="MII_PathoBefund-to-Onko_Variante" style="stroke:#181818;stroke-width:1.0;"/><polygon fill="#181818" points="2294.14,1053.94,2303.9753,1054.4561,2298.8092,1052.1515,2301.1138,1046.9854,2294.14,1053.94" style="stroke:#181818;stroke-width:1.0;"/><text fill="#000000" font-family="sans-serif" font-size="13" lengthAdjust="spacing" textLength="32" x="2603" y="571.4951">result</text></g><!--reverse link MII_MolGenBefund to MII_MolGenAnforderung--><g id="link_MII_MolGenBefund_MII_MolGenAnforderung"><path codeLine="73" d="M2660.4701,87.0268 C2658.2301,108.2468 2655.18,137.3 2652.93,158.64 " fill="none" id="MII_MolGenBefund-backto-MII_MolGenAnforderung" style="stroke:#181818;stroke-width:1.0;"/><polygon fill="#181818" points="2661.1,81.06,2656.1773,89.5904,2660.5751,86.0324,2664.1331,90.4302,2661.1,81.06" style="stroke:#181818;stroke-width:1.0;"/><text fill="#000000" font-family="sans-serif" font-size="13" lengthAdjust="spacing" textLength="43" x="2658" y="125.4951">request</text></g><!--link MII_MolGenBefund to Onko_Variante--><g id="link_MII_MolGenBefund_Onko_Variante"><path codeLine="81" d="M2686.29,81.06 C2727.74,113.21 2810,177 2810,177 C2810,177 2810,177 2810,936 C2810,936 2449.0623,1023.1914 2307.5823,1057.3614 " fill="none" id="MII_MolGenBefund-to-Onko_Variante" style="stroke:#181818;stroke-width:1.0;stroke-dasharray:7.0,7.0;"/><polygon fill="#181818" points="2301.75,1058.77,2311.4375,1060.5453,2306.6103,1057.5962,2309.5594,1052.7689,2301.75,1058.77" style="stroke:#181818;stroke-width:1.0;"/><text fill="#000000" font-family="sans-serif" font-size="13" lengthAdjust="spacing" textLength="77" x="2811" y="571.4951">result[variant]</text></g><!--link MII_PathoAnforderung to PrimaerDiagnose--><g id="link_MII_PathoAnforderung_PrimaerDiagnose"><path codeLine="82" d="M2235.11,197.21 C2194.31,232.77 2108,308 2108,308 C2108,308 2108,326 2108,326 C2108,326 2139.6808,425.5624 2154.8608,473.2724 " fill="none" id="MII_PathoAnforderung-to-PrimaerDiagnose" style="stroke:#181818;stroke-width:1.0;stroke-dasharray:7.0,7.0;"/><polygon fill="#181818" points="2156.68,478.99,2157.763,469.2009,2155.164,474.2254,2150.1395,471.6264,2156.68,478.99" style="stroke:#181818;stroke-width:1.0;"/><text fill="#000000" font-family="sans-serif" font-size="13" lengthAdjust="spacing" textLength="97" x="2109" y="322.4951">reasonReference</text></g><!--link MII_MolGenAnforderung to PrimaerDiagnose--><g id="link_MII_MolGenAnforderung_PrimaerDiagnose"><path codeLine="83" d="M2651.68,197.38 C2652.57,221.28 2654,260 2654,260 C2654,260 2654,278 2654,278 C2654,278 2506,440 2506,440 C2506,440 2340.9438,469.9198 2240.7638,488.0798 " fill="none" id="MII_MolGenAnforderung-to-PrimaerDiagnose" style="stroke:#181818;stroke-width:1.0;stroke-dasharray:7.0,7.0;"/><polygon fill="#181818" points="2234.86,489.15,2244.4291,491.4806,2239.7798,488.2582,2243.0022,483.6088,2234.86,489.15" style="stroke:#181818;stroke-width:1.0;"/><text fill="#000000" font-family="sans-serif" font-size="13" lengthAdjust="spacing" textLength="97" x="2627" y="322.4951">reasonReference</text></g><!--link MII_PathoAnforderung to MII_Bioprobe--><g id="link_MII_PathoAnforderung_MII_Bioprobe"><path codeLine="84" d="M2271.54,197.13 C2306.55,237.98 2387.3747,332.2749 2422.4747,373.2149 " fill="none" id="MII_PathoAnforderung-to-MII_Bioprobe" style="stroke:#181818;stroke-width:1.0;stroke-dasharray:7.0,7.0;"/><polygon fill="#181818" points="2426.38,377.77,2423.5588,368.3339,2423.1256,373.9741,2417.4853,373.5409,2426.38,377.77" style="stroke:#181818;stroke-width:1.0;"/><text fill="#000000" font-family="sans-serif" font-size="13" lengthAdjust="spacing" textLength="56" x="2341" y="274.4951">specimen</text></g><!--reverse link MII_PathoAnforderung to MII_Bioprobe--><g id="link_MII_PathoAnforderung_MII_Bioprobe"><path codeLine="85" d="M2259.8875,203.0831 C2264.5075,231.6631 2272,278 2272,278 C2272,278 2368.12,344.72 2415.81,377.82 " fill="none" id="MII_PathoAnforderung-backto-MII_Bioprobe" style="stroke:#181818;stroke-width:1.0;stroke-dasharray:7.0,7.0;"/><polygon fill="#181818" points="2258.93,197.16,2256.4175,206.683,2259.7279,202.0959,2264.315,205.4063,2258.93,197.16" style="stroke:#181818;stroke-width:1.0;"/><text fill="#000000" font-family="sans-serif" font-size="13" lengthAdjust="spacing" textLength="43" x="2273" y="274.4951">request</text></g><!--link MII_MolGenAnforderung to MII_Bioprobe--><g id="link_MII_MolGenAnforderung_MII_Bioprobe"><path codeLine="86" d="M2637.27,197.03 C2607.36,236.28 2539,326 2539,326 C2539,326 2500.5854,353.7189 2471.8454,374.4589 " fill="none" id="MII_MolGenAnforderung-to-MII_Bioprobe" style="stroke:#181818;stroke-width:1.0;stroke-dasharray:7.0,7.0;"/><polygon fill="#181818" points="2466.98,377.97,2476.6188,375.947,2471.0345,375.0441,2471.9374,369.4598,2466.98,377.97" style="stroke:#181818;stroke-width:1.0;"/><text fill="#000000" font-family="sans-serif" font-size="13" lengthAdjust="spacing" textLength="56" x="2589" y="274.4951">specimen</text></g><!--reverse link MII_MolGenAnforderung to MII_Bioprobe--><g id="link_MII_MolGenAnforderung_MII_Bioprobe"><path codeLine="87" d="M2616.9687,200.3707 C2578.9387,224.2507 2522,260 2522,260 C2522,260 2474.38,340.95 2452.62,377.94 " fill="none" id="MII_MolGenAnforderung-backto-MII_Bioprobe" style="stroke:#181818;stroke-width:1.0;stroke-dasharray:7.0,7.0;"/><polygon fill="#181818" points="2622.05,197.18,2612.3009,198.5785,2617.8156,199.8389,2616.5552,205.3535,2622.05,197.18" style="stroke:#181818;stroke-width:1.0;"/><text fill="#000000" font-family="sans-serif" font-size="13" lengthAdjust="spacing" textLength="43" x="2523" y="274.4951">request</text></g><!--reverse link Onko_SystemischeTherapie to AdverseEvent--><g id="link_Onko_SystemischeTherapie_AdverseEvent"><path codeLine="90" d="M369.6875,960.2813 C368.5075,982.2013 367,1010 367,1010 C367,1010 367,1116 367,1116 C367,1116 405.29,1153.34 429.21,1176.68 " fill="none" id="Onko_SystemischeTherapie-backto-AdverseEvent" style="stroke:#181818;stroke-width:1.0;"/><polygon fill="#181818" points="370.01,954.29,365.532,963.062,369.7412,959.2828,373.5204,963.492,370.01,954.29" style="stroke:#181818;stroke-width:1.0;"/><text fill="#000000" font-family="sans-serif" font-size="13" lengthAdjust="spacing" textLength="133" x="368" y="1078.4951">suspectEntity.instance</text></g><!--reverse link Onko_Strahlentherapie to AdverseEvent--><g id="link_Onko_Strahlentherapie_AdverseEvent"><path codeLine="91" d="M627.1161,958.1014 C600.4661,980.0214 564,1010 564,1010 C564,1010 488.52,1130.37 459.33,1176.92 " fill="none" id="Onko_Strahlentherapie-backto-AdverseEvent" style="stroke:#181818;stroke-width:1.0;"/><polygon fill="#181818" points="631.75,954.29,622.2582,956.9179,627.8884,957.4662,627.3401,963.0964,631.75,954.29" style="stroke:#181818;stroke-width:1.0;"/><text fill="#000000" font-family="sans-serif" font-size="13" lengthAdjust="spacing" textLength="133" x="565" y="1078.4951">suspectEntity.instance</text></g><rect fill="#DDDDDD" height="190.0938" id="_legend" rx="7.5" ry="7.5" style="stroke:#000000;stroke-width:1.0;" width="153" x="2717" y="1248"/><text fill="#000000" font-family="sans-serif" font-size="14" lengthAdjust="spacing" textLength="34" x="2722" y="1269.5332">Color</text><text fill="#000000" font-family="sans-serif" font-size="14" lengthAdjust="spacing" textLength="32" x="2756" y="1269.5332">Type</text><rect fill="#FFFF66" height="17.6094" style="stroke:none;stroke-width:1.0;" width="34" x="2722" y="1272.6094"/><text fill="#000000" font-family="sans-serif" font-size="14" lengthAdjust="spacing" textLength="4" x="2722" y="1287.1426">&#160;</text><text fill="#000000" font-family="sans-serif" font-size="14" lengthAdjust="spacing" textLength="60" x="2756" y="1287.1426">Condition</text><rect fill="#CCCCFF" height="17.6094" style="stroke:none;stroke-width:1.0;" width="34" x="2722" y="1290.2188"/><text fill="#000000" font-family="sans-serif" font-size="14" lengthAdjust="spacing" textLength="4" x="2722" y="1304.752">&#160;</text><text fill="#000000" font-family="sans-serif" font-size="14" lengthAdjust="spacing" textLength="59" x="2756" y="1304.752">CarePlan</text><rect fill="#9999FF" height="17.6094" style="stroke:none;stroke-width:1.0;" width="34" x="2722" y="1307.8281"/><text fill="#000000" font-family="sans-serif" font-size="14" lengthAdjust="spacing" textLength="4" x="2722" y="1322.3613">&#160;</text><text fill="#000000" font-family="sans-serif" font-size="14" lengthAdjust="spacing" textLength="66" x="2756" y="1322.3613">Procedure</text><rect fill="#DDFFDD" height="17.6094" style="stroke:none;stroke-width:1.0;" width="34" x="2722" y="1325.4375"/><text fill="#000000" font-family="sans-serif" font-size="14" lengthAdjust="spacing" textLength="4" x="2722" y="1339.9707">&#160;</text><text fill="#000000" font-family="sans-serif" font-size="14" lengthAdjust="spacing" textLength="100" x="2756" y="1339.9707">ServiceRequest</text><rect fill="#88FF88" height="17.6094" style="stroke:none;stroke-width:1.0;" width="34" x="2722" y="1343.0469"/><text fill="#000000" font-family="sans-serif" font-size="14" lengthAdjust="spacing" textLength="4" x="2722" y="1357.5801">&#160;</text><text fill="#000000" font-family="sans-serif" font-size="14" lengthAdjust="spacing" textLength="109" x="2756" y="1357.5801">DiagnosticReport</text><rect fill="#22FF22" height="17.6094" style="stroke:none;stroke-width:1.0;" width="34" x="2722" y="1360.6563"/><text fill="#000000" font-family="sans-serif" font-size="14" lengthAdjust="spacing" textLength="4" x="2722" y="1375.1895">&#160;</text><text fill="#000000" font-family="sans-serif" font-size="14" lengthAdjust="spacing" textLength="77" x="2756" y="1375.1895">Observation</text><rect fill="#FFCCFF" height="17.6094" style="stroke:none;stroke-width:1.0;" width="34" x="2722" y="1378.2656"/><text fill="#000000" font-family="sans-serif" font-size="14" lengthAdjust="spacing" textLength="4" x="2722" y="1392.7988">&#160;</text><text fill="#000000" font-family="sans-serif" font-size="14" lengthAdjust="spacing" textLength="68" x="2756" y="1392.7988">Medication</text><rect fill="#FF9999" height="17.6094" style="stroke:none;stroke-width:1.0;" width="34" x="2722" y="1395.875"/><text fill="#000000" font-family="sans-serif" font-size="14" lengthAdjust="spacing" textLength="4" x="2722" y="1410.4082">&#160;</text><text fill="#000000" font-family="sans-serif" font-size="14" lengthAdjust="spacing" textLength="88" x="2756" y="1410.4082">AdverseEvent</text><rect fill="#44FFFF" height="17.6094" style="stroke:none;stroke-width:1.0;" width="34" x="2722" y="1413.4844"/><text fill="#000000" font-family="sans-serif" font-size="14" lengthAdjust="spacing" textLength="4" x="2722" y="1428.0176">&#160;</text><text fill="#000000" font-family="sans-serif" font-size="14" lengthAdjust="spacing" textLength="62" x="2756" y="1428.0176">Specimen</text><line style="stroke:#000000;stroke-width:1.0;" x1="2722" x2="2865" y1="1255" y2="1255"/><line style="stroke:#000000;stroke-width:1.0;" x1="2722" x2="2865" y1="1272.6094" y2="1272.6094"/><line style="stroke:#000000;stroke-width:1.0;" x1="2722" x2="2865" y1="1290.2188" y2="1290.2188"/><line style="stroke:#000000;stroke-width:1.0;" x1="2722" x2="2865" y1="1307.8281" y2="1307.8281"/><line style="stroke:#000000;stroke-width:1.0;" x1="2722" x2="2865" y1="1325.4375" y2="1325.4375"/><line style="stroke:#000000;stroke-width:1.0;" x1="2722" x2="2865" y1="1343.0469" y2="1343.0469"/><line style="stroke:#000000;stroke-width:1.0;" x1="2722" x2="2865" y1="1360.6563" y2="1360.6563"/><line style="stroke:#000000;stroke-width:1.0;" x1="2722" x2="2865" y1="1378.2656" y2="1378.2656"/><line style="stroke:#000000;stroke-width:1.0;" x1="2722" x2="2865" y1="1395.875" y2="1395.875"/><line style="stroke:#000000;stroke-width:1.0;" x1="2722" x2="2865" y1="1413.4844" y2="1413.4844"/><line style="stroke:#000000;stroke-width:1.0;" x1="2722" x2="2865" y1="1431.0938" y2="1431.0938"/><line style="stroke:#000000;stroke-width:1.0;" x1="2722" x2="2722" y1="1255" y2="1431.0938"/><line style="stroke:#000000;stroke-width:1.0;" x1="2756" x2="2756" y1="1255" y2="1431.0938"/><line style="stroke:#000000;stroke-width:1.0;" x1="2865" x2="2865" y1="1255" y2="1431.0938"/><!--SRC=[ZLTTRzem57tFhx3Qv_IXcgekgf2wGRPfOw2ssXwc2PdaGZoCdTaE4blsttTZ9oKa3c3nmlKvr_VRZjumaLD5juGp0MQV0yabtrT_0hdy1OaXCx6HYzcSNB_55ST7ucUZQCP1c0mKpHduGNjjOCjqai7B0AwHvvoAGgmNByLMgeqKAr0W_f3hzxWG7GHdW0zXsDWRaINLaCu4kPZKzUPLnUKQ-guUb2Zqb8er1t8rbMd1oHHIjg66IN55_WO4LnsEQYEn6y-6ea8qYLp7iOt1ls0mg6X6wEL617DiPgjBGk7LS72Yjd3Cw5f83OkvObiAobHwAXlZ-Ewk0KrsB4MjYudI9gq9v7fY5mdyAiAGmyg4uSZFZWXOSG8tAHZAEDP4AwvLQBXSOoncImrgPxtGLqV1jU7xHXMZmg0vjxTnV7lR1iIWn1QLQ_o1y25UlauNdpdLcgtg1FfGtu4P3AiVIDh8B_jjdcs4D819GOukaWopurFwaMdZNFoWQChye2VGB2qeHmzCeNs8HyxNc5biSxNu0gWJZzD_2YI8rEknz8fjBD_1ggXOz_TnV7-F1JgGMbjS_T15P2MJGfyYdPiF4Q5fga1hEAbc8CmN6D2FUdIMSrndv_7UShd0jfEfF7zifzfhmaM3efrzSXWHJVj_0yLfiNgjc_hinXQh0tFRm1fNc_zXDGImxYAIKJs5xH9KPyzJIaFOmHORrExB-H3sE8Q3iEEs73Rsg7BQslfNo9oQp1cvj7deNYIVFYqiv56if4f1sQao7iVnUEp57VSomMRkRbLtdLTjH1JyBa2R7YKSI9Ubw88FCVm3z0p9bxQJX6u3d4PtHkiPT6S6DE30aycfv1z0X8wEoMP9PZpPTB0Bqkc0lTdSsshosLDyo6VVs7TCBgdOUEp3dLp99LwiRzvKhu7gEWZwfzxWwXMwYywFdHFy3BnbLbExmwHYKot54zW9bK3WZvQNxIVtZhRKjfCHqJaa35z8Vi83CZg4TezuhJjvGfznueXc3Z-cEvntCDdLpyZgwNtc4Tcce0b5POIP2CFC_eQ9wch16Fc_02xd1npMWBMWs3ep92ZVOzkgyWM_GSgWVAZVaYCKYvHLdM-bxai0fLJ17EycAtGV4wDohcG2QQ6S0jSNe_8P7u8iWISN5hlbsc5KrWLWMF84kLHkqrrNexBrXAmDSaSVtiUrk3f-LBPzjXkk0V3yEeDbWDuwduFWFm00]--></g></svg>