<?xml version="1.0" encoding="us-ascii" standalone="no"?><svg xmlns="http://www.w3.org/2000/svg" xmlns:xlink="http://www.w3.org/1999/xlink" contentStyleType="text/css" height="688px" preserveAspectRatio="none" style="width:2380px;height:688px;background:#FFFFFF;" version="1.1" viewBox="0 0 2380 688" width="2380px" zoomAndPan="magnify"><defs/><g><g id="elem_R4_Observation"><rect fill="#22FF22" height="37.6094" style="stroke:#181818;stroke-width:0.5;" width="117" x="716" y="7"/><text fill="#000000" font-family="sans-serif" font-size="14" lengthAdjust="spacing" textLength="103" x="723" y="23.5332">R4_Observation</text><line style="stroke:#181818;stroke-width:0.5;" x1="717" x2="832" y1="28.6094" y2="28.6094"/></g><g id="elem_NrUntersuchteLymphknoten"><rect fill="#22FF22" height="43.2188" style="stroke:#181818;stroke-width:0.5;" width="405" x="7" y="109"/><text fill="#000000" font-family="sans-serif" font-size="14" lengthAdjust="spacing" textLength="175" x="122" y="125.5332">NrUntersuchteLymphknoten</text><line style="stroke:#181818;stroke-width:1.0;" x1="7" x2="412" y1="130.6094" y2="130.6094"/><text fill="#000000" font-family="sans-serif" font-size="14" lengthAdjust="spacing" textLength="179" x="12" y="147.1426">6.7 Anzahl unters. Lymphkn.</text><text fill="#000000" font-family="sans-serif" font-size="14" lengthAdjust="spacing" textLength="206" x="201" y="147.1426">Observation.valueQuantity.value</text><line style="stroke:#181818;stroke-width:1.0;" x1="196" x2="196" y1="130.6094" y2="152.2188"/></g><g id="elem_NrBefalleneLymphknoten"><rect fill="#22FF22" height="43.2188" style="stroke:#181818;stroke-width:0.5;" width="385" x="189" y="252.5"/><text fill="#000000" font-family="sans-serif" font-size="14" lengthAdjust="spacing" textLength="158" x="302.5" y="269.0332">NrBefalleneLymphknoten</text><line style="stroke:#181818;stroke-width:1.0;" x1="189" x2="574" y1="274.1094" y2="274.1094"/><text fill="#000000" font-family="sans-serif" font-size="14" lengthAdjust="spacing" textLength="159" x="194" y="290.6426">6.8 Anzahl bef. Lymphkn.</text><text fill="#000000" font-family="sans-serif" font-size="14" lengthAdjust="spacing" textLength="206" x="363" y="290.6426">Observation.valueQuantity.value</text><line style="stroke:#181818;stroke-width:1.0;" x1="358" x2="358" y1="274.1094" y2="295.7188"/></g><g id="elem_NrUntersuchteSentinelLymphknoten"><rect fill="#22FF22" height="43.2188" style="stroke:#181818;stroke-width:0.5;" width="443" x="414" y="406.5"/><text fill="#000000" font-family="sans-serif" font-size="14" lengthAdjust="spacing" textLength="226" x="522.5" y="423.0332">NrUntersuchteSentinelLymphknoten</text><line style="stroke:#181818;stroke-width:1.0;" x1="414" x2="857" y1="428.1094" y2="428.1094"/><text fill="#000000" font-family="sans-serif" font-size="14" lengthAdjust="spacing" textLength="217" x="419" y="444.6426">6.9 Anzahl unters. Sent.-Lymphkn.</text><text fill="#000000" font-family="sans-serif" font-size="14" lengthAdjust="spacing" textLength="206" x="646" y="444.6426">Observation.valueQuantity.value</text><line style="stroke:#181818;stroke-width:1.0;" x1="641" x2="641" y1="428.1094" y2="449.7188"/></g><g id="elem_NrBefalleneSentinelLymphknoten"><rect fill="#22FF22" height="43.2188" style="stroke:#181818;stroke-width:0.5;" width="431" x="697" y="252.5"/><text fill="#000000" font-family="sans-serif" font-size="14" lengthAdjust="spacing" textLength="209" x="808" y="269.0332">NrBefalleneSentinelLymphknoten</text><line style="stroke:#181818;stroke-width:1.0;" x1="697" x2="1128" y1="274.1094" y2="274.1094"/><text fill="#000000" font-family="sans-serif" font-size="14" lengthAdjust="spacing" textLength="205" x="702" y="290.6426">6.10 Anzahl bef. Sent.-Lymphkn.</text><text fill="#000000" font-family="sans-serif" font-size="14" lengthAdjust="spacing" textLength="206" x="917" y="290.6426">Observation.valueQuantity.value</text><line style="stroke:#181818;stroke-width:1.0;" x1="912" x2="912" y1="274.1094" y2="295.7188"/></g><g id="elem_Onko_Verlaufshistologie"><rect fill="#22FF22" height="108.0469" style="stroke:#181818;stroke-width:0.5;" width="670" x="1179.5" y="220"/><text fill="#000000" font-family="sans-serif" font-size="14" lengthAdjust="spacing" textLength="154" x="1437.5" y="236.5332">Onko_Verlaufshistologie</text><line style="stroke:#181818;stroke-width:1.0;" x1="1179.5" x2="1849.5" y1="241.6094" y2="241.6094"/><text fill="#000000" font-family="sans-serif" font-size="14" lengthAdjust="spacing" textLength="178" x="1232" y="258.1426">06.1 Tumor-Histologiedatum</text><text fill="#000000" font-family="sans-serif" font-size="14" lengthAdjust="spacing" textLength="195" x="1467.5" y="258.1426">Observation.effectiveDateTime</text><line style="stroke:#181818;stroke-width:1.0;" x1="1462.5" x2="1462.5" y1="241.6094" y2="263.2188"/><line style="stroke:#181818;stroke-width:1.0;" x1="1179.5" x2="1849.5" y1="263.2188" y2="263.2188"/><text fill="#000000" font-family="sans-serif" font-size="14" lengthAdjust="spacing" textLength="149" x="1246.5" y="279.752">06.3 Morphologie-Code</text><text fill="#000000" font-family="sans-serif" font-size="14" lengthAdjust="spacing" textLength="362" x="1467.5" y="279.752">Observation.valueCodeableConcept.coding[icd-o-3].code</text><line style="stroke:#181818;stroke-width:1.0;" x1="1462.5" x2="1462.5" y1="263.2188" y2="284.8281"/><line style="stroke:#181818;stroke-width:1.0;" x1="1179.5" x2="1849.5" y1="284.8281" y2="284.8281"/><text fill="#000000" font-family="sans-serif" font-size="14" lengthAdjust="spacing" textLength="273" x="1184.5" y="301.3613">06.4 Morphologie ICD-O/Blue Book Version</text><text fill="#000000" font-family="sans-serif" font-size="14" lengthAdjust="spacing" textLength="377" x="1467.5" y="301.3613">Observation.valueCodeableConcept.coding[icd-o-3].version</text><line style="stroke:#181818;stroke-width:1.0;" x1="1462.5" x2="1462.5" y1="284.8281" y2="306.4375"/><line style="stroke:#181818;stroke-width:1.0;" x1="1179.5" x2="1849.5" y1="306.4375" y2="306.4375"/><text fill="#000000" font-family="sans-serif" font-size="14" lengthAdjust="spacing" textLength="162" x="1240" y="322.9707">06.5 Morphologie-Freitext</text><text fill="#000000" font-family="sans-serif" font-size="14" lengthAdjust="spacing" textLength="255" x="1467.5" y="322.9707">Observation.valueCodeableConcept.text</text><line style="stroke:#181818;stroke-width:1.0;" x1="1462.5" x2="1462.5" y1="306.4375" y2="328.0469"/></g><g id="elem_Onko_Grading"><rect fill="#22FF22" height="43.2188" style="stroke:#181818;stroke-width:0.5;" width="405" x="1121" y="109"/><text fill="#000000" font-family="sans-serif" font-size="14" lengthAdjust="spacing" textLength="93" x="1277" y="125.5332">Onko_Grading</text><line style="stroke:#181818;stroke-width:1.0;" x1="1121" x2="1526" y1="130.6094" y2="130.6094"/><text fill="#000000" font-family="sans-serif" font-size="14" lengthAdjust="spacing" textLength="75" x="1126" y="147.1426">6.6 Grading</text><text fill="#000000" font-family="sans-serif" font-size="14" lengthAdjust="spacing" textLength="310" x="1211" y="147.1426">Observation.valueCodeableConcept.coding.code</text><line style="stroke:#181818;stroke-width:1.0;" x1="1206" x2="1206" y1="130.6094" y2="152.2188"/></g><g id="elem_Onko_Befund"><rect fill="#AAFFAA" height="43.2188" style="stroke:#181818;stroke-width:0.5;" width="277" x="1727" y="109"/><text fill="#000000" font-family="sans-serif" font-size="14" lengthAdjust="spacing" textLength="87" x="1822" y="125.5332">Onko_Befund</text><line style="stroke:#181818;stroke-width:1.0;" x1="1727" x2="2004" y1="130.6094" y2="130.6094"/><text fill="#000000" font-family="sans-serif" font-size="14" lengthAdjust="spacing" textLength="77" x="1732" y="147.1426">6.11 Befund</text><text fill="#000000" font-family="sans-serif" font-size="14" lengthAdjust="spacing" textLength="180" x="1819" y="147.1426">DiagnosticReport.conclusion</text><line style="stroke:#181818;stroke-width:1.0;" x1="1814" x2="1814" y1="130.6094" y2="152.2188"/></g><g id="elem_R4_DiagnosticReport"><rect fill="#AAFFAA" height="37.6094" style="stroke:#181818;stroke-width:0.5;" width="149" x="1791" y="7"/><text fill="#000000" font-family="sans-serif" font-size="14" lengthAdjust="spacing" textLength="135" x="1798" y="23.5332">R4_DiagnosticReport</text><line style="stroke:#181818;stroke-width:0.5;" x1="1792" x2="1939" y1="28.6094" y2="28.6094"/></g><g id="elem_Onko_Specimen"><rect fill="#44FFFF" height="64.8281" style="stroke:#181818;stroke-width:0.5;" width="466" x="1907.5" y="396"/><text fill="#000000" font-family="sans-serif" font-size="14" lengthAdjust="spacing" textLength="104" x="2088.5" y="412.5332">Onko_Specimen</text><line style="stroke:#181818;stroke-width:1.0;" x1="1907.5" x2="2373.5" y1="417.6094" y2="417.6094"/><text fill="#000000" font-family="sans-serif" font-size="14" lengthAdjust="spacing" textLength="169" x="1928" y="434.1426">6.1 Tumor Histologiedatum</text><text fill="#000000" font-family="sans-serif" font-size="14" lengthAdjust="spacing" textLength="246" x="2122.5" y="434.1426">Specimen.collection.collectedDateTime</text><line style="stroke:#181818;stroke-width:1.0;" x1="2117.5" x2="2117.5" y1="417.6094" y2="439.2188"/><line style="stroke:#181818;stroke-width:1.0;" x1="1907.5" x2="2373.5" y1="439.2188" y2="439.2188"/><text fill="#000000" font-family="sans-serif" font-size="14" lengthAdjust="spacing" textLength="200" x="1912.5" y="455.752">6.2 Histologie-Einsendenummer</text><text fill="#000000" font-family="sans-serif" font-size="14" lengthAdjust="spacing" textLength="221" x="2122.5" y="455.752">Specimen.accessionIdentifier.value</text><line style="stroke:#181818;stroke-width:1.0;" x1="2117.5" x2="2117.5" y1="439.2188" y2="460.8281"/></g><g id="elem_R4_Specimen"><rect fill="#44FFFF" height="37.6094" style="stroke:#181818;stroke-width:0.5;" width="102" x="2089.5" y="7"/><text fill="#000000" font-family="sans-serif" font-size="14" lengthAdjust="spacing" textLength="88" x="2096.5" y="23.5332">R4_Specimen</text><line style="stroke:#181818;stroke-width:0.5;" x1="2090.5" x2="2190.5" y1="28.6094" y2="28.6094"/></g><!--reverse link R4_Observation to NrUntersuchteLymphknoten--><g id="link_R4_Observation_NrUntersuchteLymphknoten"><path codeLine="8" d="M698.1891,40.8431 C611.0991,56.6431 462.82,83.54 344.63,104.99 " fill="none" id="R4_Observation-backto-NrUntersuchteLymphknoten" style="stroke:#181818;stroke-width:1.0;"/><polygon fill="none" points="715.9,37.63,697.1181,34.9395,699.2602,46.7468,715.9,37.63" style="stroke:#181818;stroke-width:1.0;"/></g><!--reverse link R4_Observation to NrBefalleneLymphknoten--><g id="link_R4_Observation_NrBefalleneLymphknoten"><path codeLine="13" d="M713.6987,52.2382 C679.7687,66.7982 648.81,81.53 609.5,105 C534.36,149.87 453.48,213.56 411.17,248.21 " fill="none" id="R4_Observation-backto-NrBefalleneLymphknoten" style="stroke:#181818;stroke-width:1.0;"/><polygon fill="none" points="730.24,45.14,711.3326,46.7244,716.0647,57.752,730.24,45.14" style="stroke:#181818;stroke-width:1.0;"/></g><!--reverse link R4_Observation to NrUntersuchteSentinelLymphknoten--><g id="link_R4_Observation_NrUntersuchteSentinelLymphknoten"><path codeLine="20" d="M751.9015,60.0174 C729.9415,92.6074 694.71,149.1 671.5,216 C648.96,280.95 640.2,362.22 637.07,402.3 " fill="none" id="R4_Observation-backto-NrUntersuchteSentinelLymphknoten" style="stroke:#181818;stroke-width:1.0;"/><polygon fill="none" points="761.96,45.09,746.9257,56.6646,756.8773,63.3702,761.96,45.09" style="stroke:#181818;stroke-width:1.0;"/></g><!--reverse link R4_Observation to NrBefalleneSentinelLymphknoten--><g id="link_R4_Observation_NrBefalleneSentinelLymphknoten"><path codeLine="25" d="M793.4574,60.7881 C817.8574,104.2781 871.03,199.07 898.74,248.48 " fill="none" id="R4_Observation-backto-NrBefalleneSentinelLymphknoten" style="stroke:#181818;stroke-width:1.0;"/><polygon fill="none" points="784.65,45.09,788.2247,63.7239,798.6901,57.8523,784.65,45.09" style="stroke:#181818;stroke-width:1.0;"/></g><!--reverse link R4_Observation to Onko_Verlaufshistologie--><g id="link_R4_Observation_Onko_Verlaufshistologie"><path codeLine="35" d="M831.7547,52.266 C892.1847,78.666 992.98,121.21 1095.5,156 C1158.88,177.51 1228.6,198.15 1292.66,215.95 " fill="none" id="R4_Observation-backto-Onko_Verlaufshistologie" style="stroke:#181818;stroke-width:1.0;"/><polygon fill="none" points="815.26,45.06,829.3526,57.7642,834.1567,46.7678,815.26,45.06" style="stroke:#181818;stroke-width:1.0;"/></g><!--reverse link R4_Observation to Onko_Grading--><g id="link_R4_Observation_Onko_Grading"><path codeLine="43" d="M850.9443,41.2734 C936.0043,57.1534 1078.03,83.67 1192.06,104.96 " fill="none" id="R4_Observation-backto-Onko_Grading" style="stroke:#181818;stroke-width:1.0;"/><polygon fill="none" points="833.25,37.97,849.8432,47.1715,852.0454,35.3753,833.25,37.97" style="stroke:#181818;stroke-width:1.0;"/></g><!--reverse link R4_DiagnosticReport to Onko_Befund--><g id="link_R4_DiagnosticReport_Onko_Befund"><path codeLine="51" d="M1865.5,63.32 C1865.5,79.91 1865.5,86.47 1865.5,104.79 " fill="none" id="R4_DiagnosticReport-backto-Onko_Befund" style="stroke:#181818;stroke-width:1.0;"/><polygon fill="none" points="1865.5,45.32,1859.5,63.32,1871.5,63.32,1865.5,45.32" style="stroke:#181818;stroke-width:1.0;"/></g><!--reverse link R4_Specimen to Onko_Specimen--><g id="link_R4_Specimen_Onko_Specimen"><path codeLine="59" d="M2140.5,63.23 C2140.5,125.05 2140.5,309.48 2140.5,391.75 " fill="none" id="R4_Specimen-backto-Onko_Specimen" style="stroke:#181818;stroke-width:1.0;"/><polygon fill="none" points="2140.5,45.23,2134.5,63.23,2146.5,63.23,2140.5,45.23" style="stroke:#181818;stroke-width:1.0;"/></g><rect fill="#DDDDDD" height="190.0938" id="_legend" rx="7.5" ry="7.5" style="stroke:#000000;stroke-width:1.0;" width="153" x="2201.5" y="478.8281"/><text fill="#000000" font-family="sans-serif" font-size="14" lengthAdjust="spacing" textLength="34" x="2206.5" y="500.3613">Color</text><text fill="#000000" font-family="sans-serif" font-size="14" lengthAdjust="spacing" textLength="32" x="2240.5" y="500.3613">Type</text><rect fill="#FFFF66" height="17.6094" style="stroke:none;stroke-width:1.0;" width="34" x="2206.5" y="503.4375"/><text fill="#000000" font-family="sans-serif" font-size="14" lengthAdjust="spacing" textLength="4" x="2206.5" y="517.9707">&#160;</text><text fill="#000000" font-family="sans-serif" font-size="14" lengthAdjust="spacing" textLength="60" x="2240.5" y="517.9707">Condition</text><rect fill="#CCCCFF" height="17.6094" style="stroke:none;stroke-width:1.0;" width="34" x="2206.5" y="521.0469"/><text fill="#000000" font-family="sans-serif" font-size="14" lengthAdjust="spacing" textLength="4" x="2206.5" y="535.5801">&#160;</text><text fill="#000000" font-family="sans-serif" font-size="14" lengthAdjust="spacing" textLength="59" x="2240.5" y="535.5801">CarePlan</text><rect fill="#9999FF" height="17.6094" style="stroke:none;stroke-width:1.0;" width="34" x="2206.5" y="538.6563"/><text fill="#000000" font-family="sans-serif" font-size="14" lengthAdjust="spacing" textLength="4" x="2206.5" y="553.1895">&#160;</text><text fill="#000000" font-family="sans-serif" font-size="14" lengthAdjust="spacing" textLength="66" x="2240.5" y="553.1895">Procedure</text><rect fill="#DDFFDD" height="17.6094" style="stroke:none;stroke-width:1.0;" width="34" x="2206.5" y="556.2656"/><text fill="#000000" font-family="sans-serif" font-size="14" lengthAdjust="spacing" textLength="4" x="2206.5" y="570.7988">&#160;</text><text fill="#000000" font-family="sans-serif" font-size="14" lengthAdjust="spacing" textLength="100" x="2240.5" y="570.7988">ServiceRequest</text><rect fill="#AAFFAA" height="17.6094" style="stroke:none;stroke-width:1.0;" width="34" x="2206.5" y="573.875"/><text fill="#000000" font-family="sans-serif" font-size="14" lengthAdjust="spacing" textLength="4" x="2206.5" y="588.4082">&#160;</text><text fill="#000000" font-family="sans-serif" font-size="14" lengthAdjust="spacing" textLength="109" x="2240.5" y="588.4082">DiagnosticReport</text><rect fill="#22FF22" height="17.6094" style="stroke:none;stroke-width:1.0;" width="34" x="2206.5" y="591.4844"/><text fill="#000000" font-family="sans-serif" font-size="14" lengthAdjust="spacing" textLength="4" x="2206.5" y="606.0176">&#160;</text><text fill="#000000" font-family="sans-serif" font-size="14" lengthAdjust="spacing" textLength="77" x="2240.5" y="606.0176">Observation</text><rect fill="#FFCCFF" height="17.6094" style="stroke:none;stroke-width:1.0;" width="34" x="2206.5" y="609.0938"/><text fill="#000000" font-family="sans-serif" font-size="14" lengthAdjust="spacing" textLength="4" x="2206.5" y="623.627">&#160;</text><text fill="#000000" font-family="sans-serif" font-size="14" lengthAdjust="spacing" textLength="68" x="2240.5" y="623.627">Medication</text><rect fill="#FF9999" height="17.6094" style="stroke:none;stroke-width:1.0;" width="34" x="2206.5" y="626.7031"/><text fill="#000000" font-family="sans-serif" font-size="14" lengthAdjust="spacing" textLength="4" x="2206.5" y="641.2363">&#160;</text><text fill="#000000" font-family="sans-serif" font-size="14" lengthAdjust="spacing" textLength="88" x="2240.5" y="641.2363">AdverseEvent</text><rect fill="#44FFFF" height="17.6094" style="stroke:none;stroke-width:1.0;" width="34" x="2206.5" y="644.3125"/><text fill="#000000" font-family="sans-serif" font-size="14" lengthAdjust="spacing" textLength="4" x="2206.5" y="658.8457">&#160;</text><text fill="#000000" font-family="sans-serif" font-size="14" lengthAdjust="spacing" textLength="62" x="2240.5" y="658.8457">Specimen</text><line style="stroke:#000000;stroke-width:1.0;" x1="2206.5" x2="2349.5" y1="485.8281" y2="485.8281"/><line style="stroke:#000000;stroke-width:1.0;" x1="2206.5" x2="2349.5" y1="503.4375" y2="503.4375"/><line style="stroke:#000000;stroke-width:1.0;" x1="2206.5" x2="2349.5" y1="521.0469" y2="521.0469"/><line style="stroke:#000000;stroke-width:1.0;" x1="2206.5" x2="2349.5" y1="538.6563" y2="538.6563"/><line style="stroke:#000000;stroke-width:1.0;" x1="2206.5" x2="2349.5" y1="556.2656" y2="556.2656"/><line style="stroke:#000000;stroke-width:1.0;" x1="2206.5" x2="2349.5" y1="573.875" y2="573.875"/><line style="stroke:#000000;stroke-width:1.0;" x1="2206.5" x2="2349.5" y1="591.4844" y2="591.4844"/><line style="stroke:#000000;stroke-width:1.0;" x1="2206.5" x2="2349.5" y1="609.0938" y2="609.0938"/><line style="stroke:#000000;stroke-width:1.0;" x1="2206.5" x2="2349.5" y1="626.7031" y2="626.7031"/><line style="stroke:#000000;stroke-width:1.0;" x1="2206.5" x2="2349.5" y1="644.3125" y2="644.3125"/><line style="stroke:#000000;stroke-width:1.0;" x1="2206.5" x2="2349.5" y1="661.9219" y2="661.9219"/><line style="stroke:#000000;stroke-width:1.0;" x1="2206.5" x2="2206.5" y1="485.8281" y2="661.9219"/><line style="stroke:#000000;stroke-width:1.0;" x1="2240.5" x2="2240.5" y1="485.8281" y2="661.9219"/><line style="stroke:#000000;stroke-width:1.0;" x1="2349.5" x2="2349.5" y1="485.8281" y2="661.9219"/><!--SRC=[hPJVJzim4CVV_LTOujaPbAuR4aGg3TcG1cN0zZ9DoBMlhKTgPuvJnfRzxpldHqap8XYQNzgSptUV-zxPPlODXAENmvlfB0ExvauPJNS6WpWU30Wvuocbv_QJTc2pN2mTVBXVfSjRRHnitEWlGd6DWZTqh7_oPKBpqZ-WjND0ZqBQYX-iUPB3nvnhfznzzKL-4zAXE2oOD7UQzG9KVEVs6EOyIK3tm8s2jmtO3ER_IjK3nNhoaWQgXNm56593qiPh-3pUGLStVo1W_qSznfw4-Kl7fu3tThS4VGdkSsJjHPtgMtFp6Mp2ytcsL9apYLaew0paBeBIwtnbB7k_yP7SvQiE8SpdU0dK6YBku5gje3c-Jy-CJPVLIJOn4Xujpc_mMOA_Ma3g0c6aqeilIaXcsFvN_xq9EMo7fAUJY4rV7MCCUcpCBSMQCY_7IxAigxDDejTRxB45vU27UrPax-Wdghz9FGqWhVQyizppRTt34MsiH-4pwwl4Uno6RMLgvSO9ohMaE-Dn78_7vSJkqTg80aIABxJ9d1ANa1hhKscHvALwc8aIitaLkwvDJFBOtWDIdQk5T9M2mCd2TsauZ76LUjJZIJlZwHaRVsJ3ko1AcUg_83TpEWe6hSFiHEaCj0IThrPWjy9m8I3p5PvAVwlc2kp3q_5GRnUJj6s-lgR2naX80WlCIQrQB1qbnGHPR75zdq91YiCT7sGq2j6ifV9LbDO9hZX6AxTmaV3AU83B6o-i4I1pMmM8eZYEeh2umiuh0PVmFOVCbLjLAyAYsuXoingxi6ZDJ0rKfJu3gKJRxDE7nLZwUmGdQrIftAXqmFnrmGN1QgkQSIZ_0000]--></g></svg>