<?xml version="1.0" encoding="us-ascii" standalone="no"?><svg xmlns="http://www.w3.org/2000/svg" xmlns:xlink="http://www.w3.org/1999/xlink" contentStyleType="text/css" height="1426px" preserveAspectRatio="none" style="width:1646px;height:1426px;background:#FFFFFF;" version="1.1" viewBox="0 0 1646 1426" width="1646px" zoomAndPan="magnify"><defs/><g><text fill="#000000" font-family="sans-serif" font-size="14" font-weight="bold" lengthAdjust="spacing" textLength="274" x="679.375" y="24.5332">MII Onkologie - Mammakarzinom Modul</text><!--cluster hormones--><g id="cluster_hormones"><path d="M758.25,215.6094 L991.25,215.6094 A3.75,3.75 0 0 1 993.75,218.1094 L1000.75,244.25 L1637.25,244.25 A2.5,2.5 0 0 1 1639.75,246.75 L1639.75,693.1094 A2.5,2.5 0 0 1 1637.25,695.6094 L758.25,695.6094 A2.5,2.5 0 0 1 755.75,693.1094 L755.75,218.1094 A2.5,2.5 0 0 1 758.25,215.6094 " fill="#E8F5E8" style="stroke:#000000;stroke-width:1.5;"/><line style="stroke:#000000;stroke-width:1.5;" x1="755.75" x2="1000.75" y1="244.25" y2="244.25"/><text fill="#000000" font-family="sans-serif" font-size="18" font-weight="bold" lengthAdjust="spacing" textLength="232" x="759.75" y="236.2949">Hormon &amp; Rezeptor Status</text></g><!--cluster surgery--><g id="cluster_surgery"><path d="M234.25,765.6094 L459.25,765.6094 A3.75,3.75 0 0 1 461.75,768.1094 L468.75,794.25 L971.25,794.25 A2.5,2.5 0 0 1 973.75,796.75 L973.75,969.1094 A2.5,2.5 0 0 1 971.25,971.6094 L234.25,971.6094 A2.5,2.5 0 0 1 231.75,969.1094 L231.75,768.1094 A2.5,2.5 0 0 1 234.25,765.6094 " fill="#E8E8FF" style="stroke:#000000;stroke-width:1.5;"/><line style="stroke:#000000;stroke-width:1.5;" x1="231.75" x2="468.75" y1="794.25" y2="794.25"/><text fill="#000000" font-family="sans-serif" font-size="18" font-weight="bold" lengthAdjust="spacing" textLength="224" x="235.75" y="786.2949">Perioperative Prozeduren</text></g><g id="elem_Mamma_Menopausenstatus"><rect fill="#22FF22" height="132.75" style="stroke:#181818;stroke-width:0.5;" width="245" x="1079.25" y="284.6094"/><text fill="#000000" font-family="sans-serif" font-size="16" lengthAdjust="spacing" textLength="197" x="1103.25" y="303.2188">Mamma_Menopausenstatus</text><line style="stroke:#181818;stroke-width:0.5;" x1="1080.25" x2="1323.25" y1="308.7344" y2="308.7344"/><text fill="#000000" font-family="sans-serif" font-size="16" lengthAdjust="spacing" textLength="130" x="1085.25" y="329.3438">oBDS_Code = M1</text><text fill="#000000" font-family="sans-serif" font-size="16" lengthAdjust="spacing" textLength="198" x="1085.25" y="349.4688">SNOMED_CT = 161712005</text><text fill="#000000" font-family="sans-serif" font-size="16" font-weight="bold" lengthAdjust="spacing" textLength="140" x="1085.25" y="369.5938">Observation.focus</text><text fill="#000000" font-family="sans-serif" font-size="16" lengthAdjust="spacing" textLength="89" x="1229.25" y="369.5938">&#8594; Diagnosis</text><text fill="#000000" font-family="sans-serif" font-size="16" lengthAdjust="spacing" textLength="225" x="1085.25" y="389.7188">valueCodeableConcept = Status</text><text fill="#000000" font-family="sans-serif" font-size="16" lengthAdjust="spacing" textLength="143" x="1085.25" y="409.8438">"Menopausenstatus"</text></g><g id="elem_Mamma_Rezeptorstatus_Estrogen"><rect fill="#22FF22" height="173" style="stroke:#181818;stroke-width:0.5;" width="256" x="1359.75" y="264.6094"/><text fill="#000000" font-family="sans-serif" font-size="16" lengthAdjust="spacing" textLength="242" x="1366.75" y="283.2188">Mamma_Rezeptorstatus_Estrogen</text><line style="stroke:#181818;stroke-width:0.5;" x1="1360.75" x2="1614.75" y1="288.7344" y2="288.7344"/><text fill="#000000" font-family="sans-serif" font-size="16" lengthAdjust="spacing" textLength="152" x="1365.75" y="309.3438">oBDS_Code = M2a-c</text><text fill="#000000" font-family="sans-serif" font-size="16" lengthAdjust="spacing" textLength="123" x="1365.75" y="329.4688">LOINC = 40556-3</text><text fill="#000000" font-family="sans-serif" font-size="16" font-weight="bold" lengthAdjust="spacing" textLength="140" x="1365.75" y="349.5938">Observation.focus</text><text fill="#000000" font-family="sans-serif" font-size="16" lengthAdjust="spacing" textLength="89" x="1509.75" y="349.5938">&#8594; Diagnosis</text><text fill="#000000" font-family="sans-serif" font-size="16" lengthAdjust="spacing" textLength="225" x="1365.75" y="369.7188">valueCodeableConcept = Status</text><text fill="#000000" font-family="sans-serif" font-size="16" lengthAdjust="spacing" textLength="228" x="1365.75" y="389.8438">component[0] = % positive Zellen</text><text fill="#000000" font-family="sans-serif" font-size="16" lengthAdjust="spacing" textLength="215" x="1365.75" y="409.9688">component[1] = F&#228;rbeintensit&#228;t</text><text fill="#000000" font-family="sans-serif" font-size="16" lengthAdjust="spacing" textLength="181" x="1365.75" y="430.0938">"&#214;strogenrezeptor Status"</text></g><g id="elem_Mamma_Rezeptorstatus_Progesteron"><rect fill="#22FF22" height="173" style="stroke:#181818;stroke-width:0.5;" width="279" x="1062.25" y="498.6094"/><text fill="#000000" font-family="sans-serif" font-size="16" lengthAdjust="spacing" textLength="265" x="1069.25" y="517.2188">Mamma_Rezeptorstatus_Progesteron</text><line style="stroke:#181818;stroke-width:0.5;" x1="1063.25" x2="1340.25" y1="522.7344" y2="522.7344"/><text fill="#000000" font-family="sans-serif" font-size="16" lengthAdjust="spacing" textLength="152" x="1068.25" y="543.3438">oBDS_Code = M3a-c</text><text fill="#000000" font-family="sans-serif" font-size="16" lengthAdjust="spacing" textLength="123" x="1068.25" y="563.4688">LOINC = 85339-0</text><text fill="#000000" font-family="sans-serif" font-size="16" font-weight="bold" lengthAdjust="spacing" textLength="140" x="1068.25" y="583.5938">Observation.focus</text><text fill="#000000" font-family="sans-serif" font-size="16" lengthAdjust="spacing" textLength="89" x="1212.25" y="583.5938">&#8594; Diagnosis</text><text fill="#000000" font-family="sans-serif" font-size="16" lengthAdjust="spacing" textLength="225" x="1068.25" y="603.7188">valueCodeableConcept = Status</text><text fill="#000000" font-family="sans-serif" font-size="16" lengthAdjust="spacing" textLength="228" x="1068.25" y="623.8438">component[0] = % positive Zellen</text><text fill="#000000" font-family="sans-serif" font-size="16" lengthAdjust="spacing" textLength="215" x="1068.25" y="643.9688">component[1] = F&#228;rbeintensit&#228;t</text><text fill="#000000" font-family="sans-serif" font-size="16" lengthAdjust="spacing" textLength="203" x="1068.25" y="664.0938">"Progesteronrezeptor Status"</text></g><g id="elem_HER2"><rect fill="#22FF22" height="132.75" style="stroke:#181818;stroke-width:0.5;" width="245" x="799.25" y="284.6094"/><text fill="#000000" font-family="sans-serif" font-size="16" lengthAdjust="spacing" textLength="119" x="862.25" y="303.2188">HER2/neu Status</text><line style="stroke:#181818;stroke-width:0.5;" x1="800.25" x2="1043.25" y1="308.7344" y2="308.7344"/><text fill="#000000" font-family="sans-serif" font-size="16" lengthAdjust="spacing" textLength="152" x="805.25" y="329.3438">oBDS_Code = M7a-c</text><text fill="#000000" font-family="sans-serif" font-size="16" font-weight="bold" lengthAdjust="spacing" textLength="140" x="805.25" y="349.4688">Observation.focus</text><text fill="#000000" font-family="sans-serif" font-size="16" lengthAdjust="spacing" textLength="89" x="949.25" y="349.4688">&#8594; Diagnosis</text><text fill="#000000" font-family="sans-serif" font-size="16" lengthAdjust="spacing" textLength="203" x="805.25" y="369.5938">"&#8594; Molekulares Tumorboard"</text><text fill="#000000" font-family="sans-serif" font-size="16" lengthAdjust="spacing" textLength="178" x="805.25" y="389.7188">"Multimodale Bewertung:"</text><text fill="#000000" font-family="sans-serif" font-size="16" lengthAdjust="spacing" textLength="80" x="805.25" y="409.8438">"IHC + ISH"</text></g><g id="elem_Mamma_Praeoperative_Markierung"><rect fill="#9999FF" height="132.75" style="stroke:#181818;stroke-width:0.5;" width="320" x="629.75" y="814.6094"/><text fill="#000000" font-family="sans-serif" font-size="16" lengthAdjust="spacing" textLength="252" x="663.75" y="833.2188">Mamma_Praeoperative_Markierung</text><line style="stroke:#181818;stroke-width:0.5;" x1="630.75" x2="948.75" y1="838.7344" y2="838.7344"/><text fill="#000000" font-family="sans-serif" font-size="16" lengthAdjust="spacing" textLength="130" x="635.75" y="859.3438">oBDS_Code = M5</text><text fill="#000000" font-family="sans-serif" font-size="16" font-weight="bold" lengthAdjust="spacing" textLength="215" x="635.75" y="879.4688">Procedure.reasonReference</text><text fill="#000000" font-family="sans-serif" font-size="16" lengthAdjust="spacing" textLength="89" x="854.75" y="879.4688">&#8594; Diagnosis</text><text fill="#000000" font-family="sans-serif" font-size="16" font-weight="bold" lengthAdjust="spacing" textLength="131" x="635.75" y="899.5938">Procedure.partOf</text><text fill="#000000" font-family="sans-serif" font-size="16" lengthAdjust="spacing" textLength="156" x="770.75" y="899.5938">&#8594; Operation (optional)</text><text fill="#000000" font-family="sans-serif" font-size="16" lengthAdjust="spacing" textLength="202" x="635.75" y="919.7188">code = Markierungsmodalit&#228;t</text><text fill="#000000" font-family="sans-serif" font-size="16" lengthAdjust="spacing" textLength="228" x="635.75" y="939.8438">"Pr&#228;operative Tumormarkierung"</text></g><g id="elem_Mamma_Sozialdienst"><rect fill="#9999FF" height="112.625" style="stroke:#181818;stroke-width:0.5;" width="320" x="274.75" y="824.6094"/><text fill="#000000" font-family="sans-serif" font-size="16" lengthAdjust="spacing" textLength="151" x="359.25" y="843.2188">Mamma_Sozialdienst</text><line style="stroke:#181818;stroke-width:0.5;" x1="275.75" x2="593.75" y1="848.7344" y2="848.7344"/><text fill="#000000" font-family="sans-serif" font-size="16" lengthAdjust="spacing" textLength="282" x="280.75" y="869.3438">Base_Profile = MII_PR_Onko_Operation</text><text fill="#000000" font-family="sans-serif" font-size="16" lengthAdjust="spacing" textLength="130" x="280.75" y="889.4688">oBDS_Code = M6</text><text fill="#000000" font-family="sans-serif" font-size="16" font-weight="bold" lengthAdjust="spacing" textLength="215" x="280.75" y="909.5938">Procedure.reasonReference</text><text fill="#000000" font-family="sans-serif" font-size="16" lengthAdjust="spacing" textLength="89" x="499.75" y="909.5938">&#8594; Diagnosis</text><text fill="#000000" font-family="sans-serif" font-size="16" lengthAdjust="spacing" textLength="186" x="280.75" y="929.7188">"Sozialdienst Konsultation"</text></g><g id="elem_MII_Diagnose_Primaertumor"><rect fill="#FFFF66" height="52.25" style="stroke:#181818;stroke-width:0.5;" width="214" x="167.75" y="325.1094"/><text fill="#000000" font-family="sans-serif" font-size="16" lengthAdjust="spacing" textLength="200" x="174.75" y="343.7188">MII_Diagnose_Primaertumor</text><line style="stroke:#181818;stroke-width:0.5;" x1="168.75" x2="380.75" y1="349.2344" y2="349.2344"/><text fill="#000000" font-family="sans-serif" font-size="16" lengthAdjust="spacing" textLength="170" x="173.75" y="369.8438">"Prim&#228;rtumor Diagnose"</text></g><g id="elem_Mamma_Operation"><rect fill="#9999FF" height="132.75" style="stroke:#181818;stroke-width:0.5;" width="320" x="327.75" y="1047.6094"/><text fill="#000000" font-family="sans-serif" font-size="16" lengthAdjust="spacing" textLength="135" x="420.25" y="1066.2188">Mamma_Operation</text><line style="stroke:#181818;stroke-width:0.5;" x1="328.75" x2="646.75" y1="1071.7344" y2="1071.7344"/><text fill="#000000" font-family="sans-serif" font-size="16" lengthAdjust="spacing" textLength="282" x="333.75" y="1092.3438">Base_Profile = MII_PR_Onko_Operation</text><text fill="#000000" font-family="sans-serif" font-size="16" lengthAdjust="spacing" textLength="130" x="333.75" y="1112.4688">oBDS_Code = M4</text><text fill="#000000" font-family="sans-serif" font-size="16" font-weight="bold" lengthAdjust="spacing" textLength="215" x="333.75" y="1132.5938">Procedure.reasonReference</text><text fill="#000000" font-family="sans-serif" font-size="16" lengthAdjust="spacing" textLength="89" x="552.75" y="1132.5938">&#8594; Diagnosis</text><text fill="#000000" font-family="sans-serif" font-size="16" lengthAdjust="spacing" textLength="221" x="333.75" y="1152.7188">code = OPS oder SNOMED CT</text><text fill="#000000" font-family="sans-serif" font-size="16" lengthAdjust="spacing" textLength="122" x="333.75" y="1172.8438">"Brust-Operation"</text></g><g id="elem_GMN19"><path d="M566.25,44.6094 L566.25,160.2656 L805.25,160.2656 L805.25,54.6094 L795.25,44.6094 L566.25,44.6094 " fill="#FEFFDD" style="stroke:#181818;stroke-width:0.5;"/><path d="M795.25,44.6094 L795.25,54.6094 L805.25,54.6094 L795.25,44.6094 " fill="#FEFFDD" style="stroke:#181818;stroke-width:1.0;"/><text fill="#000000" font-family="sans-serif" font-size="14" font-weight="bold" lengthAdjust="spacing" textLength="139" x="572.25" y="64.1426">Hormonelle Marker:</text><text fill="#000000" font-family="sans-serif" font-size="14" lengthAdjust="spacing" textLength="213" x="572.25" y="81.752">Wichtig f&#252;r Therapieentscheidung</text><text fill="#000000" font-family="sans-serif" font-size="14" lengthAdjust="spacing" textLength="129" x="572.25" y="99.3613">- Menopausenstatus</text><text fill="#000000" font-family="sans-serif" font-size="14" lengthAdjust="spacing" textLength="199" x="572.25" y="116.9707">- &#214;strogenrezeptor (quantitativ)</text><text fill="#000000" font-family="sans-serif" font-size="14" lengthAdjust="spacing" textLength="218" x="572.25" y="134.5801">- Progesteronrezeptor (quantitativ)</text><text fill="#000000" font-family="sans-serif" font-size="14" lengthAdjust="spacing" textLength="117" x="572.25" y="152.1895">- HER2/neu Status</text></g><g id="elem_GMN22"><path d="M840.25,62.6094 L840.25,143.0469 A0,0 0 0 0 840.25,143.0469 L983.39,143.0469 L942.56,284.3494 L991.39,143.0469 L1159.25,143.0469 A0,0 0 0 0 1159.25,143.0469 L1159.25,72.6094 L1149.25,62.6094 L840.25,62.6094 A0,0 0 0 0 840.25,62.6094 " fill="#FEFFDD" style="stroke:#181818;stroke-width:0.5;"/><path d="M1149.25,62.6094 L1149.25,72.6094 L1159.25,72.6094 L1149.25,62.6094 " fill="#FEFFDD" style="stroke:#181818;stroke-width:0.5;"/><text fill="#000000" font-family="sans-serif" font-size="14" font-weight="bold" lengthAdjust="spacing" textLength="153" x="846.25" y="82.1426">HER2/neu Bewertung:</text><text fill="#000000" font-family="sans-serif" font-size="14" lengthAdjust="spacing" textLength="212" x="846.25" y="99.752">Aufgrund multimodaler Diagnostik</text><text fill="#000000" font-family="sans-serif" font-size="14" lengthAdjust="spacing" textLength="275" x="846.25" y="117.3613">(Immunhistochemie + In-situ-Hybridisierung)</text><text fill="#000000" font-family="sans-serif" font-size="14" lengthAdjust="spacing" textLength="298" x="846.25" y="134.9707">im Modul "Molekulares Tumorboard" abgebildet</text></g><g id="elem_GMN25"><path d="M997.75,849.6094 L997.75,912.4375 L1323.75,912.4375 L1323.75,859.6094 L1313.75,849.6094 L997.75,849.6094 " fill="#FEFFDD" style="stroke:#181818;stroke-width:0.5;"/><path d="M1313.75,849.6094 L1313.75,859.6094 L1323.75,859.6094 L1313.75,849.6094 " fill="#FEFFDD" style="stroke:#181818;stroke-width:1.0;"/><text fill="#000000" font-family="sans-serif" font-size="14" font-weight="bold" lengthAdjust="spacing" textLength="134" x="1003.75" y="869.1426">ValueSet Strategie:</text><text fill="#000000" font-family="sans-serif" font-size="14" lengthAdjust="spacing" textLength="256" x="1003.75" y="886.752">Erweiterbare OPS + SNOMED CT Codes</text><text fill="#000000" font-family="sans-serif" font-size="14" lengthAdjust="spacing" textLength="305" x="1003.75" y="904.3613">Unterst&#252;tzt deutsche und internationale Systeme</text></g><g id="elem_GMN28"><path d="M431.75,527.1094 L431.75,642.7656 A0,0 0 0 0 431.75,642.7656 L618.1,642.7656 L743.34,814.5194 L626.1,642.7656 L731.75,642.7656 A0,0 0 0 0 731.75,642.7656 L731.75,537.1094 L721.75,527.1094 L431.75,527.1094 A0,0 0 0 0 431.75,527.1094 " fill="#FEFFDD" style="stroke:#181818;stroke-width:0.5;"/><path d="M721.75,527.1094 L721.75,537.1094 L731.75,537.1094 L721.75,527.1094 " fill="#FEFFDD" style="stroke:#181818;stroke-width:0.5;"/><text fill="#000000" font-family="sans-serif" font-size="14" font-weight="bold" lengthAdjust="spacing" textLength="267" x="437.75" y="546.6426">Integration aktueller klinischer Praxis:</text><text fill="#000000" font-family="sans-serif" font-size="14" lengthAdjust="spacing" textLength="264" x="437.75" y="564.252">Traditionell Drahtmarkierung in Registern,</text><text fill="#000000" font-family="sans-serif" font-size="14" lengthAdjust="spacing" textLength="252" x="437.75" y="581.8613">aber aktuelle klinische Praxis beinhaltet:</text><text fill="#000000" font-family="sans-serif" font-size="14" lengthAdjust="spacing" textLength="209" x="437.75" y="599.4707">- Radioaktive Seed-Lokalisierung</text><text fill="#000000" font-family="sans-serif" font-size="14" lengthAdjust="spacing" textLength="215" x="437.75" y="617.0801">- Magnetische Seed-Lokalisierung</text><text fill="#000000" font-family="sans-serif" font-size="14" lengthAdjust="spacing" textLength="279" x="437.75" y="634.6895">&#8594; ValueSet erweitert f&#252;r moderne Verfahren</text></g><!--link MII_Diagnose_Primaertumor to hormones--><g id="link_MII_Diagnose_Primaertumor_hormones"><path codeLine="79" d="M381.9,353.1194 C453.82,354.1994 550.68,355.1194 636.18,354.1094 C663.205,353.7894 693.445,353.0944 717.6975,352.4531 C729.8238,352.1325 740.4531,351.8253 748.4353,351.5852 C750.4309,351.5251 752.261,351.4693 753.9076,351.4184 C754.3193,351.4057 754.7195,351.3933 755.108,351.3813 C755.3022,351.3753 755.4935,351.3693 755.6818,351.3634 " fill="none" id="MII_Diagnose_Primaertumor-hormones" style="stroke:#181818;stroke-width:1.0;"/></g><!--reverse link MII_Diagnose_Primaertumor to hormones--><g id="link_MII_Diagnose_Primaertumor_hormones"><path codeLine="84" d="M387.76,351.1094 C458.03,351.1094 544.75,351.1094 621.2425,351.1094 C659.4888,351.1094 693.6781,351.1094 718.9759,351.1094 C731.6248,351.1094 742.0509,351.1094 749.6496,351.1094 C751.5493,351.1094 753.2723,351.1094 754.8092,351.1094 C755.0013,351.1094 755.1905,351.1094 755.3768,351.1094 " fill="none" id="MII_Diagnose_Primaertumor-backto-hormones" style="stroke:#181818;stroke-width:1.0;"/><polygon fill="#181818" points="381.76,351.1094,390.76,355.1094,386.76,351.1094,390.76,347.1094,381.76,351.1094" style="stroke:#181818;stroke-width:1.0;"/><text fill="#000000" font-family="sans-serif" font-size="16" lengthAdjust="spacing" textLength="37" x="554.07" y="343.7188">focus</text></g><!--link MII_Diagnose_Primaertumor to Mamma_Operation--><g id="link_MII_Diagnose_Primaertumor_Mamma_Operation"><path codeLine="80" d="M262.77,377.4094 C221.59,468.3994 95.3,784.3294 223.75,987.6094 C247.81,1025.6894 286.91,1052.4394 327.74,1071.1594 " fill="none" id="MII_Diagnose_Primaertumor-Mamma_Operation" style="stroke:#181818;stroke-width:1.0;"/></g><!--reverse link MII_Diagnose_Primaertumor to Mamma_Operation--><g id="link_MII_Diagnose_Primaertumor_Mamma_Operation"><path codeLine="83" d="M236.9852,380.9805 C164.6352,439.1905 6,586.4994 38.75,741.6094 C66.46,872.8294 59.86,929.2394 160.75,1017.6094 C207.02,1058.1394 269.66,1081.4994 327.74,1094.9494 " fill="none" id="MII_Diagnose_Primaertumor-backto-Mamma_Operation" style="stroke:#181818;stroke-width:1.0;"/><polygon fill="#181818" points="241.66,377.2194,232.1404,379.7446,237.7643,380.3537,237.1552,385.9776,241.66,377.2194" style="stroke:#181818;stroke-width:1.0;"/><text fill="#000000" font-family="sans-serif" font-size="16" lengthAdjust="spacing" textLength="120" x="39.75" y="737.2188">reasonReference</text></g><!--reverse link MII_Diagnose_Primaertumor to surgery--><g id="link_MII_Diagnose_Primaertumor_surgery"><path codeLine="85" d="M272.6832,383.2062 C269.2332,435.2612 261.4,553.4469 253.9813,665.3719 C252.1266,693.3531 250.3226,720.5689 248.6567,745.701 C248.2402,751.984 247.8323,758.1368 247.4345,764.1388 " fill="none" id="MII_Diagnose_Primaertumor-backto-surgery" style="stroke:#181818;stroke-width:1.0;"/><polygon fill="#181818" points="273.08,377.2194,268.4936,385.9351,272.7493,382.2084,276.4761,386.4642,273.08,377.2194" style="stroke:#181818;stroke-width:1.0;"/><text fill="#000000" font-family="sans-serif" font-size="16" lengthAdjust="spacing" textLength="120" x="265.75" y="591.7188">reasonReference</text></g><!--link Mamma_Praeoperative_Markierung to Mamma_Operation--><g id="link_Mamma_Praeoperative_Markierung_Mamma_Operation"><path codeLine="87" d="M704.02,947.6894 C663.12,978.9694 619.0855,1012.6439 578.1955,1043.9239 " fill="none" id="Mamma_Praeoperative_Markierung-to-Mamma_Operation" style="stroke:#181818;stroke-width:1.0;"/><polygon fill="#181818" points="573.43,1047.5694,583.0086,1045.2781,577.4013,1044.5314,578.1479,1038.9241,573.43,1047.5694" style="stroke:#181818;stroke-width:1.0;"/><text fill="#000000" font-family="sans-serif" font-size="16" lengthAdjust="spacing" textLength="112" x="639.75" y="1013.2188">partOf (optional)</text></g><!--link GMN19 to hormones--><g id="link_GMN19_hormones"><path d="M703.84,160.7794 C715.18,196.6194 729.87,243.0444 741.865,280.9531 C744.8638,290.4303 747.6941,299.3752 750.2615,307.4894 C751.5452,311.5465 752.7632,315.396 753.9036,319.0004 C754.4739,320.8026 755.0247,322.5436 755.5547,324.2186 " fill="none" id="GMN19-hormones" style="stroke:#181818;stroke-width:1.0;stroke-dasharray:7.0,7.0;"/></g><!--link GMN25 to Mamma_Operation--><g id="link_GMN25_Mamma_Operation"><path d="M1111.83,912.8394 C1073.32,935.9794 1017.66,967.0994 965.75,987.6094 C862.81,1028.2894 742.24,1059.8394 647.95,1081.1294 " fill="none" id="GMN25-Mamma_Operation" style="stroke:#181818;stroke-width:1.0;stroke-dasharray:7.0,7.0;"/></g><rect fill="#DDDDDD" height="207.7031" id="_legend" rx="7.5" ry="7.5" style="stroke:#000000;stroke-width:1.0;" width="157" x="1463.75" y="1198.3594"/><text fill="#000000" font-family="sans-serif" font-size="14" lengthAdjust="spacing" textLength="38" x="1468.75" y="1219.8926">Farbe</text><text fill="#000000" font-family="sans-serif" font-size="14" lengthAdjust="spacing" textLength="24" x="1506.75" y="1219.8926">Typ</text><rect fill="#FFFF66" height="17.6094" style="stroke:none;stroke-width:1.0;" width="38" x="1468.75" y="1222.9688"/><text fill="#000000" font-family="sans-serif" font-size="14" lengthAdjust="spacing" textLength="4" x="1468.75" y="1237.502">&#160;</text><text fill="#000000" font-family="sans-serif" font-size="14" lengthAdjust="spacing" textLength="60" x="1506.75" y="1237.502">Condition</text><rect fill="#CCCCFF" height="17.6094" style="stroke:none;stroke-width:1.0;" width="38" x="1468.75" y="1240.5781"/><text fill="#000000" font-family="sans-serif" font-size="14" lengthAdjust="spacing" textLength="4" x="1468.75" y="1255.1113">&#160;</text><text fill="#000000" font-family="sans-serif" font-size="14" lengthAdjust="spacing" textLength="59" x="1506.75" y="1255.1113">CarePlan</text><rect fill="#9999FF" height="17.6094" style="stroke:none;stroke-width:1.0;" width="38" x="1468.75" y="1258.1875"/><text fill="#000000" font-family="sans-serif" font-size="14" lengthAdjust="spacing" textLength="4" x="1468.75" y="1272.7207">&#160;</text><text fill="#000000" font-family="sans-serif" font-size="14" lengthAdjust="spacing" textLength="66" x="1506.75" y="1272.7207">Procedure</text><rect fill="#DDFFDD" height="17.6094" style="stroke:none;stroke-width:1.0;" width="38" x="1468.75" y="1275.7969"/><text fill="#000000" font-family="sans-serif" font-size="14" lengthAdjust="spacing" textLength="4" x="1468.75" y="1290.3301">&#160;</text><text fill="#000000" font-family="sans-serif" font-size="14" lengthAdjust="spacing" textLength="100" x="1506.75" y="1290.3301">ServiceRequest</text><rect fill="#88FF88" height="17.6094" style="stroke:none;stroke-width:1.0;" width="38" x="1468.75" y="1293.4063"/><text fill="#000000" font-family="sans-serif" font-size="14" lengthAdjust="spacing" textLength="4" x="1468.75" y="1307.9395">&#160;</text><text fill="#000000" font-family="sans-serif" font-size="14" lengthAdjust="spacing" textLength="109" x="1506.75" y="1307.9395">DiagnosticReport</text><rect fill="#22FF22" height="17.6094" style="stroke:none;stroke-width:1.0;" width="38" x="1468.75" y="1311.0156"/><text fill="#000000" font-family="sans-serif" font-size="14" lengthAdjust="spacing" textLength="4" x="1468.75" y="1325.5488">&#160;</text><text fill="#000000" font-family="sans-serif" font-size="14" lengthAdjust="spacing" textLength="77" x="1506.75" y="1325.5488">Observation</text><rect fill="#FFCCFF" height="17.6094" style="stroke:none;stroke-width:1.0;" width="38" x="1468.75" y="1328.625"/><text fill="#000000" font-family="sans-serif" font-size="14" lengthAdjust="spacing" textLength="4" x="1468.75" y="1343.1582">&#160;</text><text fill="#000000" font-family="sans-serif" font-size="14" lengthAdjust="spacing" textLength="68" x="1506.75" y="1343.1582">Medication</text><rect fill="#FF9999" height="17.6094" style="stroke:none;stroke-width:1.0;" width="38" x="1468.75" y="1346.2344"/><text fill="#000000" font-family="sans-serif" font-size="14" lengthAdjust="spacing" textLength="4" x="1468.75" y="1360.7676">&#160;</text><text fill="#000000" font-family="sans-serif" font-size="14" lengthAdjust="spacing" textLength="88" x="1506.75" y="1360.7676">AdverseEvent</text><rect fill="#44FFFF" height="17.6094" style="stroke:none;stroke-width:1.0;" width="38" x="1468.75" y="1363.8438"/><text fill="#000000" font-family="sans-serif" font-size="14" lengthAdjust="spacing" textLength="4" x="1468.75" y="1378.377">&#160;</text><text fill="#000000" font-family="sans-serif" font-size="14" lengthAdjust="spacing" textLength="62" x="1506.75" y="1378.377">Specimen</text><rect fill="#EEEEEE" height="17.6094" style="stroke:none;stroke-width:1.0;" width="38" x="1468.75" y="1381.4531"/><text fill="#000000" font-family="sans-serif" font-size="14" lengthAdjust="spacing" textLength="4" x="1468.75" y="1395.9863">&#160;</text><text fill="#000000" font-family="sans-serif" font-size="14" lengthAdjust="spacing" textLength="44" x="1506.75" y="1395.9863">Bundle</text><line style="stroke:#000000;stroke-width:1.0;" x1="1468.75" x2="1615.75" y1="1205.3594" y2="1205.3594"/><line style="stroke:#000000;stroke-width:1.0;" x1="1468.75" x2="1615.75" y1="1222.9688" y2="1222.9688"/><line style="stroke:#000000;stroke-width:1.0;" x1="1468.75" x2="1615.75" y1="1240.5781" y2="1240.5781"/><line style="stroke:#000000;stroke-width:1.0;" x1="1468.75" x2="1615.75" y1="1258.1875" y2="1258.1875"/><line style="stroke:#000000;stroke-width:1.0;" x1="1468.75" x2="1615.75" y1="1275.7969" y2="1275.7969"/><line style="stroke:#000000;stroke-width:1.0;" x1="1468.75" x2="1615.75" y1="1293.4063" y2="1293.4063"/><line style="stroke:#000000;stroke-width:1.0;" x1="1468.75" x2="1615.75" y1="1311.0156" y2="1311.0156"/><line style="stroke:#000000;stroke-width:1.0;" x1="1468.75" x2="1615.75" y1="1328.625" y2="1328.625"/><line style="stroke:#000000;stroke-width:1.0;" x1="1468.75" x2="1615.75" y1="1346.2344" y2="1346.2344"/><line style="stroke:#000000;stroke-width:1.0;" x1="1468.75" x2="1615.75" y1="1363.8438" y2="1363.8438"/><line style="stroke:#000000;stroke-width:1.0;" x1="1468.75" x2="1615.75" y1="1381.4531" y2="1381.4531"/><line style="stroke:#000000;stroke-width:1.0;" x1="1468.75" x2="1615.75" y1="1399.0625" y2="1399.0625"/><line style="stroke:#000000;stroke-width:1.0;" x1="1468.75" x2="1468.75" y1="1205.3594" y2="1399.0625"/><line style="stroke:#000000;stroke-width:1.0;" x1="1506.75" x2="1506.75" y1="1205.3594" y2="1399.0625"/><line style="stroke:#000000;stroke-width:1.0;" x1="1615.75" x2="1615.75" y1="1205.3594" y2="1399.0625"/><!--SRC=[rLVTZjf65BxtKunOjTqbTRgmkuIiKgGiO2rg20XeAhMgq60VO8ezuup794lfRH-W5ts2F4RkU9C-IS-CZUtbfoIgUj6vM5Rdd3a_tvpvpbWnvGFfTZgannV25pC6n2PT6WHqGUMASH6Ghl1YtueMZ8TKqe1uCAMnhnp1rP2jW5Hg1QMO_0Bk4Lr8tGMTGQwi5vHSg8BcshA-8Zy2Lv9YVYr6Prn4O2NUTRxZhMpSbooW85KS24dE75or6ldL8hXAMhVvaEgsEqhMRu-yzqAGL371C_Uw_74c9cVFSJbEwlIEcg1Yod3ljoQN_c2iuSkt64DnrngEcy8pLjT6L2xZHXUyMC9J2JGIV01JaC1TA9V9Nx__iKsIHSRUJNRt-aE2_qaoVDthjbkaEKhAkvDnfEmiQbhOlP21uFO4Lc867EkRH22NnW8ucSau39cEISvznXSH2J6SLXhXXPMU4YabViYNP00h21KYE5HKnL69q8ZCZH8YSjQkEpVjUWhE8mIxm4L8umXuP3QIishLSQhLr7OFeqecJkeSDqSehjGgpohLoykRJ5ik5qfwEXLk71r4JwybzMFG0UZ4nry4EbJeDAaaiohjfbeoAeHphwWj68dTk1qfgM4-LLkLscwcUTNhl6wYzFhovgPcN_s7XRaY2FMngvykVqRj5-bXBm7Rt_U17p2iQ4C7Ryq465S825ER3og7QlDdMhBSQOjFXQolTqSAf3Y9sjKXrEetLrVFxSl_5sg5ee_WflyMiIlTjmVLRpZ4nMkdPQT0UrO4xNF0AMbnL_YmY7qgyMwFD6zE19LUgN1LaFjP83nDdNVmJZCldzqM33htJVA4T8RtsyeCApNdJCOIvqjEJ8Z9od1XaPLo_kc3P2BXjcNHs00HeI-G3vf-a82SG_JJbnIo_UCkbGiCWBdkyFaUVaMY-Jowtjs3aqtrfgbfFa_EHQX_gNzHQAGaTfPaP13UQwBDXnmHSpf1jkFu_HkA5QE-npIv7IZ-KmPQsffxMDN-5LQbHvbz9tY4lPMEiaBhzFC1XNLQsUYnVPWg-_Xhm3h-Jh0bcysLlJlgTRGxM36OOo3inUCENjZstcvoItOgF-KWA-MMcAjvodxRzVk1h1CzRzkD0-ac3LfiICi7BDmZ1XzYhHsAZBOUFOHhQ_qYVLqrriYSdZaI8stYSXoK8cdqVPe8apPhhBEkCD9Mot5QhSPwY9J4N1Z0snXPqQZgU8thzSOwBLynTm2Xa8aoORp6ka1cQK99w2vup2sATVZ6-gMt11b1UuaKRHJNrxe4Z1-2om98hDjcDTPtCVTyp1FqZqR1ilIhb2WH4Z7D3iigbvEdaPu5vig2l2sNhH-OErTiHgQRZvACveWoCXe6ZjmvC4ztBdRCpZi3HVlpzFnjJBbY-YOiBz3YqEpOjTaP5he6ywH-N8AsqkblZNF-nlnVnbEaOTmNv0oVlPeLMrZddI28-Pn5Ic190Nug8Crp6ozdRDy_J2JpM9IqsuN5qky6d1U71mgXanbCcE-1EfBixjqibz_ewJq4XKMY372OwBpRyXqmH6U28SnJ-Kd-JYQQg2BhUnp9-FpOV5GhXTyliJaJeclLmrfochG_aE43uXp0FsPqx8vXWXtqDajl5rseM7U890jyPpCTKU9HqlSiqbcF94sk4DgGbgHpbLCvPeMFxXdJPyw_jkW4TsxTvTvIPqI_EERKLw1kiH46w5QWiPuGGm3FVYKME4ZIWq4UrxGruw0I7_icbkRg36b8mLL9MmVwCmH7znkGKphNupf3wcy0]--></g></svg>